<svg width="25" height="20" viewBox="0 0 25 20" fill="none" xmlns="http://www.w3.org/2000/svg">
<path d="M2.34375 0C1.8802 0 1.42706 0.134177 1.04163 0.385563C0.656206 0.63695 0.355801 0.994255 0.178408 1.4123C0.00101551 1.83034 -0.0453986 2.29034 0.0450356 2.73413C0.13547 3.17791 0.35869 3.58556 0.68647 3.90552C1.01425 4.22547 1.43187 4.44336 1.88651 4.53164C2.34115 4.61991 2.8124 4.57461 3.24067 4.40145C3.66893 4.22829 4.03497 3.93506 4.29251 3.55883C4.55004 3.1826 4.6875 2.74028 4.6875 2.2878C4.6875 1.68104 4.44057 1.09913 4.00103 0.670081C3.56149 0.241035 2.96535 0 2.34375 0ZM2.34375 7.62599C1.8802 7.62599 1.42706 7.76017 1.04163 8.01156C0.656206 8.26294 0.355801 8.62025 0.178408 9.03829C0.00101551 9.45633 -0.0453986 9.91633 0.0450356 10.3601C0.13547 10.8039 0.35869 11.2116 0.68647 11.5315C1.01425 11.8515 1.43187 12.0694 1.88651 12.1576C2.34115 12.2459 2.8124 12.2006 3.24067 12.0274C3.66893 11.8543 4.03497 11.561 4.29251 11.1848C4.55004 10.8086 4.6875 10.3663 4.6875 9.91379C4.6875 9.30703 4.44057 8.72512 4.00103 8.29607C3.56149 7.86703 2.96535 7.62599 2.34375 7.62599ZM2.34375 15.252C1.8802 15.252 1.42706 15.3862 1.04163 15.6375C0.656206 15.8889 0.355801 16.2462 0.178408 16.6643C0.00101551 17.0823 -0.0453986 17.5423 0.0450356 17.9861C0.13547 18.4299 0.35869 18.8375 0.68647 19.1575C1.01425 19.4775 1.43187 19.6953 1.88651 19.7836C2.34115 19.8719 2.8124 19.8266 3.24067 19.6534C3.66893 19.4803 4.03497 19.187 4.29251 18.8108C4.55004 18.4346 4.6875 17.9923 4.6875 17.5398C4.6875 16.933 4.44057 16.3511 4.00103 15.9221C3.56149 15.493 2.96535 15.252 2.34375 15.252ZM24.2188 16.0146H8.59375C8.38655 16.0146 8.18784 16.0949 8.04132 16.2379C7.89481 16.381 7.8125 16.5749 7.8125 16.7772V18.3024C7.8125 18.5046 7.89481 18.6986 8.04132 18.8416C8.18784 18.9846 8.38655 19.065 8.59375 19.065H24.2188C24.426 19.065 24.6247 18.9846 24.7712 18.8416C24.9177 18.6986 25 18.5046 25 18.3024V16.7772C25 16.5749 24.9177 16.381 24.7712 16.2379C24.6247 16.0949 24.426 16.0146 24.2188 16.0146ZM24.2188 0.762599H8.59375C8.38655 0.762599 8.18784 0.842944 8.04132 0.98596C7.89481 1.12897 7.8125 1.32294 7.8125 1.5252V3.0504C7.8125 3.25265 7.89481 3.44662 8.04132 3.58964C8.18784 3.73265 8.38655 3.813 8.59375 3.813H24.2188C24.426 3.813 24.6247 3.73265 24.7712 3.58964C24.9177 3.44662 25 3.25265 25 3.0504V1.5252C25 1.32294 24.9177 1.12897 24.7712 0.98596C24.6247 0.842944 24.426 0.762599 24.2188 0.762599V0.762599ZM24.2188 8.38859H8.59375C8.38655 8.38859 8.18784 8.46894 8.04132 8.61195C7.89481 8.75497 7.8125 8.94894 7.8125 9.15119V10.6764C7.8125 10.8786 7.89481 11.0726 8.04132 11.2156C8.18784 11.3586 8.38655 11.439 8.59375 11.439H24.2188C24.426 11.439 24.6247 11.3586 24.7712 11.2156C24.9177 11.0726 25 10.8786 25 10.6764V9.15119C25 8.94894 24.9177 8.75497 24.7712 8.61195C24.6247 8.46894 24.426 8.38859 24.2188 8.38859Z" fill="#9D9D9D"/>
</svg>
