<svg width="25" height="23" viewBox="0 0 25 23" fill="none" xmlns="http://www.w3.org/2000/svg">
<path d="M24.7396 20.5532H2.34375V0.260167C2.34375 0.117075 2.22656 0 2.08333 0H0.260417C0.117187 0 0 0.117075 0 0.260167V22.6346C0 22.7777 0.117187 22.8947 0.260417 22.8947H24.7396C24.8828 22.8947 25 22.7777 25 22.6346V20.8134C25 20.6703 24.8828 20.5532 24.7396 20.5532ZM4.6875 18.4719H22.1354C22.2786 18.4719 22.3958 18.3548 22.3958 18.2117V4.0326C22.3958 3.79845 22.1126 3.68462 21.9499 3.84723L15.1042 10.6864L11.0221 6.65378C10.9732 6.60537 10.9071 6.5782 10.8382 6.5782C10.7693 6.5782 10.7032 6.60537 10.6543 6.65378L4.50195 12.8198C4.47806 12.8437 4.45914 12.8721 4.44629 12.9033C4.43344 12.9346 4.42691 12.9681 4.42708 13.0019V18.2117C4.42708 18.3548 4.54427 18.4719 4.6875 18.4719Z" fill="#9D9D9D"/>
</svg>
