<svg width="25" height="26" viewBox="0 0 25 26" fill="none" xmlns="http://www.w3.org/2000/svg">
<path fill-rule="evenodd" clip-rule="evenodd" d="M12.5279 0C9.23129 0 6.22736 1.07605 4.45025 1.95521C4.28969 2.03454 4.14008 2.11244 4.00068 2.18744C3.72481 2.33601 3.48981 2.47449 3.30297 2.59637L5.32457 5.53748L6.27625 5.91179C9.99541 7.76603 14.983 7.76603 18.7029 5.91179L19.783 5.3579L21.6951 2.59637C21.299 2.34106 20.8871 2.11054 20.4617 1.90617C18.6941 1.03638 15.7624 0 12.5279 0ZM7.82566 3.32912C7.10979 3.19674 6.40275 3.0214 5.70846 2.80408C7.37317 2.07349 9.85455 1.29819 12.5271 1.29819C14.3787 1.29819 16.1295 1.67033 17.5775 2.14201C15.8807 2.37784 14.07 2.77812 12.3447 3.27071C10.9872 3.65872 9.40061 3.61689 7.82566 3.32912V3.32912ZM19.4736 6.98135L19.2947 7.07078C15.2027 9.11037 9.77573 9.11037 5.68364 7.07078L5.51432 6.98568C-0.632204 13.6504 -5.32493 25.9615 12.5279 25.9615C30.3792 25.9615 25.5719 13.4203 19.4736 6.98135ZM11.7689 12.9819C11.3817 12.9819 11.0105 13.1338 10.7367 13.4043C10.463 13.6748 10.3092 14.0417 10.3092 14.4243C10.3092 14.8068 10.463 15.1737 10.7367 15.4442C11.0105 15.7147 11.3817 15.8667 11.7689 15.8667V12.9819ZM13.2285 11.5394V10.8182H11.7689V11.5394C10.9946 11.5394 10.2521 11.8434 9.70463 12.3844C9.15716 12.9254 8.84959 13.6592 8.84959 14.4243C8.84959 15.1894 9.15716 15.9232 9.70463 16.4642C10.2521 17.0052 10.9946 17.3091 11.7689 17.3091V20.194C11.467 20.1941 11.1725 20.1017 10.926 19.9295C10.6795 19.7573 10.4931 19.5138 10.3924 19.2326C10.328 19.0522 10.1936 18.9046 10.019 18.822C9.84436 18.7395 9.64371 18.729 9.46118 18.7927C9.27865 18.8564 9.12921 18.9891 9.04572 19.1617C8.96223 19.3343 8.95154 19.5326 9.01599 19.7129C9.21731 20.2755 9.59013 20.7625 10.0831 21.107C10.5761 21.4514 11.1651 21.6364 11.7689 21.6364V22.3576H13.2285V21.6364C14.0027 21.6364 14.7453 21.3325 15.2927 20.7915C15.8402 20.2504 16.1478 19.5167 16.1478 18.7516C16.1478 17.9865 15.8402 17.2527 15.2927 16.7117C14.7453 16.1706 14.0027 15.8667 13.2285 15.8667V12.9819C13.8634 12.9819 14.4042 13.3821 14.6057 13.9432C14.6356 14.035 14.6838 14.12 14.7475 14.193C14.8111 14.2661 14.889 14.3258 14.9764 14.3686C15.0639 14.4114 15.1591 14.4365 15.2565 14.4423C15.3539 14.4481 15.4515 14.4345 15.5435 14.4024C15.6356 14.3702 15.7201 14.3202 15.7922 14.2552C15.8643 14.1903 15.9225 14.1116 15.9633 14.024C16.0041 13.9365 16.0268 13.8417 16.0299 13.7453C16.033 13.6489 16.0165 13.5529 15.9814 13.4629C15.7801 12.9004 15.4072 12.4133 14.9142 12.0689C14.4212 11.7244 13.8323 11.5394 13.2285 11.5394ZM13.2285 17.3091V20.194C13.6156 20.194 13.9869 20.042 14.2606 19.7715C14.5344 19.501 14.6881 19.1341 14.6881 18.7516C14.6881 18.369 14.5344 18.0021 14.2606 17.7316C13.9869 17.4611 13.6156 17.3091 13.2285 17.3091Z" fill="#9D9D9D"/>
</svg>
