<svg width="25" height="26" viewBox="0 0 25 26" fill="none" xmlns="http://www.w3.org/2000/svg">
<path d="M5.26316 25.8281H1.31579C0.96682 25.8281 0.632144 25.6895 0.385386 25.4427C0.138627 25.196 0 24.8613 0 24.5123V13.986C0 13.6371 0.138627 13.3024 0.385386 13.0556C0.632144 12.8089 0.96682 12.6702 1.31579 12.6702H5.26316C5.61213 12.6702 5.9468 12.8089 6.19356 13.0556C6.44032 13.3024 6.57895 13.6371 6.57895 13.986V24.5123C6.57895 24.8613 6.44032 25.196 6.19356 25.4427C5.9468 25.6895 5.61213 25.8281 5.26316 25.8281ZM14.4737 25.8281H10.5263C10.1773 25.8281 9.84267 25.6895 9.59591 25.4427C9.34915 25.196 9.21053 24.8613 9.21053 24.5123V2.14391C9.21053 1.79495 9.34915 1.46027 9.59591 1.21351C9.84267 0.966752 10.1773 0.828125 10.5263 0.828125H14.4737C14.8227 0.828125 15.1573 0.966752 15.4041 1.21351C15.6508 1.46027 15.7895 1.79495 15.7895 2.14391V24.5123C15.7895 24.8613 15.6508 25.196 15.4041 25.4427C15.1573 25.6895 14.8227 25.8281 14.4737 25.8281ZM23.6842 25.8281H19.7368C19.3879 25.8281 19.0532 25.6895 18.8064 25.4427C18.5597 25.196 18.4211 24.8613 18.4211 24.5123V10.0387C18.4211 9.68968 18.5597 9.35501 18.8064 9.10825C19.0532 8.86149 19.3879 8.72286 19.7368 8.72286H23.6842C24.0332 8.72286 24.3679 8.86149 24.6146 9.10825C24.8614 9.35501 25 9.68968 25 10.0387V24.5123C25 24.8613 24.8614 25.196 24.6146 25.4427C24.3679 25.6895 24.0332 25.8281 23.6842 25.8281Z" fill="#9D9D9D"/>
</svg>
