<svg width="30" height="40" viewBox="0 0 30 40" fill="none" xmlns="http://www.w3.org/2000/svg">
<path opacity="0.4" d="M7.39147 27.8241C6.73011 27.1628 7.07487 27.3493 5.47971 26.9223C4.75595 26.7282 4.11971 26.3553 3.54436 25.9086L0.0914763 34.3745C-0.242625 35.1942 0.381436 36.0846 1.26578 36.0511L5.27575 35.8981L8.03379 38.8114C8.64263 39.4537 9.71115 39.2536 10.0452 38.4339L14.0065 28.7214C13.1815 29.1811 12.266 29.4505 11.3192 29.4505C9.8352 29.4505 8.44095 28.8729 7.39147 27.8241ZM29.1331 34.3745L25.6803 25.9086C25.1049 26.3561 24.4687 26.7282 23.7449 26.9223C22.1414 27.3515 22.493 27.1643 21.8331 27.8241C20.7837 28.8729 19.3887 29.4505 17.9046 29.4505C16.9579 29.4505 16.0423 29.1803 15.2173 28.7214L19.1786 38.4339C19.5127 39.2536 20.582 39.4537 21.1901 38.8114L23.9489 35.8981L27.9588 36.0511C28.8432 36.0846 29.4672 35.1934 29.1331 34.3745ZM20.0158 26.1019C21.1786 24.9185 21.3118 25.0204 22.9679 24.5691C24.025 24.2807 24.8515 23.4397 25.1346 22.3636C25.7038 20.2022 25.5562 20.4633 27.1095 18.8818C27.8835 18.0941 28.1856 16.9457 27.9025 15.8696C27.334 13.7097 27.3333 14.0111 27.9025 11.849C28.1856 10.7728 27.8835 9.6244 27.1095 8.83672C25.5562 7.25526 25.7038 7.51553 25.1346 5.35491C24.8515 4.27879 24.025 3.43783 22.9679 3.14939C20.8461 2.57023 21.1018 2.72168 19.547 1.13946C18.773 0.351773 17.6443 0.0435476 16.5872 0.331985C14.4662 0.910383 14.7622 0.911144 12.6374 0.331985C11.5803 0.0435476 10.4516 0.351012 9.67766 1.13946C8.12436 2.72092 8.38007 2.57023 6.2575 3.14939C5.2004 3.43783 4.3739 4.27879 4.09079 5.35491C3.52229 7.51553 3.66917 7.25526 2.11587 8.83672C1.34188 9.6244 1.03898 10.7728 1.32285 11.849C1.89136 14.0073 1.89212 13.7059 1.32285 15.8688C1.03974 16.9449 1.34188 18.0934 2.11587 18.8818C3.66917 20.4633 3.52153 20.2022 4.09079 22.3636C4.3739 23.4397 5.2004 24.2807 6.2575 24.5691C7.96073 25.0334 8.08783 24.9603 9.20885 26.1019C10.2157 27.127 11.7842 27.3104 12.9943 26.5448C13.4782 26.2376 14.0395 26.0745 14.6127 26.0745C15.1858 26.0745 15.7472 26.2376 16.2311 26.5448C17.4404 27.3104 19.0089 27.127 20.0158 26.1019ZM7.43256 13.6176C7.43256 9.58178 10.6472 6.31003 14.6123 6.31003C18.5774 6.31003 21.792 9.58178 21.792 13.6176C21.792 17.6535 18.5774 20.9252 14.6123 20.9252C10.6472 20.9252 7.43256 17.6535 7.43256 13.6176Z" fill="#9FA2B4"/>
</svg>
