<svg width="38" height="38" viewBox="0 0 38 38" fill="none" xmlns="http://www.w3.org/2000/svg">
<circle cx="19" cy="19" r="19" fill="#E1E1E1"/>
<path d="M18.65 22.05H18.6067C18.3927 22.05 18.1875 21.965 18.0363 21.8137C17.885 21.6625 17.8 21.4573 17.8 21.2434C17.8 21.0179 17.7104 20.8017 17.551 20.6423C17.3916 20.4829 17.1754 20.3934 16.95 20.3934C16.7246 20.3934 16.5084 20.4829 16.349 20.6423C16.1896 20.8017 16.1 21.0179 16.1 21.2434C16.1 21.9082 16.3641 22.5457 16.8342 23.0158C17.3043 23.4859 17.9418 23.75 18.6067 23.75H18.65V24.6C18.65 24.8254 18.7396 25.0416 18.899 25.201C19.0584 25.3604 19.2746 25.45 19.5 25.45C19.7254 25.45 19.9416 25.3604 20.101 25.201C20.2604 25.0416 20.35 24.8254 20.35 24.6V23.75C21.0263 23.75 21.6749 23.4813 22.1531 23.0031C22.6313 22.5249 22.9 21.8763 22.9 21.2C22.9 20.5237 22.6313 19.8751 22.1531 19.3969C21.6749 18.9187 21.0263 18.65 20.35 18.65V16.95H20.3687C20.8277 16.95 21.2 17.3223 21.2 17.7813C21.2 18.0067 21.2896 18.2229 21.449 18.3823C21.6084 18.5417 21.8246 18.6313 22.05 18.6313C22.2754 18.6313 22.4916 18.5417 22.651 18.3823C22.8104 18.2229 22.9 18.0067 22.9 17.7813C22.9 17.11 22.6333 16.4661 22.1586 15.9914C21.6839 15.5167 21.04 15.25 20.3687 15.25H20.35V14.4C20.35 14.1746 20.2604 13.9584 20.101 13.799C19.9416 13.6396 19.7254 13.55 19.5 13.55C19.2746 13.55 19.0584 13.6396 18.899 13.799C18.7396 13.9584 18.65 14.1746 18.65 14.4V15.25C18.3151 15.25 17.9835 15.316 17.6742 15.4441C17.3648 15.5723 17.0837 15.7601 16.8469 15.9969C16.6101 16.2337 16.4223 16.5148 16.2941 16.8242C16.166 17.1335 16.1 17.4651 16.1 17.8C16.1 18.1349 16.166 18.4665 16.2941 18.7758C16.4223 19.0852 16.6101 19.3663 16.8469 19.6031C17.0837 19.8399 17.3648 20.0277 17.6742 20.1559C17.9835 20.284 18.3151 20.35 18.65 20.35V22.05ZM20.35 22.05V20.35C20.5754 20.35 20.7916 20.4396 20.951 20.599C21.1104 20.7584 21.2 20.9746 21.2 21.2C21.2 21.4254 21.1104 21.6416 20.951 21.801C20.7916 21.9604 20.5754 22.05 20.35 22.05ZM18.65 16.95V18.65C18.4246 18.65 18.2084 18.5604 18.049 18.401C17.8896 18.2416 17.8 18.0254 17.8 17.8C17.8 17.5746 17.8896 17.3584 18.049 17.199C18.2084 17.0396 18.4246 16.95 18.65 16.95ZM19.5 28C14.8055 28 11 24.1946 11 19.5C11 14.8055 14.8055 11 19.5 11C24.1946 11 28 14.8055 28 19.5C28 24.1946 24.1946 28 19.5 28Z" fill="#121F49"/>
</svg>
