<svg width="26" height="22" viewBox="0 0 26 22" fill="none" xmlns="http://www.w3.org/2000/svg">
<path d="M18.4551 20.6365V18.4546C18.4551 17.2972 17.9953 16.1873 17.1769 15.3689C16.3586 14.5506 15.2486 14.0908 14.0913 14.0908H5.36376C4.20642 14.0908 3.09648 14.5506 2.27812 15.3689C1.45975 16.1873 1 17.2972 1 18.4546V20.6365" stroke="white" stroke-width="2" stroke-linecap="round" stroke-linejoin="round"/>
<path d="M9.72705 9.72753C12.1371 9.72753 14.0908 7.7738 14.0908 5.36376C14.0908 2.95372 12.1371 1 9.72705 1C7.317 1 5.36328 2.95372 5.36328 5.36376C5.36328 7.7738 7.317 9.72753 9.72705 9.72753Z" stroke="white" stroke-width="2" stroke-linecap="round" stroke-linejoin="round"/>
<path d="M17.3633 1.1416C18.3019 1.38194 19.1339 1.92784 19.728 2.69326C20.3222 3.45867 20.6447 4.40006 20.6447 5.369C20.6447 6.33794 20.3222 7.27932 19.728 8.04474C19.1339 8.81015 18.3019 9.35606 17.3633 9.59639M24.9999 20.6367V18.4548C24.9991 17.488 24.6773 16.5487 24.085 15.7846C23.4926 15.0204 22.6632 14.4746 21.727 14.2329L24.9999 20.6367Z" stroke="white" stroke-width="2" stroke-linecap="round" stroke-linejoin="round"/>
</svg>
