<svg width="50" height="35" viewBox="0 0 50 35" fill="none" xmlns="http://www.w3.org/2000/svg">
<path d="M11.1111 9.22591H38.8889V25.8926H11.1111V9.22591ZM45.8333 17.5592C45.8333 19.8605 47.6988 21.7259 50 21.7259V30.0592C50 32.3605 48.1345 34.2259 45.8333 34.2259H4.16667C1.86545 34.2259 0 32.3605 0 30.0592V21.7259C2.30122 21.7259 4.16667 19.8605 4.16667 17.5592C4.16667 15.258 2.30122 13.3926 0 13.3926V5.05924C0 2.75803 1.86545 0.892578 4.16667 0.892578H45.8333C48.1345 0.892578 50 2.75803 50 5.05924V13.3926C47.6988 13.3926 45.8333 15.258 45.8333 17.5592ZM41.6667 8.53147C41.6667 7.38086 40.7339 6.44813 39.5833 6.44813H10.4167C9.26606 6.44813 8.33333 7.38086 8.33333 8.53147V26.587C8.33333 27.7376 9.26606 28.6704 10.4167 28.6704H39.5833C40.7339 28.6704 41.6667 27.7376 41.6667 26.587V8.53147Z" fill="#D9DAE1"/>
</svg>
