<svg width="27" height="20" viewBox="0 0 27 20" fill="none" xmlns="http://www.w3.org/2000/svg">
<path fill-rule="evenodd" clip-rule="evenodd" d="M26.4669 0.271688C26.8028 0.523682 27 0.916173 27 1.3326V17.3237C27 17.7279 26.8141 18.1103 26.4947 18.3632C26.1753 18.6161 25.7569 18.7123 25.3571 18.6246L14.2309 16.184C14.0387 16.8207 13.7277 17.4167 13.3136 17.9413C12.8769 18.4947 12.334 18.9577 11.716 19.3039C11.098 19.6502 10.417 19.8729 9.71176 19.9593C9.00656 20.0457 8.29102 19.9942 7.606 19.8077C6.92097 19.6211 6.27987 19.3032 5.71931 18.8721C5.15874 18.441 4.68969 17.9052 4.33893 17.2951C3.98816 16.6851 3.76256 16.0128 3.675 15.3167C3.6145 14.8357 3.62072 14.3498 3.6927 13.8723L1.05714 13.2942C0.439468 13.1587 0 12.6179 0 11.9934V7.99557C0 7.39696 0.404374 6.87181 0.988681 6.71159L25.2887 0.0486275C25.6952 -0.062828 26.1311 0.0196942 26.4669 0.271688ZM6.34174 14.4534C6.32789 14.6313 6.33205 14.8104 6.35443 14.9883C6.3983 15.3371 6.51133 15.6739 6.68708 15.9796C6.86282 16.2852 7.09784 16.5537 7.3787 16.7697C7.65956 16.9857 7.98078 17.145 8.324 17.2384C8.66723 17.3319 9.02574 17.3577 9.37907 17.3144C9.7324 17.2711 10.0736 17.1595 10.3833 16.9861C10.6929 16.8126 10.9649 16.5806 11.1837 16.3034C11.3517 16.0906 11.4858 15.8544 11.5818 15.6029L6.34174 14.4534ZM2.7 9.00846V10.9244L24.3 15.6625V3.08582L2.7 9.00846Z" fill="white"/>
</svg>
