<svg width="34" height="36" viewBox="0 0 34 36" fill="none" xmlns="http://www.w3.org/2000/svg">
<path opacity="0.4" d="M33.0774 21.9312L30.0714 20.1953C30.3748 18.5582 30.3748 16.8788 30.0714 15.2417L33.0774 13.5058C33.4232 13.3083 33.5784 12.899 33.4655 12.5179C32.6822 10.0059 31.3486 7.73369 29.6056 5.84257C29.3375 5.55325 28.9 5.48269 28.5613 5.68027L25.5553 7.41615C24.2922 6.32946 22.8385 5.48975 21.265 4.93934V1.47464C21.265 1.07948 20.9898 0.733715 20.6017 0.649038C18.0119 0.0704107 15.3587 0.0986364 12.896 0.649038C12.5079 0.733715 12.2327 1.07948 12.2327 1.47464V4.9464C10.6662 5.50386 9.21259 6.34357 7.94243 7.42321L4.94345 5.68733C4.59769 5.48975 4.16725 5.55325 3.8991 5.84962C2.15617 7.73369 0.822505 10.0059 0.0392421 12.525C-0.080717 12.906 0.0815807 13.3153 0.427345 13.5129L3.43338 15.2488C3.12995 16.8859 3.12995 18.5653 3.43338 20.2024L0.427345 21.9383C0.0815807 22.1359 -0.0736606 22.5451 0.0392421 22.9262C0.822505 25.4383 2.15617 27.7104 3.8991 29.6015C4.16725 29.8909 4.60475 29.9614 4.94345 29.7638L7.94949 28.028C9.21259 29.1147 10.6662 29.9544 12.2398 30.5048V33.9765C12.2398 34.3717 12.515 34.7175 12.9031 34.8021C15.4928 35.3808 18.146 35.3525 20.6087 34.8021C20.9968 34.7175 21.272 34.3717 21.272 33.9765V30.5048C22.8385 29.9473 24.2922 29.1076 25.5623 28.028L28.5684 29.7638C28.9141 29.9614 29.3446 29.8979 29.6127 29.6015C31.3556 27.7175 32.6893 25.4453 33.4726 22.9262C33.5784 22.5381 33.4232 22.1288 33.0774 21.9312ZM16.7488 23.3637C13.637 23.3637 11.1037 20.8304 11.1037 17.7185C11.1037 14.6066 13.637 12.0734 16.7488 12.0734C19.8607 12.0734 22.394 14.6066 22.394 17.7185C22.394 20.8304 19.8607 23.3637 16.7488 23.3637Z" fill="#9FA2B4"/>
</svg>
