<svg width="50" height="36" viewBox="0 0 50 36" fill="none" xmlns="http://www.w3.org/2000/svg">
<path opacity="0.4" d="M7.5 15.2256C10.2578 15.2256 12.5 12.9834 12.5 10.2256C12.5 7.46777 10.2578 5.22559 7.5 5.22559C4.74219 5.22559 2.5 7.46777 2.5 10.2256C2.5 12.9834 4.74219 15.2256 7.5 15.2256ZM42.5 15.2256C45.2578 15.2256 47.5 12.9834 47.5 10.2256C47.5 7.46777 45.2578 5.22559 42.5 5.22559C39.7422 5.22559 37.5 7.46777 37.5 10.2256C37.5 12.9834 39.7422 15.2256 42.5 15.2256ZM45 17.7256H40C38.625 17.7256 37.3828 18.2803 36.4766 19.1787C39.625 20.9053 41.8594 24.0225 42.3438 27.7256H47.5C48.8828 27.7256 50 26.6084 50 25.2256V22.7256C50 19.9678 47.7578 17.7256 45 17.7256ZM25 17.7256C29.8359 17.7256 33.75 13.8115 33.75 8.97559C33.75 4.13965 29.8359 0.225586 25 0.225586C20.1641 0.225586 16.25 4.13965 16.25 8.97559C16.25 13.8115 20.1641 17.7256 25 17.7256ZM31 20.2256H30.3516C28.7266 21.0068 26.9219 21.4756 25 21.4756C23.0781 21.4756 21.2812 21.0068 19.6484 20.2256H19C14.0312 20.2256 10 24.2568 10 29.2256V31.4756C10 33.5459 11.6797 35.2256 13.75 35.2256H36.25C38.3203 35.2256 40 33.5459 40 31.4756V29.2256C40 24.2568 35.9688 20.2256 31 20.2256ZM13.5234 19.1787C12.6172 18.2803 11.375 17.7256 10 17.7256H5C2.24219 17.7256 0 19.9678 0 22.7256V25.2256C0 26.6084 1.11719 27.7256 2.5 27.7256H7.64844C8.14062 24.0225 10.375 20.9053 13.5234 19.1787Z" fill="#9FA2B4"/>
</svg>
