<svg width="38" height="39" viewBox="0 0 38 39" fill="none" xmlns="http://www.w3.org/2000/svg">
<circle cx="19" cy="19.6191" r="19" fill="#E1E1E1"/>
<path d="M29.5363 25.7782H11.8508V9.82369C11.8508 9.71119 11.7583 9.61914 11.6452 9.61914H10.2056C10.0925 9.61914 10 9.71119 10 9.82369V27.4146C10 27.5271 10.0925 27.6191 10.2056 27.6191H29.5363C29.6494 27.6191 29.7419 27.5271 29.7419 27.4146V25.9828C29.7419 25.8703 29.6494 25.7782 29.5363 25.7782ZM13.7016 24.1419H27.4798C27.5929 24.1419 27.6855 24.0498 27.6855 23.9373V12.7896C27.6855 12.6055 27.4618 12.516 27.3333 12.6439L21.9274 18.0208L18.7039 14.8504C18.6653 14.8123 18.6131 14.791 18.5587 14.791C18.5043 14.791 18.4521 14.8123 18.4135 14.8504L13.5551 19.6981C13.5362 19.7169 13.5213 19.7393 13.5111 19.7638C13.501 19.7884 13.4958 19.8147 13.496 19.8413V23.9373C13.496 24.0498 13.5885 24.1419 13.7016 24.1419Z" fill="#121F49"/>
</svg>
