<svg width="38" height="38" viewBox="0 0 38 38" fill="none" xmlns="http://www.w3.org/2000/svg">
<circle cx="19" cy="19" r="19" fill="#E1E1E1"/>
<path d="M18.5 13C20.7032 13 22.7381 13.3952 24.2545 14.0693C25.011 14.4059 25.6774 14.8284 26.1644 15.3409C26.615 15.8144 26.9414 16.3974 26.9932 17.0655L27 17.25V20.65C27 21.3963 26.6566 22.0431 26.1644 22.5591C25.6774 23.0716 25.0119 23.4941 24.2545 23.8307C22.7381 24.5048 20.7032 24.9 18.5 24.9C16.2968 24.9 14.2619 24.5048 12.7455 23.8307C11.989 23.4941 11.3226 23.0716 10.8356 22.5591C10.3851 22.0856 10.0586 21.5026 10.0068 20.8344L10 20.65V17.25C10 16.5037 10.3434 15.8569 10.8356 15.3409C11.3226 14.8284 11.9882 14.4059 12.7455 14.0693C14.2619 13.3952 16.2968 13 18.5 13ZM25.3 19.868C24.9813 20.0771 24.6285 20.2641 24.2545 20.4307C22.7381 21.1047 20.7032 21.5 18.5 21.5C16.2968 21.5 14.2619 21.1047 12.7455 20.4307C12.3825 20.2715 12.0328 20.0833 11.7 19.868V20.65C11.7 20.8429 11.785 21.0903 12.0672 21.3878C12.3537 21.6887 12.8084 21.999 13.4357 22.2778C14.6886 22.8345 16.4787 23.2 18.5 23.2C20.5222 23.2 22.3114 22.8345 23.5643 22.2778C24.1916 21.999 24.6464 21.6887 24.9328 21.3878C25.2159 21.0903 25.3 20.8429 25.3 20.65V19.868Z" fill="#121F49"/>
</svg>
