<svg width="38" height="38" viewBox="0 0 38 38" fill="none" xmlns="http://www.w3.org/2000/svg">
<circle cx="19" cy="19" r="19" fill="#E1E1E1"/>
<path d="M27.1766 14.0441L21.625 17.6884V14.6125C21.6253 14.512 21.5972 14.4134 21.5437 14.3283C21.4903 14.2431 21.4138 14.1749 21.3231 14.1315C21.2324 14.0881 21.1312 14.0713 21.0314 14.0831C20.9316 14.0949 20.8371 14.1348 20.7591 14.1981L17.4122 16.9978H15.25V11.7172L12.0625 11V16.9978H11V26.0291C11 26.17 11.056 26.3051 11.1556 26.4047C11.2552 26.5043 11.3904 26.5603 11.5312 26.5603H27.4688C27.6096 26.5603 27.7448 26.5043 27.8444 26.4047C27.944 26.3051 28 26.17 28 26.0291V14.485C27.9995 14.3893 27.9732 14.2956 27.9238 14.2136C27.8745 14.1317 27.8039 14.0646 27.7195 14.0194C27.6352 13.9742 27.5402 13.9527 27.4447 13.957C27.3491 13.9614 27.2565 13.9914 27.1766 14.0441ZM17.375 24.9666H13.125V23.9041H17.375V24.9666ZM17.375 22.8416H13.125V21.7791H17.375V22.8416ZM17.375 20.7166H13.125V19.6541H17.375V20.7166ZM21.625 24.9666H20.5625V23.3728H21.625V24.9666ZM21.625 21.7791H20.5625V20.1853H21.625V21.7791ZM23.75 24.9666H22.6875V23.3728H23.75V24.9666ZM23.75 21.7791H22.6875V20.1853H23.75V21.7791ZM25.875 24.9666H24.8125V23.3728H25.875V24.9666ZM25.875 21.7791H24.8125V20.1853H25.875V21.7791Z" fill="#121F49"/>
</svg>
