<svg width="38" height="38" viewBox="0 0 38 38" fill="none" xmlns="http://www.w3.org/2000/svg">
<circle cx="19" cy="19" r="19" fill="#E1E1E1"/>
<path fill-rule="evenodd" clip-rule="evenodd" d="M19.519 10C17.2773 10 15.2346 10.7461 14.0262 11.3556C13.917 11.4106 13.8153 11.4646 13.7205 11.5166C13.5329 11.6196 13.3731 11.7156 13.246 11.8002L14.6207 13.8393L15.2679 14.0988C17.7969 15.3844 21.1884 15.3844 23.7179 14.0988L24.4524 13.7148L25.7527 11.8002C25.4833 11.6231 25.2032 11.4633 24.914 11.3216C23.712 10.7186 21.7185 10 19.519 10ZM16.3214 12.3082C15.8347 12.2164 15.3539 12.0948 14.8817 11.9442C16.0138 11.4376 17.7011 10.9001 19.5185 10.9001C20.7775 10.9001 21.9681 11.1581 22.9527 11.4851C21.7988 11.6486 20.5676 11.9262 19.3944 12.2677C18.4713 12.5367 17.3924 12.5077 16.3214 12.3082ZM24.242 14.8404L24.1204 14.9024C21.3378 16.3165 17.6475 16.3165 14.8649 14.9024L14.7497 14.8434C10.5701 19.4643 7.37905 28 19.519 28C31.6579 28 28.3889 19.3048 24.242 14.8404ZM19.0028 19.0007C18.7396 19.0007 18.4871 19.1061 18.301 19.2937C18.1148 19.4812 18.0103 19.7356 18.0103 20.0008C18.0103 20.2661 18.1148 20.5204 18.301 20.708C18.4871 20.8956 18.7396 21.0009 19.0028 21.0009V19.0007ZM19.9954 18.0007V17.5006H19.0028V18.0007C18.4763 18.0007 17.9714 18.2114 17.5991 18.5865C17.2269 18.9616 17.0177 19.4704 17.0177 20.0008C17.0177 20.5313 17.2269 21.0401 17.5991 21.4152C17.9714 21.7903 18.4763 22.001 19.0028 22.001V24.0012C18.7976 24.0012 18.5973 23.9371 18.4297 23.8178C18.2621 23.6984 18.1353 23.5296 18.0669 23.3346C18.023 23.2096 17.9317 23.1072 17.8129 23.05C17.6942 22.9928 17.5577 22.9854 17.4336 23.0296C17.3095 23.0737 17.2079 23.1658 17.1511 23.2854C17.0943 23.4051 17.087 23.5426 17.1309 23.6676C17.2678 24.0577 17.5213 24.3953 17.8565 24.6342C18.1918 24.873 18.5923 25.0012 19.0028 25.0013V25.5013H19.9954V25.0013C20.5219 25.0013 21.0268 24.7905 21.3991 24.4154C21.7713 24.0403 21.9805 23.5316 21.9805 23.0011C21.9805 22.4706 21.7713 21.9619 21.3991 21.5868C21.0268 21.2116 20.5219 21.0009 19.9954 21.0009V19.0007C20.4271 19.0007 20.7949 19.2783 20.9319 19.6673C20.9522 19.731 20.985 19.7898 21.0283 19.8405C21.0716 19.8912 21.1245 19.9326 21.184 19.9622C21.2434 19.9919 21.3082 20.0093 21.3744 20.0133C21.4407 20.0173 21.507 20.0079 21.5696 19.9856C21.6322 19.9634 21.6897 19.9287 21.7387 19.8836C21.7877 19.8386 21.8273 19.7841 21.8551 19.7233C21.8828 19.6626 21.8982 19.5969 21.9003 19.5301C21.9024 19.4632 21.8912 19.3967 21.8673 19.3343C21.7304 18.9443 21.4769 18.6066 21.1417 18.3678C20.8064 18.1289 20.406 18.0007 19.9954 18.0007ZM19.9954 22.001V24.0012C20.2586 24.0012 20.5111 23.8958 20.6972 23.7083C20.8834 23.5207 20.9879 23.2663 20.9879 23.0011C20.9879 22.7358 20.8834 22.4815 20.6972 22.2939C20.5111 22.1064 20.2586 22.001 19.9954 22.001Z" fill="#121F49"/>
</svg>
