<svg width="38" height="39" viewBox="0 0 38 39" fill="none" xmlns="http://www.w3.org/2000/svg">
<circle cx="19" cy="19.6191" r="19" fill="#E1E1E1"/>
<path d="M27.7467 17.2208L27.0021 21.4798C26.9102 21.9503 26.5343 22.2363 26.1007 22.2417H15.2453L15.0298 23.453H25.3757C25.9205 23.4943 26.29 23.879 26.2967 24.3712C26.257 24.9132 25.8712 25.2827 25.3757 25.2894H13.9325C13.3136 25.2339 12.9445 24.742 13.0115 24.1954L13.5014 21.5384L12.7568 14.0754L10.6406 13.4112C10.1234 13.2065 9.91235 12.74 10.0331 12.2585C10.234 11.7567 10.7152 11.5274 11.1892 11.6529L13.8933 12.5125C14.2575 12.6486 14.4671 12.946 14.5203 13.294L14.677 14.7787L26.9433 16.1463C27.5068 16.268 27.8128 16.7131 27.7467 17.2208ZM16.7363 27.2174C16.7363 27.9916 16.1069 28.6191 15.3304 28.6191C14.554 28.6191 13.9245 27.9916 13.9245 27.2174C13.9245 26.4432 14.554 25.8156 15.3304 25.8156C16.1069 25.8156 16.7363 26.4432 16.7363 27.2174ZM25.1296 27.2174C25.1296 27.9916 24.5001 28.6191 23.7236 28.6191C22.9472 28.6191 22.3177 27.9916 22.3177 27.2174C22.3177 26.4432 22.9472 25.8156 23.7236 25.8156C24.5001 25.8156 25.1296 26.4432 25.1296 27.2174Z" fill="#121F49"/>
</svg>
