<svg width="38" height="38" viewBox="0 0 38 38" fill="none" xmlns="http://www.w3.org/2000/svg">
<circle cx="19" cy="19" r="19" fill="#E1E1E1"/>
<path d="M22.129 19.0774C24.3584 19.0774 26.1677 17.2681 26.1677 15.0387C26.1677 12.8093 24.3584 11 22.129 11C19.8997 11 18.0903 12.8093 18.0903 15.0387C18.0903 17.2681 19.8997 19.0774 22.129 19.0774ZM26.5312 23.6008C26.2162 23.2777 25.8204 23.1161 25.36 23.1161H19.7058L18.0257 22.5265L18.2923 21.7672L19.7058 22.3084H21.9675C22.2502 22.3084 22.4764 22.1953 22.6621 22.0095C22.8479 21.8237 22.9368 21.5976 22.9368 21.3472C22.9368 20.911 22.7268 20.6121 22.3067 20.4425L16.4345 18.2697H14.8594V25.5393L20.5136 27.1548L26.9997 24.7316C27.0078 24.3035 26.8462 23.9239 26.5312 23.6008ZM13.2439 18.2697H10V27.1548H13.2439V18.2697Z" fill="#121F49"/>
</svg>
