<svg width="38" height="39" viewBox="0 0 38 39" fill="none" xmlns="http://www.w3.org/2000/svg">
<circle cx="19" cy="19.6191" r="19" fill="#E1E1E1"/>
<path d="M9 15.1191C9 14.4561 9.26339 13.8202 9.73223 13.3514C10.2011 12.8825 10.837 12.6191 11.5 12.6191H26.5C27.163 12.6191 27.7989 12.8825 28.2678 13.3514C28.7366 13.8202 29 14.4561 29 15.1191V16.3691H9V15.1191ZM9 18.8691V25.1191C9 25.7822 9.26339 26.4181 9.73223 26.8869C10.2011 27.3557 10.837 27.6191 11.5 27.6191H26.5C27.163 27.6191 27.7989 27.3557 28.2678 26.8869C28.7366 26.4181 29 25.7822 29 25.1191V18.8691H9ZM12.75 21.3691H14C14.3315 21.3691 14.6495 21.5008 14.8839 21.7353C15.1183 21.9697 15.25 22.2876 15.25 22.6191V23.8691C15.25 24.2007 15.1183 24.5186 14.8839 24.753C14.6495 24.9874 14.3315 25.1191 14 25.1191H12.75C12.4185 25.1191 12.1005 24.9874 11.8661 24.753C11.6317 24.5186 11.5 24.2007 11.5 23.8691V22.6191C11.5 22.2876 11.6317 21.9697 11.8661 21.7353C12.1005 21.5008 12.4185 21.3691 12.75 21.3691Z" fill="#121F49"/>
</svg>
