<svg width="38" height="39" viewBox="0 0 38 39" fill="none" xmlns="http://www.w3.org/2000/svg">
<circle cx="19" cy="19.6191" r="19" fill="#E1E1E1"/>
<path d="M18.7017 10.6191C14.653 10.6191 11.1251 12.9366 10.1065 16.2291H9.35851C9.16023 16.2294 8.9644 16.2729 8.78474 16.3568C8.60508 16.4407 8.44592 16.5628 8.31843 16.7146C8.19094 16.8665 8.09819 17.0444 8.04669 17.2359C7.99518 17.4273 7.98616 17.6277 8.02027 17.8231L8.36571 19.8087C8.44803 20.282 8.69479 20.7112 9.06251 21.0204C9.43024 21.3297 9.89531 21.4992 10.3758 21.4991H10.7335C11.1415 22.1968 11.6691 22.8292 12.2907 23.3787L11.2992 26.7474C11.2694 26.8488 11.2637 26.9558 11.2824 27.0598C11.3012 27.1639 11.344 27.2621 11.4073 27.3467C11.4707 27.4314 11.5529 27.5 11.6475 27.5473C11.742 27.5946 11.8463 27.6192 11.952 27.6191H14.672C14.8123 27.6192 14.9492 27.5758 15.0639 27.4949C15.1786 27.4141 15.2654 27.2998 15.3126 27.1676L15.9681 25.3303C16.8317 25.5655 17.7497 25.6934 18.7031 25.6934C19.6646 25.6934 20.5907 25.5642 21.4611 25.3235L22.1996 27.1894C22.2498 27.3162 22.3369 27.4249 22.4497 27.5016C22.5625 27.5782 22.6957 27.6192 22.832 27.6191H25.552C25.6581 27.619 25.7627 27.5941 25.8575 27.5463C25.9522 27.4985 26.0345 27.4293 26.0977 27.344C26.1608 27.2588 26.2032 27.1599 26.2213 27.0554C26.2395 26.9508 26.2329 26.8435 26.2021 26.7419L25.1671 23.3338C26.6523 21.9996 27.5907 20.1827 27.5907 18.1563C27.5907 17.9591 27.5811 17.7619 27.5635 17.5701C27.9184 17.4205 28.2543 17.2083 28.5223 16.9663C28.9507 17.3824 29.6307 17.3824 29.6307 16.3991C29.6307 16.7024 28.9507 16.7024 29.0037 16.3638C29.0608 16.2546 29.1021 16.1378 29.1261 16.017C29.1581 15.8595 29.1497 15.6964 29.1016 15.543C29.0536 15.3896 28.9675 15.2509 28.8514 15.1398C28.7289 15.0135 28.5678 14.9319 28.3936 14.9077C28.2193 14.8836 28.0421 14.9183 27.8899 15.0065C27.7499 15.0838 27.6306 15.1936 27.5418 15.3266C27.4531 15.4596 27.3976 15.6119 27.3799 15.7708C27.3472 16.1013 27.4914 16.4236 27.8151 16.6603C27.7027 16.7379 27.585 16.8074 27.4628 16.8683C26.7366 13.2453 22.9966 10.6191 18.7017 10.6191ZM28.457 15.8905C28.4328 15.9939 28.3874 16.0911 28.3237 16.1761C28.3034 16.1655 28.2834 16.1541 28.2639 16.1421C28.0653 16.0197 28.0503 15.9041 28.0571 15.8388C28.0638 15.79 28.0817 15.7434 28.1093 15.7026C28.1369 15.6618 28.1735 15.6279 28.2163 15.6035C28.2829 15.5668 28.3251 15.575 28.3699 15.6199C28.4078 15.6527 28.4359 15.6953 28.4512 15.743C28.4665 15.7907 28.4685 15.8417 28.457 15.8905ZM16.2183 15.0065C16.1312 15.0361 16.039 15.0476 15.9473 15.0405C15.8556 15.0334 15.7662 15.0078 15.6847 14.9651C15.6032 14.9225 15.5312 14.8638 15.473 14.7925C15.4148 14.7212 15.3717 14.6389 15.3463 14.5505C15.3209 14.462 15.3137 14.3694 15.3251 14.2781C15.3365 14.1868 15.3664 14.0988 15.4128 14.0194C15.4592 13.9399 15.5213 13.8708 15.5952 13.816C15.6692 13.7613 15.7535 13.7221 15.843 13.7009C16.7726 13.4353 17.7349 13.3011 18.7017 13.3024C19.7394 13.3024 20.7376 13.452 21.6665 13.7308C21.7521 13.7564 21.8317 13.7987 21.9009 13.8551C21.9702 13.9115 22.0276 13.981 22.07 14.0596C22.1124 14.1382 22.1388 14.2244 22.1479 14.3133C22.1569 14.4021 22.1484 14.4919 22.1228 14.5774C22.0972 14.663 22.0549 14.7426 21.9985 14.8119C21.9421 14.8811 21.8726 14.9385 21.794 14.9809C21.7154 15.0233 21.6292 15.0497 21.5403 15.0588C21.4515 15.0679 21.3617 15.0593 21.2762 15.0337C20.4406 14.7856 19.5733 14.6606 18.7017 14.6624C17.8313 14.6624 16.9949 14.7848 16.2183 15.0079V15.0065ZM14.6707 17.0424C14.6707 17.3129 14.5632 17.5724 14.3719 17.7637C14.1806 17.955 13.9212 18.0624 13.6507 18.0624C13.3801 18.0624 13.1207 17.955 12.9294 17.7637C12.7381 17.5724 12.6307 17.3129 12.6307 17.0424C12.6307 16.7719 12.7381 16.5125 12.9294 16.3212C13.1207 16.1299 13.3801 16.0224 13.6507 16.0224C13.9212 16.0224 14.1806 16.1299 14.3719 16.3212C14.5632 16.5125 14.6707 16.7719 14.6707 17.0424Z" fill="#121F49"/>
</svg>
