<svg width="38" height="39" viewBox="0 0 38 39" fill="none" xmlns="http://www.w3.org/2000/svg">
<circle cx="19" cy="19.6191" r="19" fill="#E1E1E1"/>
<path d="M18.1 22.3191H18.0541C17.8276 22.3191 17.6103 22.2292 17.4502 22.069C17.29 21.9088 17.2 21.6916 17.2 21.465C17.2 21.2263 17.1052 20.9974 16.9364 20.8286C16.7676 20.6599 16.5387 20.565 16.3 20.565C16.0613 20.565 15.8324 20.6599 15.6636 20.8286C15.4948 20.9974 15.4 21.2263 15.4 21.465C15.4 22.169 15.6796 22.844 16.1774 23.3418C16.6751 23.8395 17.3502 24.1191 18.0541 24.1191H18.1V25.0191C18.1 25.2578 18.1948 25.4868 18.3636 25.6555C18.5324 25.8243 18.7613 25.9191 19 25.9191C19.2387 25.9191 19.4676 25.8243 19.6364 25.6555C19.8052 25.4868 19.9 25.2578 19.9 25.0191V24.1191C20.6161 24.1191 21.3028 23.8347 21.8092 23.3283C22.3155 22.822 22.6 22.1352 22.6 21.4191C22.6 20.7031 22.3155 20.0163 21.8092 19.51C21.3028 19.0036 20.6161 18.7191 19.9 18.7191V16.9191H19.9198C20.4058 16.9191 20.8 17.3133 20.8 17.7993C20.8 18.038 20.8948 18.267 21.0636 18.4357C21.2324 18.6045 21.4613 18.6993 21.7 18.6993C21.9387 18.6993 22.1676 18.6045 22.3364 18.4357C22.5052 18.267 22.6 18.038 22.6 17.7993C22.6 17.0885 22.3176 16.4068 21.815 15.9042C21.3124 15.4015 20.6306 15.1191 19.9198 15.1191H19.9V14.2191C19.9 13.9804 19.8052 13.7515 19.6364 13.5827C19.4676 13.414 19.2387 13.3191 19 13.3191C18.7613 13.3191 18.5324 13.414 18.3636 13.5827C18.1948 13.7515 18.1 13.9804 18.1 14.2191V15.1191C17.7454 15.1191 17.3943 15.189 17.0668 15.3247C16.7392 15.4604 16.4415 15.6592 16.1908 15.91C15.9401 16.1607 15.7412 16.4583 15.6055 16.7859C15.4698 17.1135 15.4 17.4646 15.4 17.8191C15.4 18.1737 15.4698 18.5248 15.6055 18.8524C15.7412 19.18 15.9401 19.4776 16.1908 19.7283C16.4415 19.979 16.7392 20.1779 17.0668 20.3136C17.3943 20.4493 17.7454 20.5191 18.1 20.5191V22.3191ZM19.9 22.3191V20.5191C20.1387 20.5191 20.3676 20.614 20.5364 20.7827C20.7052 20.9515 20.8 21.1804 20.8 21.4191C20.8 21.6578 20.7052 21.8868 20.5364 22.0555C20.3676 22.2243 20.1387 22.3191 19.9 22.3191ZM18.1 16.9191V18.7191C17.8613 18.7191 17.6324 18.6243 17.4636 18.4555C17.2948 18.2868 17.2 18.0578 17.2 17.8191C17.2 17.5804 17.2948 17.3515 17.4636 17.1827C17.6324 17.014 17.8613 16.9191 18.1 16.9191ZM19 28.6191C14.0293 28.6191 10 24.5898 10 19.6191C10 14.6484 14.0293 10.6191 19 10.6191C23.9707 10.6191 28 14.6484 28 19.6191C28 24.5898 23.9707 28.6191 19 28.6191Z" fill="#121F49"/>
</svg>
