<svg width="54" height="54" viewBox="0 0 54 54" fill="none" xmlns="http://www.w3.org/2000/svg">
<path d="M54 27C54 19.8392 51.1554 12.9716 46.0919 7.90812C41.0284 2.84464 34.1608 0 27 0C19.8392 0 12.9716 2.84464 7.90812 7.90812C2.84464 12.9716 0 19.8392 0 27C0 34.1608 2.84464 41.0284 7.90812 46.0919C12.9716 51.1554 19.8392 54 27 54C34.1608 54 41.0284 51.1554 46.0919 46.0919C51.1554 41.0284 54 34.1608 54 27ZM28.6875 38.8125C28.6875 39.2601 28.5097 39.6893 28.1932 40.0057C27.8768 40.3222 27.4476 40.5 27 40.5C26.5524 40.5 26.1232 40.3222 25.8068 40.0057C25.4903 39.6893 25.3125 39.2601 25.3125 38.8125V19.2611L18.0698 26.5073C17.7529 26.8241 17.3231 27.0021 16.875 27.0021C16.4269 27.0021 15.9971 26.8241 15.6802 26.5073C15.3634 26.1904 15.1854 25.7606 15.1854 25.3125C15.1854 24.8644 15.3634 24.4346 15.6802 24.1177L25.8052 13.9927C25.962 13.8356 26.1482 13.7109 26.3532 13.6258C26.5583 13.5408 26.778 13.497 27 13.497C27.222 13.497 27.4417 13.5408 27.6468 13.6258C27.8518 13.7109 28.038 13.8356 28.1948 13.9927L38.3198 24.1177C38.6366 24.4346 38.8146 24.8644 38.8146 25.3125C38.8146 25.7606 38.6366 26.1904 38.3198 26.5073C38.0029 26.8241 37.5731 27.0021 37.125 27.0021C36.6769 27.0021 36.2471 26.8241 35.9302 26.5073L28.6875 19.2611V38.8125Z" fill="#D9DAE1"/>
</svg>
