<svg width="54" height="54" viewBox="0 0 54 54" fill="none" xmlns="http://www.w3.org/2000/svg">
<path d="M2.36041e-06 27C1.73439e-06 34.1608 2.84463 41.0284 7.90812 46.0919C12.9716 51.1554 19.8392 54 27 54C34.1608 54 41.0284 51.1554 46.0919 46.0919C51.1554 41.0284 54 34.1608 54 27C54 19.8392 51.1554 12.9716 46.0919 7.90811C41.0284 2.84463 34.1609 -1.73439e-06 27 -2.36041e-06C19.8392 -2.98644e-06 12.9716 2.84463 7.90812 7.90811C2.84464 12.9716 2.98644e-06 19.8391 2.36041e-06 27ZM25.3125 15.1875C25.3125 14.7399 25.4903 14.3107 25.8068 13.9943C26.1232 13.6778 26.5525 13.5 27 13.5C27.4476 13.5 27.8768 13.6778 28.1932 13.9943C28.5097 14.3107 28.6875 14.7399 28.6875 15.1875L28.6875 34.7389L35.9303 27.4927C36.2471 27.1759 36.6769 26.9979 37.125 26.9979C37.5731 26.9979 38.0029 27.1759 38.3198 27.4927C38.6366 27.8096 38.8146 28.2394 38.8146 28.6875C38.8146 29.1356 38.6366 29.5654 38.3198 29.8822L28.1948 40.0072C28.038 40.1644 27.8518 40.2891 27.6468 40.3742C27.4418 40.4592 27.222 40.503 27 40.503C26.778 40.503 26.5583 40.4592 26.3532 40.3742C26.1482 40.2891 25.962 40.1644 25.8053 40.0072L15.6803 29.8822C15.3634 29.5654 15.1854 29.1356 15.1854 28.6875C15.1854 28.2394 15.3634 27.8096 15.6803 27.4927C15.9971 27.1759 16.4269 26.9979 16.875 26.9979C17.3231 26.9979 17.7529 27.1759 18.0698 27.4927L25.3125 34.7389L25.3125 15.1875Z" fill="#D9DAE1"/>
</svg>
