<svg width="73" height="47" viewBox="0 0 73 47" fill="none" xmlns="http://www.w3.org/2000/svg">
<path d="M57.8301 46.2529H6.09766C4.57318 46.2529 3.11114 45.6473 2.03317 44.5694C0.955205 43.4914 0.349609 42.0294 0.349609 40.5049V6.0166C0.349609 4.49212 0.955205 3.03009 2.03317 1.95212C3.11114 0.874152 4.57318 0.268555 6.09766 0.268555H57.8301C59.3546 0.268555 60.8166 0.874152 61.8946 1.95212C62.9725 3.03009 63.5781 4.49212 63.5781 6.0166V8.89062H66.4521C67.9766 8.89062 69.4387 9.49622 70.5166 10.5742C71.5946 11.6522 72.2002 13.1142 72.2002 14.6387V31.8828C72.2002 33.4073 71.5946 34.8693 70.5166 35.9473C69.4387 37.0253 67.9766 37.6309 66.4521 37.6309H63.5781V40.5049C63.5781 42.0294 62.9725 43.4914 61.8946 44.5694C60.8166 45.6473 59.3546 46.2529 57.8301 46.2529ZM6.09766 6.0166V40.5049H57.8301V31.8828H66.4521V14.6387H57.8301V6.0166H6.09766Z" fill="#D9DAE1"/>
<path d="M34.8398 11.7646V34.7568H11.8477V11.7646H34.8398Z" fill="#D9DAE1"/>
</svg>
