<svg width="55" height="54" viewBox="0 0 55 54" fill="none" xmlns="http://www.w3.org/2000/svg">
<path d="M48.125 12.8226H5.15625V11.1069L42.9688 8.08724V11.1069H48.125V5.95975C48.125 2.18515 45.0622 -0.463922 41.3222 0.067952L6.80625 4.98865C3.06281 5.52395 0 9.04805 0 12.8226V47.1371C0 48.9573 0.724328 50.7029 2.01364 51.9899C3.30295 53.2769 5.05164 54 6.875 54H48.125C49.9484 54 51.697 53.2769 52.9864 51.9899C54.2757 50.7029 55 48.9573 55 47.1371V19.6855C55 17.8654 54.2757 16.1198 52.9864 14.8327C51.697 13.5457 49.9484 12.8226 48.125 12.8226V12.8226ZM42.9688 36.8634C42.2914 36.8631 41.6207 36.7297 40.995 36.4708C40.3693 36.2118 39.8008 35.8323 39.322 35.3541C38.8432 34.8758 38.4635 34.3081 38.2045 33.6833C37.9455 33.0585 37.8123 32.3889 37.8125 31.7128C37.8127 31.0366 37.9464 30.3671 38.2058 29.7425C38.4652 29.1179 38.8453 28.5504 39.3244 28.0724C39.8036 27.5945 40.3723 27.2154 40.9982 26.9569C41.6241 26.6983 42.2948 26.5654 42.9722 26.5656C44.3402 26.566 45.6519 27.1089 46.6189 28.0749C47.5859 29.0408 48.1289 30.3506 48.1284 31.7162C48.128 33.0818 47.5841 34.3912 46.6165 35.3565C45.6489 36.3218 44.3367 36.8638 42.9688 36.8634Z" fill="#D9DAE1"/>
</svg>
