<svg width="58" height="55" viewBox="0 0 58 55" fill="none" xmlns="http://www.w3.org/2000/svg">
<path d="M20.9703 54.7785C23.5406 54.7785 25.6242 52.6949 25.6242 50.1246C25.6242 47.5543 23.5406 45.4707 20.9703 45.4707C18.4 45.4707 16.3164 47.5543 16.3164 50.1246C16.3164 52.6949 18.4 54.7785 20.9703 54.7785Z" fill="#D9DAE1"/>
<path d="M45.1715 54.7785C47.7417 54.7785 49.8254 52.6949 49.8254 50.1246C49.8254 47.5543 47.7417 45.4707 45.1715 45.4707C42.6012 45.4707 40.5176 47.5543 40.5176 50.1246C40.5176 52.6949 42.6012 54.7785 45.1715 54.7785Z" fill="#D9DAE1"/>
<path d="M57.4572 7.10322C57.2838 6.87795 57.0611 6.69539 56.8061 6.56954C56.5512 6.44369 56.2709 6.3779 55.9866 6.37722H12.9846L12.1469 3.71519C12.0549 3.42937 11.8951 3.17004 11.6812 2.95934C11.4672 2.74865 11.2055 2.59283 10.9183 2.50518L3.28592 0.159622C3.05123 0.0875052 2.80464 0.062319 2.56022 0.0855018C2.3158 0.108685 2.07835 0.179782 1.8614 0.294735C1.42327 0.526893 1.09531 0.92359 0.949663 1.39756C0.804017 1.87152 0.852619 2.38394 1.08478 2.82207C1.31693 3.2602 1.71363 3.58816 2.1876 3.73381L8.87058 5.78152L17.3965 32.7182L14.3622 35.2127L14.1202 35.4547C13.3698 36.3236 12.9446 37.4263 12.9175 38.574C12.8903 39.7218 13.2628 40.8433 13.9712 41.7468C14.4786 42.3638 15.1234 42.8535 15.8539 43.1768C16.5844 43.5 17.3805 43.6478 18.1784 43.6083H49.2477C49.7414 43.6083 50.2149 43.4122 50.5641 43.0631C50.9132 42.714 51.1093 42.2405 51.1093 41.7468C51.1093 41.2531 50.9132 40.7796 50.5641 40.4305C50.2149 40.0814 49.7414 39.8852 49.2477 39.8852H17.8805C17.6662 39.8779 17.4573 39.8154 17.2741 39.7038C17.091 39.5922 16.9397 39.4353 16.8349 39.2481C16.7301 39.061 16.6753 38.85 16.6759 38.6355C16.6764 38.421 16.7323 38.2103 16.838 38.0237L21.3244 34.3006H50.0482C50.4734 34.3129 50.8901 34.1793 51.2288 33.9219C51.5675 33.6645 51.8078 33.2988 51.9098 32.8858L57.8667 8.68555C57.9233 8.40802 57.9159 8.12124 57.8449 7.84704C57.7739 7.57283 57.6413 7.31844 57.4572 7.10322V7.10322Z" fill="#D9DAE1"/>
</svg>
