<svg width="57" height="56" viewBox="0 0 57 56" fill="none" xmlns="http://www.w3.org/2000/svg">
<path d="M29.2099 56C27.64 56.0059 26.1294 55.3779 25.0216 54.2642L1.80821 31.0568C1.20299 30.4536 0.735942 29.7261 0.439329 28.9248C0.142715 28.1234 0.0236097 27.2672 0.0902409 26.4153L1.57125 6.96667C1.67357 5.55076 2.2837 4.21941 3.28941 3.21751C4.29512 2.21561 5.62878 1.61054 7.04507 1.51359L26.4937 0.032582C26.6477 -2.42757e-07 26.7988 0 26.9528 0C28.5227 0 30.0244 0.622024 31.1293 1.73574L54.3456 24.9402C54.8959 25.4903 55.3325 26.1435 55.6304 26.8624C55.9282 27.5813 56.0815 28.3518 56.0815 29.13C56.0815 29.9081 55.9282 30.6787 55.6304 31.3976C55.3325 32.1165 54.8959 32.7696 54.3456 33.3198L33.3982 54.2642C32.8495 54.8161 32.1968 55.2536 31.4779 55.5516C30.7589 55.8495 29.9881 56.0019 29.2099 56ZM16.642 10.6396C15.6678 10.6399 14.7088 10.8804 13.8497 11.3398C12.9907 11.7993 12.2582 12.4635 11.7172 13.2736C11.1762 14.0838 10.8433 15.0148 10.7481 15.9844C10.6528 16.9539 10.7981 17.9319 11.1711 18.8318C11.5441 19.7318 12.1333 20.5259 12.8865 21.1437C13.6396 21.7616 14.5336 22.1842 15.4891 22.374C16.4446 22.5639 17.4321 22.5152 18.3643 22.2323C19.2965 21.9493 20.1445 21.4409 20.8333 20.7519L20.854 20.7341L20.8747 20.7134L20.851 20.7341C21.6744 19.9035 22.2335 18.8477 22.4579 17.6998C22.6822 16.5519 22.5617 15.3633 22.1116 14.2838C21.6614 13.2043 20.9019 12.2821 19.9285 11.6336C18.9552 10.9851 17.8116 10.6392 16.642 10.6396V10.6396Z" fill="#D9DAE1"/>
</svg>
