<svg width="63" height="53" viewBox="0 0 63 53" fill="none" xmlns="http://www.w3.org/2000/svg">
<path d="M28.9032 34.4038H18.3781C17.7553 34.4038 17.2509 34.9082 17.2509 35.5311V51.8726C17.2509 52.4955 17.7553 52.9999 18.3781 52.9999H28.9032C29.526 52.9999 30.0297 52.4955 30.0297 51.8726V35.5303C30.0297 34.9075 29.5253 34.4038 28.9032 34.4038ZM45.314 0.665039H34.789C34.1661 0.665039 33.6617 1.16943 33.6617 1.79227V51.8719C33.6617 52.4947 34.1661 52.9991 34.789 52.9991H45.314C45.9369 52.9991 46.4413 52.4947 46.4413 51.8719V1.79227C46.4413 1.16943 45.9369 0.665039 45.314 0.665039V0.665039ZM61.8091 15.8794H51.284C50.6611 15.8794 50.1567 16.3837 50.1567 17.0066V51.8719C50.1567 52.4947 50.6611 52.9991 51.284 52.9991H61.8083C62.4312 52.9991 62.9355 52.4947 62.9355 51.8719V17.0066C62.9355 16.3845 62.4312 15.8794 61.8091 15.8794V15.8794ZM12.4082 15.8794H1.88309C1.26025 15.8794 0.755859 16.3837 0.755859 17.0066V51.8719C0.755859 52.4947 1.26025 52.9991 1.88309 52.9991H12.4082C13.031 52.9991 13.5354 52.4947 13.5354 51.8719V17.0066C13.5354 16.3845 13.031 15.8794 12.4082 15.8794V15.8794Z" fill="#D9DAE1"/>
</svg>
