<svg width="81" height="57" viewBox="0 0 81 57" fill="none" xmlns="http://www.w3.org/2000/svg">
<path opacity="0.4" d="M12.582 24.9844C16.9945 24.9844 20.582 21.3969 20.582 16.9844C20.582 12.5719 16.9945 8.98438 12.582 8.98438C8.16953 8.98438 4.58203 12.5719 4.58203 16.9844C4.58203 21.3969 8.16953 24.9844 12.582 24.9844ZM68.582 24.9844C72.9945 24.9844 76.582 21.3969 76.582 16.9844C76.582 12.5719 72.9945 8.98438 68.582 8.98438C64.1695 8.98438 60.582 12.5719 60.582 16.9844C60.582 21.3969 64.1695 24.9844 68.582 24.9844ZM72.582 28.9844H64.582C62.382 28.9844 60.3945 29.8719 58.9445 31.3094C63.982 34.0719 67.557 39.0594 68.332 44.9844H76.582C78.7945 44.9844 80.582 43.1969 80.582 40.9844V36.9844C80.582 32.5719 76.9945 28.9844 72.582 28.9844ZM40.582 28.9844C48.3195 28.9844 54.582 22.7219 54.582 14.9844C54.582 7.24687 48.3195 0.984375 40.582 0.984375C32.8445 0.984375 26.582 7.24687 26.582 14.9844C26.582 22.7219 32.8445 28.9844 40.582 28.9844ZM50.182 32.9844H49.1445C46.5445 34.2344 43.657 34.9844 40.582 34.9844C37.507 34.9844 34.632 34.2344 32.0195 32.9844H30.982C23.032 32.9844 16.582 39.4344 16.582 47.3844V50.9844C16.582 54.2969 19.2695 56.9844 22.582 56.9844H58.582C61.8945 56.9844 64.582 54.2969 64.582 50.9844V47.3844C64.582 39.4344 58.132 32.9844 50.182 32.9844ZM22.2195 31.3094C20.7695 29.8719 18.782 28.9844 16.582 28.9844H8.58203C4.16953 28.9844 0.582031 32.5719 0.582031 36.9844V40.9844C0.582031 43.1969 2.36953 44.9844 4.58203 44.9844H12.8195C13.607 39.0594 17.182 34.0719 22.2195 31.3094Z" fill="#9FA2B4"/>
</svg>
