<svg width="54" height="57" viewBox="0 0 54 57" fill="none" xmlns="http://www.w3.org/2000/svg">
<path opacity="0.4" d="M53.2735 35.7134L48.4638 32.936C48.9493 30.3166 48.9493 27.6295 48.4638 25.0102L53.2735 22.2328C53.8267 21.9167 54.0751 21.2618 53.8944 20.6521C52.6412 16.6328 50.5073 12.9973 47.7186 9.97154C47.2896 9.50864 46.5896 9.39574 46.0477 9.71187L41.238 12.4893C39.2171 10.7506 36.8913 9.40703 34.3735 8.52639V2.98286C34.3735 2.3506 33.9332 1.79738 33.3123 1.6619C29.1687 0.736095 24.9236 0.781256 20.9833 1.6619C20.3623 1.79738 19.922 2.3506 19.922 2.98286V8.53768C17.4156 9.42961 15.0898 10.7732 13.0575 12.5006L8.25914 9.72316C7.70591 9.40703 7.01721 9.50864 6.58818 9.98283C3.79948 12.9973 1.66562 16.6328 0.412397 20.6634C0.220462 21.2731 0.480138 21.9279 1.03336 22.2441L5.84302 25.0215C5.35754 27.6408 5.35754 30.3279 5.84302 32.9473L1.03336 35.7247C0.480138 36.0408 0.231752 36.6956 0.412397 37.3053C1.66562 41.3246 3.79948 44.9601 6.58818 47.9859C7.01721 48.4488 7.7172 48.5617 8.25914 48.2456L13.0688 45.4682C15.0898 47.2069 17.4156 48.5504 19.9333 49.4311V54.9859C19.9333 55.6181 20.3736 56.1714 20.9946 56.3069C25.1381 57.2327 29.3832 57.1875 33.3235 56.3069C33.9445 56.1714 34.3848 55.6181 34.3848 54.9859V49.4311C36.8913 48.5391 39.2171 47.1956 41.2493 45.4682L46.059 48.2456C46.6122 48.5617 47.3009 48.4601 47.7299 47.9859C50.5186 44.9714 52.6525 41.3359 53.9057 37.3053C54.0751 36.6843 53.8267 36.0295 53.2735 35.7134V35.7134ZM27.1478 38.0053C22.1688 38.0053 18.1155 33.9521 18.1155 28.9731C18.1155 23.9941 22.1688 19.9409 27.1478 19.9409C32.1268 19.9409 36.18 23.9941 36.18 28.9731C36.18 33.9521 32.1268 38.0053 27.1478 38.0053Z" fill="#9FA2B4"/>
</svg>
