<svg width="38" height="39" viewBox="0 0 38 39" fill="none" xmlns="http://www.w3.org/2000/svg">
<circle cx="19" cy="19.6191" r="19" fill="#E1E1E1"/>
<path d="M18.3654 18.8191C20.3745 18.8191 22.0028 17.2076 22.0028 15.2191C22.0028 13.2307 20.3745 11.6191 18.3654 11.6191C16.3563 11.6191 14.728 13.2307 14.728 15.2191C14.728 17.2076 16.3563 18.8191 18.3654 18.8191ZM17.0667 20.1691C14.2677 20.1691 12 22.4135 12 25.1838C12 25.6451 12.3779 26.0191 12.844 26.0191H23.8868C24.171 26.0191 24.421 25.8813 24.5745 25.6676L21.7555 22.8776C21.3321 22.4585 21.0934 21.8904 21.0934 21.2998V20.3716C20.6416 20.2395 20.1613 20.1691 19.664 20.1691H17.0667ZM22.9121 17.9191C22.4091 17.9191 22.0028 18.3213 22.0028 18.8191V21.1451C22.0028 21.6232 22.1932 22.0816 22.5342 22.4191L25.5861 25.437C26.1175 25.9629 26.9814 25.9629 27.5156 25.437L29.6015 23.3726C30.1328 22.8466 30.1328 21.9916 29.6015 21.4629L26.5495 18.4451C26.2085 18.1076 25.7453 17.9191 25.2622 17.9191H22.9121ZM24.9581 20.1691C24.9581 20.5432 24.6541 20.8441 24.2761 20.8441C23.8982 20.8441 23.5941 20.5432 23.5941 20.1691C23.5941 19.7951 23.8982 19.4941 24.2761 19.4941C24.6541 19.4941 24.9581 19.7951 24.9581 20.1691Z" fill="#121F49"/>
</svg>
