<svg width="38" height="39" viewBox="0 0 38 39" fill="none" xmlns="http://www.w3.org/2000/svg">
<circle cx="19" cy="19.6191" r="19" fill="#E1E1E1"/>
<path d="M13.3856 20.083V15.5688H11.6928C11.2438 15.5688 10.8133 15.7472 10.4958 16.0647C10.1783 16.3821 10 16.8127 10 17.2616V27.4184C10.0008 27.5232 10.0308 27.6257 10.0867 27.7144C10.1425 27.8031 10.2219 27.8745 10.316 27.9206C10.4067 27.9618 10.5066 27.9783 10.6057 27.9684C10.7048 27.9585 10.7995 27.9225 10.8803 27.8641L13.7862 25.7256H21.3699C21.5838 25.7319 21.7966 25.6943 21.9954 25.615C22.1941 25.5357 22.3744 25.4164 22.5252 25.2646C22.6759 25.1128 22.7939 24.9316 22.8718 24.7324C22.9497 24.5331 22.9859 24.32 22.9781 24.1062V23.4685H16.7712C15.8732 23.4685 15.0121 23.1118 14.3772 22.4769C13.7423 21.842 13.3856 20.9809 13.3856 20.083V20.083Z" fill="#121F49"/>
<path d="M26.3634 11.6191H16.7709C16.322 11.6191 15.8914 11.7975 15.5739 12.1149C15.2565 12.4324 15.0781 12.863 15.0781 13.3119V20.0831C15.0781 20.532 15.2565 20.9626 15.5739 21.2801C15.8914 21.5975 16.322 21.7759 16.7709 21.7759H24.4167L27.1139 23.8693C27.194 23.9286 27.2885 23.9656 27.3876 23.9765C27.4867 23.9874 27.587 23.9718 27.6781 23.9314C27.7741 23.8856 27.8553 23.8137 27.9122 23.7238C27.9691 23.634 27.9995 23.5299 27.9998 23.4235V13.3119C28 12.8726 27.8294 12.4503 27.5241 12.1345C27.2187 11.8186 26.8025 11.6338 26.3634 11.6191V11.6191Z" fill="#121F49"/>
</svg>
