<svg width="38" height="39" viewBox="0 0 38 39" fill="none" xmlns="http://www.w3.org/2000/svg">
<circle cx="19" cy="19.6191" r="19" fill="#E1E1E1"/>
<path d="M19.9 15.2191C19.9 17.2076 18.2884 18.8191 16.3 18.8191C14.3116 18.8191 12.7 17.2076 12.7 15.2191C12.7 13.2307 14.3116 11.6191 16.3 11.6191C18.2884 11.6191 19.9 13.2307 19.9 15.2191ZM10 25.1838C10 22.4135 12.2444 20.1691 15.0147 20.1691H17.5853C20.3556 20.1691 22.6 22.4135 22.6 25.1838C22.6 25.6451 22.2259 26.0191 21.7647 26.0191H10.8353C10.3741 26.0191 10 25.6451 10 25.1838ZM27.1366 26.0191H23.2581C23.41 25.7548 23.5 25.4482 23.5 25.1191V24.8941C23.5 23.187 22.7378 21.6541 21.5369 20.6248C21.6044 20.622 21.6691 20.6191 21.7366 20.6191H23.4634C25.9694 20.6191 28 22.6498 28 25.1557C28 25.6338 27.6119 26.0191 27.1366 26.0191ZM22.15 18.8191C21.2781 18.8191 20.4906 18.4648 19.9197 17.8938C20.4738 17.1457 20.8 16.2204 20.8 15.2191C20.8 14.4654 20.6144 13.7538 20.2853 13.1295C20.8084 12.747 21.4525 12.5191 22.15 12.5191C23.8909 12.5191 25.3 13.9282 25.3 15.6691C25.3 17.4101 23.8909 18.8191 22.15 18.8191Z" fill="#121F49"/>
</svg>
