<svg width="38" height="39" viewBox="0 0 38 39" fill="none" xmlns="http://www.w3.org/2000/svg">
<circle cx="19" cy="19.6191" r="19" fill="#E1E1E1"/>
<path d="M18.301 18.8191C20.2897 18.8191 21.9015 17.2076 21.9015 15.2191C21.9015 13.2307 20.2897 11.6191 18.301 11.6191C16.3122 11.6191 14.7004 13.2307 14.7004 15.2191C14.7004 17.2076 16.3122 18.8191 18.301 18.8191ZM17.0155 20.1691C14.2447 20.1691 12 22.4135 12 25.1838C12 25.6451 12.3741 26.0191 12.8354 26.0191H21.0802C20.993 25.7716 20.9761 25.5016 21.0408 25.2373L21.4627 23.547C21.5415 23.2291 21.7046 22.9423 21.9353 22.7116L23.0689 21.5782C22.166 20.7063 20.9395 20.1691 19.5837 20.1691H17.0155ZM29.2658 18.2482C28.827 17.8095 28.1153 17.8095 27.6737 18.2482L26.8467 19.0751L28.8439 21.072L29.6709 20.2451C30.1097 19.8063 30.1097 19.0948 29.6709 18.6532L29.2658 18.2482ZM22.5738 23.3473C22.4585 23.4626 22.3769 23.606 22.3376 23.7663L21.9156 25.4566C21.8762 25.6113 21.9212 25.7716 22.0338 25.8841C22.1463 25.9966 22.3066 26.0416 22.4613 26.0023L24.1519 25.5804C24.3094 25.541 24.4557 25.4595 24.571 25.3441L28.2053 21.7076L26.2082 19.7107L22.5738 23.3473Z" fill="#121F49"/>
</svg>
