<svg width="38" height="39" viewBox="0 0 38 39" fill="none" xmlns="http://www.w3.org/2000/svg">
<circle cx="19" cy="19.6191" r="19" fill="#E1E1E1"/>
<path d="M18.4621 19.169C16.4225 19.169 14.7695 17.4791 14.7695 15.3941C14.7695 13.309 16.4225 11.6191 18.4621 11.6191C20.5017 11.6191 22.1548 13.309 22.1548 15.3941C22.1548 17.4791 20.5017 19.169 18.4621 19.169ZM17.1437 20.5846H19.7805C20.1209 20.5846 20.4556 20.62 20.7758 20.6819C20.7152 21.2275 20.9893 21.7318 21.4047 22.0031C20.9258 22.3158 20.6344 22.9351 20.8277 23.575C20.9431 23.9555 21.0989 24.3271 21.3008 24.6839C21.5028 25.0408 21.7393 25.3652 22.0047 25.6572C22.4577 26.1556 23.1472 26.1998 23.6549 25.9137V25.9403C23.6549 26.2116 23.7328 26.4859 23.8828 26.7159H12.8568C12.3837 26.7188 12 26.3266 12 25.8429C12 22.938 14.3021 20.5846 17.1437 20.5846ZM24.5781 18.0542C24.5781 17.8478 24.7079 17.662 24.904 17.6177C25.207 17.547 25.5243 17.5086 25.8474 17.5086C26.1705 17.5086 26.4878 17.547 26.7907 17.6177C26.9869 17.662 27.1167 17.8478 27.1167 18.0542V18.9567C27.3446 19.0569 27.561 19.1837 27.7601 19.3341L28.4784 18.9124C28.6544 18.8092 28.8736 18.8328 29.0121 18.9832C29.2314 19.2221 29.4246 19.4905 29.592 19.7854C29.7593 20.0803 29.8891 20.387 29.9814 20.6996C30.042 20.8972 29.9497 21.1036 29.7737 21.2069L29.0525 21.6315C29.064 21.7495 29.0727 21.8704 29.0727 21.9943C29.0727 22.1182 29.0669 22.2361 29.0525 22.357L29.7737 22.7817C29.9497 22.8849 30.0391 23.0914 29.9814 23.289C29.8862 23.6016 29.7564 23.9083 29.592 24.2032C29.4275 24.4981 29.2314 24.7665 29.0121 25.0054C28.8736 25.1558 28.6515 25.1794 28.4784 25.0762L27.7601 24.6544C27.561 24.8048 27.3475 24.9317 27.1167 25.0319V25.9344C27.1167 26.1408 26.9869 26.3266 26.7907 26.3708C26.4878 26.4416 26.1705 26.48 25.8474 26.48C25.5243 26.48 25.207 26.4416 24.904 26.3708C24.7079 26.3266 24.5781 26.1408 24.5781 25.9344V25.0319C24.3473 24.9317 24.128 24.8048 23.929 24.6515L23.2164 25.0732C23.0404 25.1764 22.8212 25.1528 22.6827 25.0024C22.4634 24.7636 22.2702 24.4952 22.1028 24.2003C21.9355 23.9053 21.8057 23.5986 21.7134 23.286C21.6528 23.0884 21.7451 22.882 21.9211 22.7788L22.6365 22.357C22.625 22.2361 22.6163 22.1152 22.6163 21.9913C22.6163 21.8675 22.6221 21.7466 22.6365 21.6256L21.9182 21.2039C21.7422 21.1007 21.6528 20.8943 21.7105 20.6967C21.8057 20.384 21.9326 20.0773 22.0999 19.7824C22.2673 19.4875 22.4606 19.2191 22.6798 18.9802C22.8183 18.8298 23.0375 18.8062 23.2135 18.9095L23.929 19.3312C24.128 19.1808 24.3473 19.054 24.5781 18.9508V18.0542ZM27.235 21.9913C27.235 21.2098 26.6148 20.5757 25.8474 20.5757C25.08 20.5757 24.4598 21.2098 24.4598 21.9913C24.4598 22.7729 25.08 23.4069 25.8474 23.4069C26.6148 23.4069 27.235 22.7729 27.235 21.9913Z" fill="#121F49"/>
</svg>
