<svg width="38" height="39" viewBox="0 0 38 39" fill="none" xmlns="http://www.w3.org/2000/svg">
<circle cx="19" cy="19.6191" r="19" fill="#E1E1E1"/>
<path d="M13 14.6191C13.3956 14.6191 13.7822 14.5018 14.1111 14.2821C14.44 14.0623 14.6964 13.75 14.8478 13.3845C14.9991 13.0191 15.0387 12.6169 14.9616 12.229C14.8844 11.841 14.6939 11.4846 14.4142 11.2049C14.1345 10.9252 13.7781 10.7347 13.3902 10.6576C13.0022 10.5804 12.6001 10.62 12.2346 10.7714C11.8692 10.9228 11.5568 11.1791 11.3371 11.508C11.1173 11.8369 11 12.2236 11 12.6191C11 13.1496 11.2107 13.6583 11.5858 14.0334C11.9609 14.4084 12.4696 14.6191 13 14.6191ZM13 20.1216C12.9996 19.9348 13.0371 19.7498 13.1104 19.5778C13.1837 19.4059 13.2911 19.2507 13.4262 19.1216L15.6803 16.9941C15.7319 16.9457 15.7981 16.922 15.8556 16.8826C15.7086 16.5103 15.453 16.1908 15.1221 15.9655C14.7912 15.7402 14.4003 15.6195 14 15.6191H12C11.4696 15.6191 10.9609 15.8299 10.5858 16.2049C10.2107 16.58 10 17.0887 10 17.6191V20.6191C10 20.8844 10.1054 21.1387 10.2929 21.3262C10.4804 21.5138 10.7348 21.6191 11 21.6191V25.6191C11 25.8844 11.1054 26.1387 11.2929 26.3262C11.4804 26.5138 11.7348 26.6191 12 26.6191H14C14.2652 26.6191 14.5196 26.5138 14.7071 26.3262C14.8946 26.1387 15 25.8844 15 25.6191V22.607L13.4262 21.1216C13.2911 20.9926 13.1836 20.8374 13.1103 20.6655C13.037 20.4936 12.9995 20.3085 13 20.1216ZM25 14.6191C25.3956 14.6191 25.7822 14.5018 26.1111 14.2821C26.44 14.0623 26.6964 13.75 26.8478 13.3845C26.9991 13.0191 27.0387 12.6169 26.9616 12.229C26.8844 11.841 26.6939 11.4846 26.4142 11.2049C26.1345 10.9252 25.7781 10.7347 25.3902 10.6576C25.0022 10.5804 24.6001 10.62 24.2346 10.7714C23.8692 10.9228 23.5568 11.1791 23.3371 11.508C23.1173 11.8369 23 12.2236 23 12.6191C23 13.1496 23.2107 13.6583 23.5858 14.0334C23.9609 14.4084 24.4696 14.6191 25 14.6191ZM26 15.6191H24C23.5997 15.6195 23.2088 15.7401 22.8779 15.9653C22.5471 16.1906 22.2915 16.51 22.1444 16.8823C22.2019 16.922 22.2694 16.9448 22.32 16.9945L24.5737 19.1213C24.7085 19.2507 24.8156 19.406 24.8889 19.5778C24.9621 19.7497 24.9998 19.9345 24.9998 20.1213C24.9998 20.3081 24.9621 20.493 24.8889 20.6648C24.8156 20.8367 24.7085 20.9919 24.5737 21.1213L23 22.6073V25.6191C23 25.8844 23.1054 26.1387 23.2929 26.3262C23.4804 26.5138 23.7348 26.6191 24 26.6191H26C26.2652 26.6191 26.5196 26.5138 26.7071 26.3262C26.8946 26.1387 27 25.8844 27 25.6191V21.6191C27.2652 21.6191 27.5196 21.5138 27.7071 21.3262C27.8946 21.1387 28 20.8844 28 20.6191V17.6191C28 17.0887 27.7893 16.58 27.4142 16.2049C27.0391 15.8299 26.5304 15.6191 26 15.6191ZM23.8875 19.8485L21.6337 17.7216C21.5806 17.6709 21.5136 17.637 21.4413 17.624C21.3689 17.611 21.2944 17.6195 21.2269 17.6486C21.1593 17.6776 21.1019 17.7258 21.0615 17.7873C21.0212 17.8487 20.9998 17.9206 21 17.9941V19.1191H17V17.9941C17.0003 17.9206 16.9789 17.8486 16.9386 17.7872C16.8983 17.7257 16.8408 17.6774 16.7733 17.6483C16.7057 17.6192 16.6312 17.6107 16.5588 17.6236C16.4864 17.6366 16.4195 17.6706 16.3663 17.7213L14.1125 19.8485C14.0405 19.9211 14 20.0192 14 20.1215C14 20.2238 14.0405 20.3219 14.1125 20.3945L16.3663 22.5216C16.4195 22.5724 16.4865 22.6064 16.5589 22.6193C16.6313 22.6323 16.7059 22.6237 16.7734 22.5946C16.841 22.5655 16.8985 22.5172 16.9387 22.4556C16.979 22.3941 17.0003 22.3221 17 22.2485V21.1191H21V22.2485C20.9997 22.3221 21.021 22.3941 21.0613 22.4556C21.1015 22.5172 21.159 22.5655 21.2266 22.5946C21.2941 22.6237 21.3687 22.6323 21.4411 22.6193C21.5135 22.6064 21.5805 22.5724 21.6337 22.5216L23.8875 20.3945C23.9595 20.3219 24 20.2238 24 20.1215C24 20.0192 23.9595 19.9211 23.8875 19.8485Z" fill="#121F49"/>
</svg>
