<svg width="38" height="39" viewBox="0 0 38 39" fill="none" xmlns="http://www.w3.org/2000/svg">
<circle cx="19" cy="19.6191" r="19" fill="#E1E1E1"/>
<path d="M18.795 19.1691C20.9397 19.1691 22.6779 17.4792 22.6779 15.3941C22.6779 13.309 20.9397 11.6191 18.795 11.6191C16.6503 11.6191 14.9121 13.309 14.9121 15.3941C14.9121 17.4792 16.6503 19.1691 18.795 19.1691ZM21.7011 20.1306L20.2511 25.7754L19.2804 21.7645L20.2511 20.1129H17.3389L18.3096 21.7645L17.3389 25.7754L15.8889 20.1306C13.7261 20.2309 12 21.9503 12 24.0766V25.3035C12 26.0851 12.6522 26.7191 13.4561 26.7191H24.1339C24.9378 26.7191 25.59 26.0851 25.59 25.3035V24.0766C25.59 21.9503 23.8639 20.2309 21.7011 20.1306Z" fill="#121F49"/>
</svg>
