<svg width="38" height="39" viewBox="0 0 38 39" fill="none" xmlns="http://www.w3.org/2000/svg">
<circle cx="19" cy="19.6191" r="19" fill="#E1E1E1"/>
<path d="M21.7636 19.1191C24.1096 19.1191 26.0136 17.2151 26.0136 14.8691C26.0136 12.5231 24.1096 10.6191 21.7636 10.6191C19.4176 10.6191 17.5136 12.5231 17.5136 14.8691C17.5136 17.2151 19.4176 19.1191 21.7636 19.1191ZM26.3961 23.8791C26.0646 23.5391 25.6481 23.3691 25.1636 23.3691H19.2136L17.4456 22.7486L17.7261 21.9496L19.2136 22.5191H21.5936C21.8911 22.5191 22.1291 22.4001 22.3246 22.2046C22.5201 22.0091 22.6136 21.7711 22.6136 21.5076C22.6136 21.0486 22.3926 20.7341 21.9506 20.5556L15.7711 18.2691H14.1136V25.9191L20.0636 27.6191L26.8891 25.0691C26.8976 24.6186 26.7276 24.2191 26.3961 23.8791ZM12.4136 18.2691H9V27.6191H12.4136V18.2691Z" fill="#121F49"/>
</svg>
