<svg width="45" height="45" viewBox="0 0 45 45" fill="none" xmlns="http://www.w3.org/2000/svg">
<path d="M36.4231 8.57917C34.5983 6.73625 32.4272 5.27205 30.0348 4.2707C27.6423 3.26935 25.0756 2.75058 22.4821 2.7442C19.8885 2.73782 17.3193 3.24394 14.9219 4.23351C12.5246 5.22307 10.3464 6.67656 8.51243 8.51048C6.67851 10.3444 5.22502 12.5226 4.23546 14.92C3.2459 17.3173 2.73977 19.8866 2.74615 22.4801C2.75254 25.0737 3.27131 27.6404 4.27266 30.0328C5.274 32.4253 6.7382 34.5963 8.58113 36.4212C10.406 38.2641 12.577 39.7283 14.9695 40.7297C17.3619 41.731 19.9287 42.2498 22.5222 42.2561C25.1157 42.2625 27.685 41.7564 30.0824 40.7668C32.4797 39.7773 34.6579 38.3238 36.4918 36.4899C38.3257 34.656 39.7792 32.4777 40.7688 30.0804C41.7584 27.683 42.2645 25.1138 42.2581 22.5202C42.2517 19.9267 41.733 17.36 40.7316 14.9675C39.7303 12.5751 38.2661 10.404 36.4231 8.57917ZM28.8303 18.2814C29.2475 18.2814 29.6553 18.4051 30.0022 18.6369C30.349 18.8687 30.6194 19.1981 30.7791 19.5836C30.9387 19.969 30.9805 20.3931 30.8991 20.8023C30.8177 21.2115 30.6168 21.5874 30.3218 21.8824C30.0268 22.1774 29.651 22.3783 29.2418 22.4596C28.8326 22.541 28.4085 22.4993 28.023 22.3396C27.6376 22.18 27.3082 21.9096 27.0764 21.5627C26.8446 21.2158 26.7209 20.808 26.7209 20.3908C26.7202 20.1136 26.7743 19.839 26.88 19.5828C26.9858 19.3265 27.1411 19.0937 27.3372 18.8977C27.5332 18.7017 27.766 18.5463 28.0222 18.4406C28.2784 18.3348 28.5531 18.2807 28.8303 18.2814ZM16.174 18.2814C16.5912 18.2814 16.999 18.4051 17.3459 18.6369C17.6928 18.8687 17.9632 19.1981 18.1228 19.5836C18.2825 19.969 18.3242 20.3931 18.2428 20.8023C18.1615 21.2115 17.9606 21.5874 17.6656 21.8824C17.3706 22.1774 16.9947 22.3783 16.5855 22.4596C16.1763 22.541 15.7522 22.4993 15.3668 22.3396C14.9813 22.18 14.6519 21.9096 14.4201 21.5627C14.1883 21.2158 14.0646 20.808 14.0646 20.3908C14.0639 20.1136 14.118 19.839 14.2238 19.5828C14.3295 19.3265 14.4849 19.0937 14.6809 18.8977C14.8769 18.7017 15.1097 18.5463 15.366 18.4406C15.6222 18.3348 15.8968 18.2807 16.174 18.2814ZM22.5065 33.7502C18.5145 33.7502 15.1457 31.1583 14.0936 27.6128C14.0022 27.3034 13.8888 26.7189 13.8888 26.7189H31.1154C31.1154 26.7189 31.0003 27.3069 30.9106 27.6128C29.8753 31.16 26.4985 33.7502 22.5065 33.7502Z" fill="#06C419"/>
</svg>
