<svg width="56" height="59" viewBox="0 0 56 59" fill="none" xmlns="http://www.w3.org/2000/svg">
<path fill-rule="evenodd" clip-rule="evenodd" d="M28.0624 0C20.6781 0 13.9493 2.44543 9.96856 4.4434C9.6089 4.62369 9.27377 4.80071 8.96153 4.97116C8.34357 5.3088 7.81717 5.6235 7.39866 5.90049L11.927 12.5844L14.0588 13.4351C22.3897 17.649 33.5619 17.649 41.8944 13.4351L44.3139 12.1763L48.5971 5.90049C47.7097 5.32027 46.787 4.79639 45.8343 4.33194C41.8748 2.35528 35.3078 0 28.0624 0ZM17.5295 7.56574C15.9259 7.2649 14.3422 6.86642 12.7869 6.37253C16.5159 4.7122 22.0742 2.95025 28.0608 2.95025C32.2083 2.95025 36.1301 3.79598 39.3736 4.86791C35.5727 5.40387 31.5168 6.31353 27.6521 7.43298C24.6114 8.31478 21.0574 8.21971 17.5295 7.56574V7.56574ZM43.6208 15.8658L43.2202 16.069C34.054 20.7042 21.8976 20.7042 12.7314 16.069L12.3521 15.8756C-1.41614 31.0218 -11.9279 59 28.0624 59C68.0495 59 57.2811 30.499 43.6208 15.8658ZM26.3623 29.5025C25.4951 29.5025 24.6635 29.8478 24.0503 30.4626C23.4371 31.0773 23.0927 31.9111 23.0927 32.7805C23.0927 33.6499 23.4371 34.4837 24.0503 35.0984C24.6635 35.7132 25.4951 36.0586 26.3623 36.0586V29.5025ZM29.6318 26.2244V24.5854H26.3623V26.2244C24.628 26.2244 22.9647 26.9151 21.7384 28.1446C20.512 29.3742 19.8231 31.0417 19.8231 32.7805C19.8231 34.5193 20.512 36.1869 21.7384 37.4164C22.9647 38.6459 24.628 39.3366 26.3623 39.3366V45.8927C25.6861 45.8929 25.0265 45.6829 24.4743 45.2916C23.9221 44.9003 23.5045 44.347 23.279 43.7079C23.1347 43.298 22.8338 42.9623 22.4426 42.7748C22.0514 42.5873 21.6019 42.5633 21.193 42.7081C20.7842 42.8528 20.4494 43.1545 20.2624 43.5467C20.0754 43.9389 20.0514 44.3896 20.1958 44.7995C20.6468 46.0779 21.4819 47.1847 22.5862 47.9675C23.6905 48.7504 25.0098 49.1707 26.3623 49.1708V50.8098H29.6318V49.1708C31.3661 49.1708 33.0294 48.48 34.2557 47.2505C35.4821 46.021 36.171 44.3534 36.171 42.6147C36.171 40.8759 35.4821 39.2083 34.2557 37.9788C33.0294 36.7493 31.3661 36.0586 29.6318 36.0586V29.5025C31.0541 29.5025 32.2655 30.4121 32.7167 31.6873C32.7836 31.8959 32.8916 32.0889 33.0343 32.255C33.1769 32.421 33.3514 32.5567 33.5472 32.654C33.7431 32.7513 33.9564 32.8082 34.1746 32.8214C34.3928 32.8346 34.6114 32.8037 34.8175 32.7307C35.0236 32.6577 35.2131 32.544 35.3746 32.3963C35.5361 32.2487 35.6664 32.07 35.7578 31.8709C35.8493 31.6719 35.9 31.4565 35.9069 31.2374C35.9139 31.0184 35.8769 30.8002 35.7983 30.5957C35.3473 29.3173 34.5122 28.2105 33.4079 27.4276C32.3036 26.6448 30.9843 26.2244 29.6318 26.2244ZM29.6318 39.3366V45.8927C30.499 45.8927 31.3306 45.5473 31.9438 44.9326C32.557 44.3178 32.9014 43.4841 32.9014 42.6147C32.9014 41.7453 32.557 40.9115 31.9438 40.2967C31.3306 39.682 30.499 39.3366 29.6318 39.3366Z" fill="#D9DAE1"/>
</svg>
