<svg width="75" height="75" viewBox="0 0 75 75" fill="none" xmlns="http://www.w3.org/2000/svg">
<path fill-rule="evenodd" clip-rule="evenodd" d="M72.7875 13.8795C73.4401 14.1406 73.9997 14.5917 74.394 15.1746C74.7884 15.7575 74.9995 16.4455 75 17.1499V57.8511C74.9995 58.5554 74.7884 59.2434 74.394 59.8263C73.9997 60.4093 73.4401 60.8604 72.7875 61.1214L38.8031 74.748C37.9651 75.084 37.0302 75.084 36.1922 74.748L2.20781 61.1214C1.5561 60.8596 0.997525 60.4082 0.604034 59.8253C0.210542 59.2425 0.000163406 58.5549 0 57.8511L0 17.1499C0.000163406 16.4461 0.210542 15.7585 0.604034 15.1756C0.997525 14.5927 1.5561 14.1413 2.20781 13.8795L34.8891 0.774485L34.9359 0.760389L36.1922 0.252916C37.0316 -0.0843054 37.9684 -0.0843054 38.8078 0.252916L40.0688 0.760389L40.1156 0.774485L72.7875 13.8795ZM48.7688 9.30754L19.9219 20.8713L8.65312 16.3558L4.6875 17.9487V19.8282L35.1562 32.0451V69.2692L37.5 70.209L39.8438 69.2692V32.0498L70.3125 19.8329V17.9534L66.3469 16.3605L37.5 27.9196L26.2313 23.404L55.0781 11.8402L48.7688 9.30754Z" fill="#D9DAE1"/>
</svg>
