<svg width="65" height="65" viewBox="0 0 65 65" fill="none" xmlns="http://www.w3.org/2000/svg">
<path d="M29.25 42.25H29.0843C28.2663 42.25 27.4818 41.9251 26.9034 41.3466C26.3249 40.7682 26 39.9837 26 39.1658C26 38.3038 25.6576 37.4771 25.0481 36.8677C24.4386 36.2582 23.612 35.9158 22.75 35.9158C21.888 35.9158 21.0614 36.2582 20.4519 36.8677C19.8424 37.4771 19.5 38.3038 19.5 39.1658C19.5 41.7077 20.5098 44.1454 22.3072 45.9428C24.1046 47.7402 26.5423 48.75 29.0843 48.75H29.25V52C29.25 52.862 29.5924 53.6886 30.2019 54.2981C30.8114 54.9076 31.638 55.25 32.5 55.25C33.362 55.25 34.1886 54.9076 34.7981 54.2981C35.4076 53.6886 35.75 52.862 35.75 52V48.75C38.3359 48.75 40.8158 47.7228 42.6443 45.8943C44.4728 44.0658 45.5 41.5859 45.5 39C45.5 36.4141 44.4728 33.9342 42.6443 32.1057C40.8158 30.2772 38.3359 29.25 35.75 29.25V22.75H35.8215C37.5765 22.75 39 24.1735 39 25.9285C39 26.7905 39.3424 27.6171 39.9519 28.2266C40.5614 28.8361 41.388 29.1785 42.25 29.1785C43.112 29.1785 43.9386 28.8361 44.5481 28.2266C45.1576 27.6171 45.5 26.7905 45.5 25.9285C45.5 23.3616 44.4803 20.8998 42.6652 19.0848C40.8502 17.2697 38.3884 16.25 35.8215 16.25H35.75V13C35.75 12.138 35.4076 11.3114 34.7981 10.7019C34.1886 10.0924 33.362 9.75 32.5 9.75C31.638 9.75 30.8114 10.0924 30.2019 10.7019C29.5924 11.3114 29.25 12.138 29.25 13V16.25C27.9696 16.25 26.7018 16.5022 25.5188 16.9922C24.3359 17.4822 23.2611 18.2003 22.3557 19.1057C21.4503 20.0111 20.7322 21.0859 20.2422 22.2688C19.7522 23.4518 19.5 24.7196 19.5 26C19.5 27.2804 19.7522 28.5482 20.2422 29.7312C20.7322 30.9141 21.4503 31.9889 22.3557 32.8943C23.2611 33.7997 24.3359 34.5178 25.5188 35.0078C26.7018 35.4978 27.9696 35.75 29.25 35.75V42.25ZM35.75 42.25V35.75C36.612 35.75 37.4386 36.0924 38.0481 36.7019C38.6576 37.3114 39 38.138 39 39C39 39.862 38.6576 40.6886 38.0481 41.2981C37.4386 41.9076 36.612 42.25 35.75 42.25ZM29.25 22.75V29.25C28.388 29.25 27.5614 28.9076 26.9519 28.2981C26.3424 27.6886 26 26.862 26 26C26 25.138 26.3424 24.3114 26.9519 23.7019C27.5614 23.0924 28.388 22.75 29.25 22.75V22.75ZM32.5 65C14.5503 65 0 50.4497 0 32.5C0 14.5503 14.5503 0 32.5 0C50.4497 0 65 14.5503 65 32.5C65 50.4497 50.4497 65 32.5 65Z" fill="#D9DAE1"/>
</svg>
