<svg width="70" height="64" viewBox="0 0 70 64" fill="none" xmlns="http://www.w3.org/2000/svg">
<path d="M69.2708 57.2551H6.5625V0.724747C6.5625 0.326136 6.23438 0 5.83333 0H0.729167C0.328125 0 0 0.326136 0 0.724747V63.053C0 63.4516 0.328125 63.7778 0.729167 63.7778H69.2708C69.6719 63.7778 70 63.4516 70 63.053V57.9798C70 57.5812 69.6719 57.2551 69.2708 57.2551ZM13.125 51.4571H61.9792C62.3802 51.4571 62.7083 51.1309 62.7083 50.7323V11.2336C62.7083 10.5813 61.9154 10.2642 61.4596 10.7172L42.2917 29.769L30.862 18.5354C30.7249 18.4005 30.5399 18.3249 30.347 18.3249C30.1541 18.3249 29.9691 18.4005 29.832 18.5354L12.6055 35.7119C12.5386 35.7786 12.4856 35.8577 12.4496 35.9448C12.4136 36.0318 12.3954 36.1251 12.3958 36.2193V50.7323C12.3958 51.1309 12.724 51.4571 13.125 51.4571Z" fill="#D9DAE1"/>
</svg>
