<svg width="70" height="70" viewBox="0 0 70 70" fill="none" xmlns="http://www.w3.org/2000/svg">
<path d="M62.9979 35.4749H34.521V7.00138C34.521 6.65103 34.2343 6.36438 33.884 6.36438H31.8135C27.635 6.36012 23.4968 7.18087 19.6363 8.77955C15.7758 10.3782 12.269 12.7234 9.31709 15.6804C6.41074 18.5774 4.09557 22.0119 2.50048 25.7927C0.844113 29.7181 0 33.8825 0 38.1822C0 42.4819 0.844113 46.6382 2.50048 50.5637C4.10111 54.3459 6.39455 57.7538 9.31709 60.676C12.2396 63.5982 15.64 65.8913 19.4305 67.4918C23.3496 69.1542 27.5643 70.0074 31.8215 70C35.9999 70.0042 40.1382 69.1835 43.9987 67.5848C47.8592 65.9861 51.366 63.641 54.3178 60.6839C57.2404 57.7617 59.5338 54.3618 61.1345 50.5717C62.7971 46.6531 63.6503 42.4388 63.6429 38.1822V36.1119C63.6349 35.7616 63.3483 35.4749 62.9979 35.4749ZM69.9976 31.0558L69.7906 28.8104C69.1137 21.485 65.8647 14.5736 60.6248 9.35825C55.3898 4.12825 48.4914 0.892074 41.1226 0.209441L38.869 0.0024184C38.4947 -0.0294312 38.1762 0.257216 38.1762 0.631449V31.1832C38.1762 31.5336 38.4629 31.8202 38.8133 31.8202L69.3606 31.7406C69.7349 31.7326 70.0295 31.4221 69.9976 31.0558Z" fill="#D9DAE1"/>
</svg>
