<svg width="68" height="68" viewBox="0 0 68 68" fill="none" xmlns="http://www.w3.org/2000/svg">
<path d="M14.3158 68H3.57895C2.62975 68 1.71943 67.6229 1.04825 66.9518C0.377066 66.2806 0 65.3702 0 64.4211V35.7895C0 34.8403 0.377066 33.93 1.04825 33.2588C1.71943 32.5876 2.62975 32.2105 3.57895 32.2105H14.3158C15.265 32.2105 16.1753 32.5876 16.8465 33.2588C17.5177 33.93 17.8947 34.8403 17.8947 35.7895V64.4211C17.8947 65.3702 17.5177 66.2806 16.8465 66.9518C16.1753 67.6229 15.265 68 14.3158 68ZM39.3684 68H28.6316C27.6824 68 26.7721 67.6229 26.1009 66.9518C25.4297 66.2806 25.0526 65.3702 25.0526 64.4211V3.57895C25.0526 2.62975 25.4297 1.71943 26.1009 1.04825C26.7721 0.377066 27.6824 0 28.6316 0H39.3684C40.3176 0 41.2279 0.377066 41.8991 1.04825C42.5703 1.71943 42.9474 2.62975 42.9474 3.57895V64.4211C42.9474 65.3702 42.5703 66.2806 41.8991 66.9518C41.2279 67.6229 40.3176 68 39.3684 68ZM64.4211 68H53.6842C52.735 68 51.8247 67.6229 51.1535 66.9518C50.4823 66.2806 50.1053 65.3702 50.1053 64.4211V25.0526C50.1053 24.1034 50.4823 23.1931 51.1535 22.5219C51.8247 21.8508 52.735 21.4737 53.6842 21.4737H64.4211C65.3702 21.4737 66.2806 21.8508 66.9518 22.5219C67.6229 23.1931 68 24.1034 68 25.0526V64.4211C68 65.3702 67.6229 66.2806 66.9518 66.9518C66.2806 67.6229 65.3702 68 64.4211 68Z" fill="#D9DAE1"/>
</svg>
