<svg width="67" height="66" viewBox="0 0 67 66" fill="none" xmlns="http://www.w3.org/2000/svg">
<path fill-rule="evenodd" clip-rule="evenodd" d="M2.67523 23.7032L4.00691 20.9214L4.9135 18.9258H5.57933L5.69971 18.7452H5.63952L5.69971 18.6229L5.57933 18.5026L5.51726 18.4424H5.45708V17.7164H5.03387L6.90912 11.6693L7.81572 11.6091V11.547L7.69534 11.4868L7.63515 11.4266V11.3665V11.3063L7.57496 11.2461L7.51477 11.3063L7.39251 11.2461V11.3063L6.72856 10.7006L6.66649 10.4599L6.54611 9.91441L5.45708 7.85859H5.82009V7.67803L5.45708 7.37521L5.57933 7.01219L5.45708 6.89182H5.39689L5.27651 6.64918H5.21632L5.09406 6.34636L4.97369 6.28617L4.9135 6.16579L4.97369 6.04353V5.92316V5.86297L4.9135 5.92316V5.86297L4.97369 5.74259H4.85331H4.9135L4.97369 5.62033L4.85331 5.6824V5.62033L4.9135 5.56014V5.49995L4.79312 5.43977V5.37958H4.85331L5.15613 5.43977L5.27651 5.19713L5.39689 5.13694L5.51726 5.25732V5.49995L5.63952 5.56014V5.6824V5.80278L5.69971 6.04353H5.7599V6.16579H5.82009V6.22598V6.28617V6.34636L5.88028 6.40655V6.46862H5.94235L5.88028 6.5288L5.82009 6.58899V6.64918V6.76956L5.7599 6.82975L5.88028 6.89182V6.952H5.94235V7.01219L6.12291 6.952V6.89182H6.1831L6.30536 7.01219L6.36555 7.13257L6.42573 7.19276H6.36555L6.42573 7.31502L6.54611 7.37521L6.48592 7.43539H6.42573L6.48592 7.61596V7.67803L6.72856 7.61596L6.78875 7.79841H6.90912L6.96931 7.85859L7.15176 7.97897L7.08969 8.10123L7.33233 8.22161L7.63515 8.16142V8.34198L7.75553 8.52443L7.87778 8.58462L7.93797 8.46424L7.87778 8.2818H7.99816L8.11854 8.10123L8.23892 8.16142V8.10123L8.30099 8.04104V7.97897L8.42136 8.04104L8.54174 7.85859H8.60193L8.66212 7.91878L8.72419 7.97897L8.78438 7.91878L8.84456 7.97897V7.91878H8.96494V7.85859L9.0872 7.79841L9.14739 7.73822L9.20758 7.79841L9.26776 7.73822H9.32795L9.26776 7.79841L9.32795 7.85859V7.73822L9.5104 7.79841L9.63078 7.73822H9.81134V7.67803H9.69097L9.63078 7.55577L9.69097 7.61596L9.81134 7.49558L9.87341 7.55577V7.49558H9.9336H10.1142L10.2966 7.43539H10.4772L10.5976 7.31502L10.8402 7.43539V7.37521H11.0208V7.19276L11.143 7.13257L11.2032 7.01219H11.3236L11.3838 6.952L11.4458 7.01219H11.506L11.5662 6.64918H11.6866V6.58899L11.7468 6.46862H11.807H11.869L11.9894 6.34636L12.0496 6.16579L12.2321 5.92316V5.86297L12.1098 5.92316L12.0496 5.86297V5.80278L12.1098 5.74259L12.0496 5.62033H12.1098L12.17 5.49995H12.2922L12.4126 5.31939L12.5932 5.25732L12.7154 5.19713L12.8358 5.25732L12.9562 5.19713L13.0183 5.01657H13.0785L13.1386 4.89619L13.0785 4.83412L13.1386 4.71374L13.1988 4.77393L13.259 4.71374L13.1988 4.59336L13.259 4.53318H13.3794L13.4415 4.47111V4.41092L13.3192 4.35073L13.3794 4.29054H13.4415L13.5017 4.23035L13.4415 4.17016H13.3794L13.259 4.10997L13.3794 4.04791V3.86734L13.622 3.80715L13.7424 3.86734H13.8045L13.7424 3.74696L13.8045 3.68489L13.985 3.56452V3.50433L13.9249 3.44414L14.0452 3.38395V3.26169H14.1656H14.2277V3.14131H14.3481L14.4082 3.2015H14.6509L14.5888 3.26169L14.7111 3.2015L14.7713 3.26169V3.32376L14.8916 3.38395L14.9518 3.32376L14.8916 3.26169H14.9518L15.0139 3.38395L15.0741 3.32376L15.0139 3.26169V3.2015L15.0741 3.26169L15.1945 3.32376V3.26169H15.3148V3.32376H15.3769H15.4973H15.5575H15.6778L15.6177 3.2015H15.6778L15.8603 3.26169L16.0409 3.14131L16.101 3.2015L16.1612 3.14131H16.2233V3.08113H16.2835L16.2233 2.96075L16.2835 3.02094L16.3437 2.90056V3.02094H16.4039L16.5863 3.14131V3.08113H16.6465V3.2015L16.7669 3.14131V3.26169L16.8271 3.32376L16.9493 3.2015L17.0697 3.14131L17.1299 3.2015L17.1901 3.08113H17.3105L17.3725 2.96075V2.90056L17.5531 2.83849V2.7783H17.6133V2.71811L17.7337 2.7783V2.83849L17.6735 2.7783V2.83849L17.7957 2.96075V2.90056H17.9161V2.83849L17.9763 2.7783H18.0365L18.0967 2.83849L18.1587 2.7783H18.2189L18.2791 2.65793L18.2189 2.59774V2.53755H18.2791H18.3995H18.3393L18.3995 2.47548L18.5218 2.53755L18.4597 2.41529V2.3551L18.5218 2.41529V2.29491H18.6421L18.7023 2.3551H18.8227V2.29491L18.945 2.3551L18.8829 2.23472H18.945L19.0051 2.17454L19.1255 2.23472V1.99209L19.1857 2.05228L19.2459 1.99209L19.3061 2.05228L19.4283 1.99209H19.4885L19.5487 2.05228V1.99209V1.9319H19.6089L19.6691 1.87171H19.7293L19.7914 1.81152L19.8515 1.87171L20.0321 1.9319L20.1544 1.87171H20.2146H20.2747L20.3349 1.99209H20.3951L20.3349 1.87171H20.3951L20.5174 1.99209L20.6378 2.05228L20.7581 2.17454H20.6378V2.29491L20.698 2.23472V2.29491V2.47548L20.7581 2.41529V2.53755L20.8183 2.47548H20.8785V2.65793L20.9406 2.53755L21.0008 2.59774H21.061H21.1212H21.2415L21.1813 2.65793L21.3017 2.83849L21.424 2.7783V2.71811V2.65793L21.5444 2.71811H21.787L21.7268 2.7783H21.6647V2.83849L21.787 2.7783L21.7268 2.83849L21.787 2.90056L21.9074 2.83849L21.8472 2.7783L21.9074 2.71811L22.0277 2.90056L22.0898 2.83849L22.15 2.96075L22.2102 3.02094L22.2704 2.96075H22.3306L22.2704 3.02094L22.3306 3.08113L22.3908 3.02094H22.513H22.5732L22.513 3.14131L22.6936 3.32376V3.26169L22.7538 3.2015L22.814 3.32376L22.8741 3.26169H22.9362L22.9964 3.32376H23.0566L23.1168 3.38395H23.177L23.2372 3.50433L23.3594 3.38395L23.4196 3.50433L23.54 3.38395L23.6002 3.50433L23.6622 3.38395L23.7224 3.50433L23.8428 3.38395V3.44414V3.50433L23.9632 3.56452V3.50433V3.44414V3.38395L24.0234 3.50433L24.1456 3.6247L24.2058 3.68489V3.56452L24.3262 3.68489L24.3864 3.74696L24.5086 3.68489L24.4466 3.74696H24.5086L24.4466 3.86734L24.5086 3.92753H24.4466L24.5086 3.98772H24.4466V4.10997L24.5086 4.17016V4.10997H24.5688V4.17016V4.29054H24.629L24.6892 4.35073V4.29054L24.8096 4.41092H24.7494L24.8717 4.47111V4.53318L24.9318 4.59336H25.0522V4.71374H25.1124H25.1726V4.77393L25.2347 4.71374V4.77393L25.2949 4.71374H25.355L25.4152 4.65355L25.4754 4.71374L25.5958 4.83412V4.89619H25.6579V4.95638H25.7181H25.8384H25.8986L25.9588 5.01657L26.0811 4.95638L26.2014 5.01657V5.07675H26.2616L26.3218 5.01657L26.382 5.07675L26.5043 5.13694H26.5645V5.31939H26.6848V5.25732V5.31939L26.8052 5.37958V5.31939H26.745L26.8052 5.25732L26.8673 5.31939L27.0478 5.25732H27.108L27.0478 5.31939L27.1682 5.37958L27.108 5.43977L27.1682 5.37958V5.43977H27.2303H27.2905V5.37958L27.3507 5.43977L27.2905 5.49995L27.3507 5.56014H27.4109V5.62033H27.471V5.74259L27.5312 5.6824L27.471 5.74259L27.5312 5.80278V5.74259L27.5914 5.80278V5.74259H27.6535V5.80278L27.7739 5.86297V5.92316L27.7137 5.86297V5.92316H27.8942V5.98334H27.9544V6.04353L28.0767 5.98334L28.1369 6.04353V6.1056H28.1971L28.1369 6.16579H28.1971V6.1056L28.2573 6.16579H28.3174H28.4397V6.22598L28.5601 6.28617L28.6805 6.16579L28.7407 6.04353L28.8027 6.1056V6.04353L28.8629 6.1056L28.9231 6.04353L28.9833 6.1056V6.04353L29.0435 6.1056L29.1037 6.16579H29.1639H29.2259H29.2861V6.1056V6.16579H29.4065L29.4667 6.1056V6.16579V6.1056H29.5269V6.04353L29.5889 6.1056V6.04353L29.7093 6.1056L29.7695 6.16579V6.1056L29.8297 5.98334L29.8899 6.04353L29.9501 5.92316L30.0121 5.98334V5.92316H30.1325L30.1927 5.86297H30.4955H30.5557L30.6159 5.98334L30.7363 5.92316L30.9187 5.98334L31.0391 5.92316H31.0993L31.2817 5.86297V5.80278V5.74259H31.3419L31.4623 5.62033H31.5225L31.6447 5.49995H31.7651H31.8253V5.43977L31.8855 5.37958H31.8253L31.8855 5.25732V5.19713L31.9457 5.07675L32.1281 5.01657H32.1883H32.2485L32.3708 4.95638V4.83412L32.431 4.89619L32.5513 4.95638V4.89619H32.6115L32.7338 4.83412L32.794 4.77393L32.9144 4.83412L33.0949 4.77393L33.3376 4.65355L33.3977 4.59336L33.5181 4.65355V4.71374L33.5802 4.65355L33.6404 4.77393L33.8209 4.65355H33.8811L33.9432 4.71374H34.1238L34.2441 4.77393H34.3062V4.83412H34.3664L34.3062 4.95638H34.3664V5.01657L34.4266 5.13694L34.7294 5.19713L34.7896 5.25732L34.8498 5.19713L34.91 5.25732V5.31939L34.9702 5.37958L35.0304 5.43977L35.2128 5.49995V5.56014V5.62033L35.1526 5.56014V5.6824L35.2128 5.74259L35.1526 5.80278H35.2128V5.86297H35.273L35.2128 6.04353L35.1526 6.1056L35.273 6.16579L35.4536 6.28617V6.22598V6.28617H35.5156L35.636 6.34636H35.6962H35.7564H35.8768H35.9388L35.999 6.28617H36.0592H36.1796L36.2398 6.22598L36.362 6.16579L36.4222 6.04353H36.5426L36.6028 5.98334H36.725L36.7852 5.92316H36.8454L36.9056 5.86297L37.026 5.80278L37.0862 5.86297H37.2084L37.2686 5.92316L37.3288 5.86297L37.389 5.98334L37.5113 5.92316L37.5714 5.98334V5.92316V5.98334L37.6316 5.92316H37.752L37.8743 5.98334L37.9345 5.92316L37.8743 5.86297L37.9345 5.74259V5.6824L38.115 5.49995V5.43977V5.31939L38.1752 5.19713V5.13694H38.115V5.07675V5.01657V4.89619L38.1752 4.95638V4.89619H38.2354L38.2975 4.77393L38.3577 4.65355L38.5984 4.59336H38.6586L38.7207 4.65355L38.7809 4.59336H38.841V4.53318L39.0216 4.47111L39.0837 4.41092L39.2041 4.29054L39.2642 4.23035L39.3244 4.17016L39.3846 4.10997L39.6273 3.86734L39.6874 3.74696L39.7476 3.68489L40.1106 3.56452L40.0505 3.38395L40.1106 3.2015L40.1708 3.14131L40.231 2.96075L40.3533 2.90056H40.5338L40.6561 2.71811L40.7163 2.65793V2.53755H40.7765H40.8367L40.9571 2.41529L41.1997 2.3551L41.3201 2.41529V2.53755L41.4423 2.59774L41.2599 6.34636H41.1997L41.0793 6.40655L40.9571 6.34636L40.8367 6.46862H40.7765H40.594H40.5338H40.4135H40.3533L40.2931 6.5288L39.9903 6.64918L39.8699 6.70937V6.89182L39.8078 6.952L39.6874 7.01219V7.07238L39.6273 7.13257L39.5069 7.37521V7.43539L39.4467 7.55577L39.3846 7.67803L39.1439 7.97897V8.10123L39.0837 8.16142L39.0216 8.2818V8.34198V8.40217L39.0837 8.52443L39.0216 8.58462H39.0837L39.0216 8.705L39.0837 8.76519V8.705H39.1439L39.2041 8.64481L39.2642 8.705H39.3846H39.4467V8.64481H39.5069H39.6273L39.6874 8.76519H39.7476L39.6874 8.705H39.7476V8.82537L39.8699 8.76519L39.9301 8.82537V8.88744L39.9903 8.82537V8.88744H40.0505V8.94763H40.1106L40.1708 9.00782V9.06801V9.1282L40.231 9.06801H40.2931V9.1282V9.18839H40.3533V9.25046H40.4135H40.4737L40.4135 9.31064H40.4737V9.37083L40.5338 9.43102L40.594 9.49121L40.8969 9.43102H40.9571L41.0191 9.49121L41.0793 9.43102H41.1395V9.49121H41.2599L41.3201 9.61347L41.3803 9.49121L41.4423 9.43102L41.5025 9.37083L41.6229 9.31064V9.25046H41.8655L41.9257 9.31064V9.25046H42.0461V9.31064L42.1063 9.43102L42.2887 9.49121V9.5514H42.4091L42.4693 9.49121H42.5295V9.61347H42.6517L42.7721 9.67366H42.8925L42.9527 9.73385H43.0147L43.0749 9.79403L43.1953 9.85422L43.2555 9.79403H43.3157L43.3759 9.67366L43.4379 9.61347V9.43102H43.4981V9.37083L43.5583 9.43102V9.37083L43.6185 9.31064V9.37083L43.6787 9.31064V9.37083H43.7389V9.31064L43.801 9.43102L43.8611 9.37083V9.43102H43.9213L44.1019 9.5514L44.2844 9.49121L44.4649 9.5514H44.5251L44.5872 9.49121L44.8279 9.43102L45.1909 9.49121L45.3734 9.5514H45.4336L45.554 9.61347L45.6743 9.67366H45.7345L45.7966 9.79403L45.9772 9.85422H46.8837L46.8236 9.91441L46.7634 9.9746H46.7032H46.4605L46.4004 10.0367L46.28 10.0969L46.2198 10.2172L46.28 10.3978L46.3402 10.7608V10.9433L46.5207 11.4868V11.7295L46.5828 11.9702V12.3332L46.8837 12.6361H47.1264L47.2468 12.6963H47.3069L47.369 12.4555L47.67 12.2731L47.9728 12.2129H48.2154L48.6386 12.3332H49.0618H49.122L49.3026 12.3953L49.4248 12.4555L49.6054 12.5759V12.6361L49.6656 12.6963L49.6054 12.8787L49.4248 13.0593L49.3026 13.3019L48.9414 13.3621H48.759H48.6988L48.6386 13.4223V13.4825L48.5784 13.7251L48.396 13.8455L48.3358 13.9677L48.2756 14.1483L48.033 14.2085L47.8524 14.4511V14.5113L47.9126 14.6317V14.7539L48.033 14.8743L48.0932 14.9947L48.033 15.1151H48.2154L48.2756 15.1771V15.3577L48.6386 15.4179L48.8794 15.5402V15.6004H48.9414L49.0618 15.6605L49.1822 15.6004L49.4248 15.7207H49.6054L49.7277 15.7809H49.9082L50.0286 15.8411L50.3314 15.7207H50.3916L50.6944 15.7809L50.7546 15.8411L50.875 15.7809H51.1176L51.1778 15.7207L51.3603 15.6004L51.4806 15.5402V15.4781H51.6612L51.7835 15.5402V15.6004L51.964 15.6605L52.2067 15.7809H52.4474L52.6299 16.1439V16.2041L52.7502 16.2643V16.3264V16.3866L52.8706 16.4468V16.5069L53.0531 16.6875V16.7496H53.1735L53.1133 16.8098H53.2957V16.9301H53.2336H53.3559V16.9903H53.4161V17.0505L53.5365 17.1126L53.6587 17.1728H53.7791V17.0505H53.9597L54.0819 17.1126V17.0505L54.2023 17.1728H54.4431L54.5653 17.233V17.2932L54.6255 17.233V17.2932L54.7459 17.233H54.8061V17.2932H54.8681V17.3533L54.9283 17.4135V17.5358H54.9885L55.0487 17.596L55.1089 17.6562H55.1691L55.2311 17.7164H55.2913L55.4117 17.7765V17.7164L55.4719 17.7765V17.8988L55.5321 17.959H55.4719L55.5923 18.0794H55.6543H55.5923V18.1396H55.6543L55.7145 18.1997H55.8349L55.8951 18.1396L55.9553 18.1997H56.0155L56.0775 18.2599V18.322V18.2599L56.1979 18.322H56.2581L56.3183 18.3822L56.2581 18.4424V18.5026L56.3183 18.4424L56.3785 18.3822L56.4406 18.322V18.3822H56.5609L56.6211 18.4424H56.6813H56.7415L56.6813 18.322L56.7415 18.3822L56.8036 18.4424H56.8638H56.924V18.3822L56.9841 18.4424H57.1045V18.5026H57.1647L57.2268 18.6229H57.3472L57.4073 18.7452V18.8054H57.4675L57.5277 18.9258H57.5879V18.986L57.7102 19.1082H57.7704V19.0461H57.8305H57.8907L57.8305 19.1082V19.1684H58.013L58.2537 19.2888H58.1936L58.3139 19.349H58.2537L58.376 19.4092L58.4362 19.349L58.5566 19.4712H58.6769H58.7371H58.6769V19.5314H58.7371V19.5916L58.7992 19.5314L58.8594 19.6518H58.9196L58.9798 19.5916L59.04 19.6518H58.9798L59.1001 19.7722L59.1603 19.712L59.4632 19.8944L59.5854 19.8324H59.6456L59.766 19.8944H59.8864V19.9546L60.0086 19.8944L60.0688 19.8324H60.1892V19.8944H60.3716L60.4318 19.9546H60.492H60.6124L60.7948 20.0148H60.855V20.075L60.9152 20.1352H61.0356L61.0958 20.075L61.218 20.1954L61.2782 20.1352H61.3384L61.3986 20.1954H61.519H61.581L61.6412 20.2556H61.7014L61.6412 20.3176H61.7014V20.3778H61.7616L61.8218 20.438H62.0042V20.4982V20.5584L62.0644 20.6186V20.6806L62.245 20.6186L62.3673 20.6806H62.608V20.8612H62.6682L62.7303 20.9214L62.7905 20.9816L62.8506 20.9214V21.0418L63.0312 21.1038L63.0914 21.164L63.1535 21.1038H63.2738V21.0418H63.334H63.3942L63.4544 21.1038L63.5165 21.0418V21.1038H63.6369L63.697 21.2242L63.8174 21.2844H64.0601L64.1804 21.4048H64.3027L64.3629 21.4669H64.4833H64.5434V21.527L64.7259 21.6474V21.7076L64.7861 21.6474L64.8463 21.7076L64.9666 21.828V21.9502H65.0268L65.087 22.1308L65.1491 22.191V22.2531L65.0268 22.3133L65.2093 22.3734L65.2695 22.3133L65.3297 22.3734L65.2695 22.4336H65.45V22.6142H65.6325L65.7529 22.7365L65.813 22.7966L65.8751 22.8568V22.917L65.7529 22.9772L65.6325 23.0995V23.2198L65.9353 23.643L65.9955 23.7634V23.9459V24.0663H65.8751H65.813L65.6325 24.0061H65.5723L65.45 24.0663L65.3899 24.1866L65.2093 24.6719L65.1491 24.7321L65.0268 24.9728L64.9666 25.2757L64.9065 25.3359V25.3979L65.087 25.5785L64.9666 25.7591L65.0268 25.8813V25.9415L65.1491 26.0619V26.3647V26.6073L65.2093 26.7277L65.3297 26.9083V26.9704V27.0305V27.0907L65.1491 27.5139L65.2695 27.8168V28.0575L65.2093 28.24L65.1491 28.3001L65.2695 28.4807L65.3297 28.603V28.7233L65.087 29.2067L64.9065 29.6299L64.7861 29.9929L64.7259 30.1152L64.4231 30.356L64.3027 30.4161L64.1804 30.5384L64.0601 30.5986H63.9999L63.8174 30.6588L63.5767 30.719H63.2137L62.6682 30.8393L62.4876 30.9616L62.3052 31.082H62.245L62.1848 31.1422L62.1246 31.3848L62.0042 31.445L61.7014 31.9886V32.0488L61.581 32.1108L61.3384 32.2914L61.218 32.4118L60.9152 32.897L60.855 33.0776L60.6726 33.2582L60.2494 33.5008L60.1892 33.561L60.129 33.6212V33.6833L60.0688 33.7434L60.0086 33.8036L59.7058 34.4695L59.6456 34.7704L59.766 34.9529V35.0131V35.0732L59.7058 35.3761V35.6789L59.766 35.8595L59.8864 35.9798L59.8262 36.403L59.766 36.5253L59.403 36.766H59.3428H58.9798L58.8594 36.8262L58.6168 37.1291L58.5566 37.3115L58.4362 37.4921V37.6745L58.3139 37.9755L58.1334 38.0375L58.0732 38.1579H58.013L57.8305 38.2181H57.5879L57.5277 38.2783L57.4675 38.3987L57.5277 38.7015L57.4675 38.8237L57.5277 38.8839L57.65 39.0645L57.7102 39.4275L57.7704 39.4877L57.7102 39.7905L57.65 40.0332V40.0933V40.1535V40.2137L57.5879 40.2739L57.2268 40.5767L57.1647 40.8194L57.1045 40.9999L57.0443 41.1824L56.8638 41.3629L56.7415 41.5435L56.6813 41.6056L56.4406 41.726H56.2581L55.8951 41.6658H55.8349L55.7145 41.726L55.5923 41.9667L55.4719 42.1492L55.5321 42.2695L55.8349 42.5122V42.6927L55.9553 42.9354V43.1159V43.178L55.7145 43.6012L55.5923 43.7216L55.5321 43.842L55.1691 43.9642L54.9885 44.0846L54.8061 44.5078V44.6282L54.7459 44.8106L54.3227 45.1116L54.2023 45.294L54.0819 45.3542V45.4144H53.9597L53.6587 45.7774L53.5967 45.9598L53.3559 46.7461L53.0531 47.1693L52.9327 47.2896L52.8706 47.3498L52.8104 47.5323L52.3872 47.8332L52.327 47.8953L52.1465 48.0759L52.0863 48.1962H52.0242L51.964 48.2564L51.7835 48.3185L51.5408 48.4389L51.238 48.4991L51.0574 48.6815L50.875 48.8019L50.7546 48.8621L50.5741 48.9824L50.211 49.1047L49.9684 49.2853L49.7878 49.3455L49.3026 49.6483L49.2424 49.7687L48.9414 50.0113L48.8192 50.2539H48.759L48.5182 50.3743L48.033 50.4947L47.9728 50.5549H47.9126L47.5496 50.7373L47.4292 50.9179L47.369 50.9781L47.006 51.1003L46.9458 51.1605L46.7634 51.3411L46.5828 51.5837L46.5207 51.7041V51.7643V51.8264L46.5828 51.8865L46.4004 52.1875H46.3402L45.917 52.7329L45.7966 52.8533L45.7345 52.9135H45.554H45.3734V52.9737H45.3113L44.7677 53.1561L44.5872 53.2163L44.4649 53.2765L44.3445 53.3367L44.2844 53.3969L44.1621 53.5793L43.9213 53.6395H43.8611V53.6997L43.6787 53.8822L43.4981 53.9424L43.1953 54.1229L42.8925 54.2452L42.7721 54.3054L42.6517 54.3656L42.5295 54.5461V54.6082L42.4091 54.7286L42.2887 54.7888L42.1063 54.9091L42.0461 55.1518L41.8655 55.3944V55.5148V56.5418L41.6229 56.7844V56.9048L41.3803 57.2678L41.2599 57.691L41.1395 57.9938V58.054L41.0191 58.2966L40.7163 58.7198L40.6561 58.78L40.231 58.9004L39.6874 59.2634L39.2041 59.506L38.9614 59.4459L38.9012 59.506L38.7809 59.5662V59.6264L38.5382 60.0496V60.4126L38.4178 60.7756L38.3577 61.1387L38.2975 61.3813L38.2354 61.5017L38.1752 61.6841L38.115 62.0452V62.1073L37.9345 62.4083L37.8743 62.7713L37.8122 62.9537L37.8743 63.0139L37.8122 63.1343L37.8743 63.3167V63.5575L37.6918 64.1029L37.6316 64.2233L37.4492 64.4039L37.0862 64.5863L36.4222 65.0697L36.1796 65.1299H36.1194L36.0592 65.1901L35.8166 65.0095V64.8892L35.7564 64.7669V64.6465L35.5758 64.5863L35.4536 64.6465L35.3332 64.5261L35.2128 64.466L35.0304 64.2835L34.91 64.2233L34.7896 63.9205V63.8001L34.7294 63.7399L34.6072 63.6797L34.3062 63.6177L34.1238 63.4371V63.4973H34.0636H34.0034L33.8811 63.4371H33.8209L33.7006 63.3769L33.5181 63.4371V63.3769L33.5802 63.2565L33.3977 63.1945V63.0741L33.2774 63.1343L33.2172 63.1945H33.157L33.0949 63.0741H33.0347L32.9745 63.0139H32.8542L32.794 62.8935H32.6717L32.6115 62.8315L32.4911 63.0139L32.3708 63.1343V63.2565L32.3087 63.3167L31.9457 63.3769V63.2565H31.8253L31.7651 63.3167H31.7049L31.6447 63.3769H31.5225V63.4371L31.4021 63.4973L31.3419 63.5575L31.1614 63.4973L31.0391 63.6177V63.7399L30.9789 63.6797L30.7983 63.7399L30.7363 63.6177H30.6761L30.6159 63.7399H30.4955V63.8603H30.3751V63.9205V63.9807L30.3131 64.0409L30.3751 64.2233H30.2529V64.2835L30.1927 64.2233H30.1325H30.0121L29.8899 64.1631L29.8297 64.2233L29.7093 64.1631L29.6491 64.2233L29.5269 64.2835L29.4065 64.3437L29.2861 64.4039H29.2259L29.1639 64.5261L29.0435 64.466V64.4039L28.9833 64.466L28.8629 64.4039L28.8027 64.2835L28.7407 64.2233L28.6203 64.3437H28.5601V64.4039L28.4397 64.466H28.3776L28.3174 64.4039L28.2573 64.466L28.0767 64.5261V64.466H27.9544L27.8942 64.5261V64.5863H27.5312L27.3507 64.5261V64.466H27.2905V64.4039H27.2303L27.1682 64.3437L26.9877 64.2233H26.8673L26.6848 64.5261H26.6246L26.5043 64.466L26.4441 64.4039H26.3218V64.2835H26.2616L26.2014 64.3437H26.1413L26.0811 64.2835H26.019L25.9588 64.2233V64.1029V64.0409H25.8384L25.8986 63.9205L25.7181 63.8001L25.7782 63.6797L25.8384 63.4371L25.7782 63.3167V63.0139V62.9537L25.7181 62.8935L25.8384 62.6509V62.4684L25.7181 62.3481H25.7782L25.7181 62.2277L25.7782 62.0452L25.8384 61.9851L25.7782 61.9249H25.7181L25.6579 61.9851L25.5958 61.9249L25.5356 61.8647L25.5958 61.6841L25.5356 61.622H25.4754V61.3813L25.4152 61.259L25.355 61.3211L25.2949 61.259L25.1726 61.1988V61.1387L24.992 61.1988L24.9318 61.1387V61.0785V60.8358L24.992 60.7155V60.6553L25.0522 60.5951L24.9318 60.4728V60.3524L24.8717 60.2321V60.1719L24.8096 59.9894L24.7494 59.8691H24.6892V59.8089V59.7487H24.8096L24.8717 59.5662L24.8096 59.506L25.1124 59.143L25.1726 58.8402L25.1124 58.7198H25.0522V58.5994L24.9318 58.417L24.7494 58.2966L24.8096 58.1762L24.7494 57.9938V57.9336L24.9318 57.8734L25.0522 57.753L24.992 57.691H24.9318L24.8717 57.6308L24.9318 57.5706L24.8096 57.39H24.9318L24.992 57.2678L25.0522 57.2076L24.8717 57.027V56.8446L24.7494 56.7844L24.629 56.7242H24.5688L24.3864 56.7844V56.6038V56.4816L24.3262 56.3612L24.2058 56.1185H24.266V55.938L24.2058 55.8778L24.266 55.8176L24.2058 55.7555L24.1456 55.6954L24.0234 55.6352L24.0854 55.3944L24.0234 55.3323L24.1456 55.2721L24.0234 55.0314V54.9693V54.9091H23.903L23.9632 54.8489L23.903 54.7888L23.9632 54.6684L23.903 54.4859V54.3656L23.7826 54.3054L23.8428 54.1831L23.7826 54.0025L23.8428 53.9424V53.7599V53.6997V53.6395L23.903 53.5793V53.459L24.0234 53.3969V53.2765L24.0854 53.2163L24.2058 53.2765V53.2163L24.1456 53.1561V53.096L24.2058 53.0358V52.9737L24.266 52.7931L24.2058 52.6126L24.266 52.5505L24.2058 52.4301V52.2496L24.1456 52.1875V52.0069L23.9632 51.8264L23.7826 51.7041L23.7224 51.6439H23.6002L23.54 51.5235L23.4798 51.4013L23.2372 51.2809L23.0566 50.7975V50.6771L22.9964 50.5549L23.0566 50.4345H23.1168V50.3743L23.177 50.1919L23.1168 49.9511L23.0566 49.8909L23.1168 49.8288L23.0566 49.7687L22.8741 49.7085L22.814 49.7687L22.7538 49.7085L22.6936 49.7687L22.6334 49.7085L22.513 49.6483L22.5732 49.5279V49.4677L22.3306 49.3455L22.2704 49.1649L22.2102 48.9223L22.0898 48.8019H21.7268L21.5444 48.7417L21.4842 48.8019L21.424 48.7417L21.3017 48.8019L21.2415 48.8621H21.1813H21.061L20.9406 48.7417L20.7581 48.8019V48.9223H20.698L20.6378 48.8621L20.3951 48.8019L20.2747 48.7417H20.2146L20.1544 48.8019H20.0321L19.9719 48.8621L20.0321 48.8019H19.9719H19.9117L19.7293 48.6815H19.6691V48.7417L19.6089 48.8019H19.5487H19.4283H19.3682L19.3061 48.8621L19.2459 48.8019V48.7417H19.1255V48.8019L19.0653 48.6815L19.0051 48.7417H18.945H18.8829V48.6815L18.7023 48.5592V48.4389L18.6421 48.3787H18.4597L18.3995 48.3185L18.3393 48.3787L18.2189 48.2564L18.0967 48.1962L18.0365 48.136L17.9763 48.1962L17.8559 48.0759V48.0157H17.7957L17.7337 47.8953V47.8332H17.6735V47.773L17.6133 47.8332L17.5531 47.773L17.4929 47.5925V47.5323V47.4721V47.3498L17.3725 47.2896H17.4327L17.3725 47.2295V47.1693L17.2503 47.1091L17.3105 47.047V46.8664L17.2503 46.9266H17.1901H17.0697V46.9868L17.0095 46.9266L16.9493 46.9868L16.8873 46.9266L16.8271 46.9868L16.7669 46.9266V46.9868H16.7067V46.9266H16.6465V46.9868L16.5863 46.9266L16.5243 47.047H16.3437L16.2835 47.1091V47.1693H16.1612V47.2896L16.101 47.3498V47.41L16.1612 47.4721H16.101V47.5925L15.9807 47.5323V47.6527H16.0409L15.8603 47.773V47.8953L15.8001 47.9555L15.8603 48.0157H15.8001L15.738 48.136L15.6778 48.0759H15.6177V48.136H15.5575L15.4973 48.1962L15.4371 48.136V48.1962L15.3769 48.2564V48.3185L15.1945 48.4389H15.1343H15.0741L15.1343 48.6194H15.0741L15.0139 48.5592L14.8916 48.4991L14.7713 48.4389L14.7111 48.3185V48.2564V48.1962L14.6509 48.2564V48.1962H14.5888H14.5286V48.2564L14.5888 48.3185V48.3787H14.5286V48.4389L14.4684 48.4991L14.3481 48.6194L14.2277 48.5592L14.2879 48.4991L14.2277 48.4389L14.1656 48.3787L14.1054 48.4389H14.0452H13.985V48.4991L13.8647 48.5592H13.8045V48.4991H13.7424L13.8045 48.4389H13.7424L13.622 48.4991V48.6194V48.6815V48.8019L13.5017 48.8621L13.4415 48.9223L13.3192 48.9824H13.259L13.1988 48.8621H13.1386L13.0183 48.8019L12.9562 48.7417L13.0183 48.6194L12.9562 48.4991H12.896L12.7756 48.5592V48.6194L12.7154 48.6815L12.6553 48.6194L12.5932 48.5592H12.6553H12.5932L12.533 48.4991L12.4728 48.5592H12.3524L12.2922 48.4991L12.2321 48.3787L12.1098 48.4389H11.9894L11.9292 48.3787L11.9894 48.3185L11.9292 48.2564L11.807 48.3787L11.7468 48.3185L11.6866 48.3787H11.5662L11.506 48.4389L11.4458 48.3787V48.3185H11.3236L11.3838 48.4389H11.3236H11.2032L11.143 48.4991L11.0828 48.4389L11.0208 48.4991H10.9606L10.9004 48.4389L10.9606 48.2564L10.8402 48.3185L10.6596 48.2564L10.5374 48.3185L10.4772 48.2564L10.417 48.3185H10.3568H10.2966L10.2345 48.3787V48.3185L10.1744 48.2564V48.1962L10.1142 48.136L10.054 48.1962H9.99379V48.136V48.1962V48.2564L10.054 48.3185H9.9336V48.3787L9.75115 48.4991L9.63078 48.3787H9.44833V48.3185L9.38814 48.3787V48.3185L9.32795 48.2564H9.26776V48.1962L9.14739 48.2564V48.3185L9.02513 48.3787L9.0872 48.4389H9.02513L8.90475 48.3787V48.3185L8.84456 48.3787V48.3185H8.78438L8.72419 48.2564L8.66212 48.3185H8.54174V48.2564H8.48155L8.54174 48.136H8.42136V48.0759L8.36117 48.136V48.0759L8.17873 48.0157L8.05835 48.0759L8.11854 48.0157H7.99816L7.87778 47.8953L7.81572 47.9555V48.0157V47.8953L7.75553 47.9555L7.69534 47.8953L7.57496 47.9555H7.51477V47.8953H7.39251L7.27214 47.773H7.21195L7.15176 47.8332L7.0295 47.8953L6.78875 47.8332H6.72856L6.66649 47.7128V47.5323V47.4721L6.6063 47.5323V47.4721H6.54611V47.41H6.48592V47.3498H6.42573L6.48592 47.2896L6.42573 47.1693V47.1091V47.047L6.1831 47.1693H5.94235L5.88028 47.1091L5.7599 46.9868L5.69971 47.047H5.57933V47.1091L5.51726 47.1693V47.2295L5.39689 47.1091L5.3367 47.1693H5.27651V47.2896H5.3367V47.41L5.21632 47.4721H5.15613H5.09406L4.9135 47.3498L4.85331 47.41L4.79312 47.5925H4.73293L4.67086 47.4721H4.61067L4.55048 47.3498L4.4903 47.2896L4.18747 47.41L4.24766 47.4721L4.12728 47.41H4.00691L3.94484 47.3498H3.82446H3.58371L3.64389 47.2295L3.58371 47.1693L3.52164 46.9868H3.40126L3.34107 46.9266L3.28088 47.047H3.1605L3.09844 46.9868L3.03825 47.047L3.09844 46.7461L3.03825 46.684H2.91787V46.5636L2.97806 46.4432L3.28088 46.2608V46.2006V46.02L3.40126 45.8997L3.52164 45.4746V45.3542H3.46145L3.40126 45.294L3.58371 45.1736H3.70408L3.76427 45.1116L3.70408 45.0514L3.22069 44.8106V44.7504L3.40126 44.6884L3.58371 44.6282L3.76427 44.2652V44.0846H3.64389L3.52164 43.9642L3.46145 43.9021V43.842L3.52164 43.7216L3.88465 43.479L4.00691 43.3586V43.2984L3.64389 43.1159L3.58371 42.9956L3.46145 42.7548L3.58371 42.5724L3.76427 42.5122V42.452L3.64389 42.3297L3.34107 42.2093L3.28088 42.0288V41.8463L3.34107 41.6658L3.46145 41.6056L3.58371 41.4231L3.64389 41.3028V41.1824L3.76427 40.8796L3.82446 40.6971L4.18747 40.2739L4.24766 40.1535L4.30785 39.9711L4.24766 39.9109L3.88465 39.8507L3.76427 39.7303L3.64389 39.61L3.70408 39.5479L4.24766 39.1849L4.30785 39.0645V38.7617L4.18747 38.2783V38.2181L4.36992 37.9153L4.18747 37.6124L4.12728 37.3717L4.30785 37.2513L4.4903 36.9485L4.61067 36.8262L4.55048 36.7059V36.4651V36.403H4.43011L4.30785 36.5253H4.18747L4.12728 36.4651L4.00691 36.2225L3.94484 36.1623L3.82446 36.1021L3.70408 36.1623L3.58371 36.1021L3.64389 35.9798L3.82446 35.8595L4.18747 35.6168L4.24766 35.4362L4.18747 35.3159L3.88465 35.0732H3.76427L3.58371 35.1936H3.46145L3.34107 35.1334V35.0732L3.46145 34.7704L3.58371 34.7102L3.70408 34.65L4.0671 34.7102H4.18747V34.65L4.12728 34.5297L4.0671 34.4074L3.82446 34.1065L3.76427 33.9842L3.70408 33.924H3.64389H3.58371L3.40126 34.287H3.09844V34.1666V34.1065L3.1605 33.924L3.22069 33.7434V33.6833H3.03825L2.85768 33.4406V33.2582L2.97806 33.0776L2.79749 32.534L2.85768 32.2914L3.03825 31.9886V31.8682L2.79749 31.5052L2.43448 31.445L2.19184 31.2625L2.07147 30.8393L2.13166 30.6588L2.19184 30.356V30.2356L2.13166 30.1754L2.07147 30.1152H1.88902L1.82883 30.1754L1.70846 30.2958V30.356L1.52601 30.2356L1.46582 29.9929L1.52601 29.9328L1.58808 29.8124L1.82883 29.7522L1.88902 29.6299L1.82883 29.5697L1.76864 29.5096H1.52601L1.46582 29.4494V29.3892L1.52601 29.3271L1.58808 29.2067H1.76864L1.94921 29.1465L2.01128 28.966L2.19184 28.8437L2.55486 28.7835V28.7233L2.67523 28.4205L2.79749 28.3603H2.97806H3.09844L3.22069 28.3001L3.34107 28.0575L3.46145 27.9973H3.52164L3.64389 28.0575L3.82446 28.24L3.94484 27.9973L4.18747 27.6945L4.24766 27.5741L1.76864 25.6387L2.67523 23.7032Z" fill="#FE9A00" stroke="white"/>
</svg>
