<svg width="90" height="61" viewBox="0 0 90 61" fill="none" xmlns="http://www.w3.org/2000/svg">
<path fill-rule="evenodd" clip-rule="evenodd" d="M0.729592 41.773L0.820025 41.6826V41.5017L1.00089 41.1372L1.09133 40.9563L1.27502 40.685L1.54632 40.5013L1.91088 40.0463L2.09175 39.775L2.27262 39.4105L2.36588 38.8679L2.54674 38.5937L2.63718 38.3224L2.81804 38.0483H3.00174L3.09217 37.8674L3.00174 37.5029L2.90848 37.322L2.72761 37.1411L2.63718 36.9575L2.72761 36.7766L2.63718 36.5053V36.2312L2.90848 35.5049V34.9594L3.09217 34.5949L3.18261 34.2331L3.36347 33.504L3.6376 32.6873L3.72803 32.416L3.9089 32.3227L3.99933 32.1419L4.18303 31.6869L4.27346 31.4156L4.45433 30.9606L4.54476 29.963V29.7793L4.36389 29.1434L4.27346 28.7789L4.45433 28.143L4.81889 27.7813L5.09019 27.4167L5.27106 26.9617L5.36432 26.7808L5.18062 26.0545L4.99976 25.7804L4.54476 25.3282L4.45433 25.0541V24.7828V24.6924V24.5087L4.27346 24.0565V23.8728L4.18303 23.7824L4.36389 23.4178L4.72563 23.1465L4.99976 22.782L5.09019 22.6915H5.18062L5.54518 22.6011L6.54278 21.8748L7.08821 21.6007L7.36234 21.3294L7.45277 21.1485L7.7269 20.329V19.9672L7.63364 19.6931L7.7269 19.5122L7.63364 19.4218L7.7269 19.1477L7.81733 18.6022L8.08863 18.1501V18.0568L8.17906 17.5142L8.2695 17.2401L8.36276 17.0592L8.45319 16.6947L8.54363 16.1492L8.72449 15.6038V15.0584L9.08905 14.4225V14.3321L9.26992 14.2416L9.36035 14.1512L9.72492 14.2416L10.4512 13.8771L11.2679 13.3317L11.9066 13.1508L11.9971 13.0604L12.4521 12.4245L12.6329 12.0599V11.9695L12.8138 11.5145L12.9947 10.8786L13.3592 10.3332V10.1523L13.7238 9.78779V8.24476V8.06389L13.9951 7.69933L14.0855 7.33477L14.3596 7.15391L14.5405 7.06347L14.7214 6.8826V6.78934L14.9051 6.51804L15.0859 6.42761L15.2668 6.33718L15.7218 6.15348L16.1768 5.88218L16.4481 5.79175L16.7222 5.51762V5.42719H16.8127L17.1744 5.33675L17.3581 5.06263L17.4485 4.97219L17.6294 4.88176L17.8131 4.79133L18.0844 4.70089L18.9011 4.42677H18.9944V4.33633H19.2657H19.537L19.6302 4.2459L19.8111 4.06503L20.447 3.24548H20.5374L20.8115 2.79331L20.902 3.06461L20.9924 3.33874L21.1733 3.06461L21.5378 2.97417L21.7187 2.79331L21.8995 2.60961L22.0832 2.51918V2.42875L22.2641 2.33831L22.445 2.24788L22.5382 2.15745L23.1741 2.06419L23.4454 2.15745L24.0813 2.60961L24.2621 2.70287L24.7171 2.51918H24.9912H25.0817L25.1721 2.60961L25.5367 2.70287L25.8984 2.88374H26.1725L26.718 2.70287L27.5347 2.15745L27.7156 2.06419H27.806L27.9897 2.33831L28.3514 2.70287H28.4419L28.6256 2.79331L28.8969 2.97417H28.9873L29.4423 2.70287H29.6231V2.60961H29.8068L29.8973 2.70287H29.9877L30.1686 2.79331L30.6236 2.97417H31.2594L31.5336 3.06461L31.7144 2.88374L31.8953 2.79331L32.2599 2.70287L32.3503 2.79331L32.5312 3.06461V3.42917V3.5196H32.6216L32.9861 3.33874L33.167 3.24548L33.5316 3.15504L33.4411 2.60961V2.51918L33.5316 2.15745V2.06419L33.622 1.79289L33.8057 1.52158L33.8961 1.42832L34.077 1.33789H34.1674L34.3483 1.42832L34.8033 1.70245H35.1679H35.2583L35.6229 1.79289L36.075 2.06419H36.3492L36.8946 2.51918L36.985 2.60961L37.0754 2.70287L37.2563 2.88374L37.5304 2.97417H37.6209L38.6213 2.70287L38.8022 2.79331H38.8926L38.983 2.88374H39.1667V2.97417L39.2572 3.33874L39.3476 3.5196H39.6189L39.893 3.33874H40.0739H40.5289L40.7098 3.42917L41.0743 3.70047L41.3456 3.7909L41.5293 3.88416L41.6197 3.7909L41.9815 3.70047L42.0719 3.7909H42.2556L42.6173 3.61004H42.7106L42.9819 3.24548H43.2532L43.6178 3.42917H43.7986L43.9823 3.33874L44.3441 3.42917H44.5277L44.8895 3.5196H44.9799L45.254 3.42917L45.4349 3.5196L45.6158 3.70047H45.709L45.7995 4.06503L46.0708 4.2459H46.1612L46.4353 4.33633L46.6162 4.42677L46.8903 4.61046L47.4358 4.79133H48.162L48.8883 5.15589H49.0692L49.2529 5.06263H49.5242L49.7051 5.33675H49.7983L49.9792 5.24632H50.0696H50.4342L50.5246 5.33675L51.0701 5.70131L51.2509 6.06305L51.3414 6.15348L51.4318 6.42761L51.7059 6.51804V6.60848V6.69891L51.6155 7.24434L51.7059 7.33477H51.9772H52.2513L52.3418 7.42521L52.4322 7.51847H52.5226H52.6131L52.8872 7.42521L53.2489 6.78934L53.3394 6.69891L53.4326 6.60848H53.5231H53.7039L53.7944 6.78934L54.0685 6.8826L54.2494 6.97304L54.4302 6.8826L54.6139 6.69891L54.9757 6.78934L55.1594 6.8826L55.2498 6.97304L55.3402 7.15391L55.4307 7.24434L55.6115 7.33477L55.7952 7.15391H55.8857L56.157 7.33477L56.3378 7.24434L56.6119 7.33477L56.7024 7.15391H56.7928V6.8826L56.8832 6.78934H57.0669L57.2478 6.69891L57.5219 6.8826V6.97304L57.7028 7.15391L57.7932 7.33477H58.0645H58.2482L58.3387 7.15391H58.5195L58.7004 7.06347L59.065 7.24434L59.1554 7.33477V7.42521H59.2458L59.4295 7.33477L59.6104 7.42521H59.8845L60.1558 7.33477L60.3367 7.15391L60.6108 7.24434H60.7917H60.8821L61.063 6.97304H61.2467L61.4275 7.06347L61.7017 6.78934V6.69891L61.973 6.78934H62.1538L62.2471 7.06347H62.3375H62.428L62.5184 6.97304L62.428 6.78934V6.69891L62.5184 6.60848L62.7897 6.78934V6.8826L62.883 7.06347L62.7897 7.33477L62.6993 7.42521V7.51847L62.9734 7.78977H63.2447L63.4256 7.8802L63.6997 8.06389V8.15433H63.6092V8.24476L63.5188 8.42563V8.51606V8.79019H63.6997L63.8806 8.97106L63.971 8.88062L64.0642 8.97106L64.1547 9.06149H64.3355L64.6097 8.97106L64.7001 9.06149L64.7905 9.15192H64.881V9.24518L64.9714 9.33562H65.0618L65.1523 9.42605H65.336L65.5168 9.51649L65.6977 9.42605H65.8814L65.9718 9.51649L66.0623 9.60692L65.8814 9.88105L65.9718 9.97148L66.1527 10.0619L66.2431 10.2428L66.3336 10.1523V10.2428L66.4268 10.3332H66.6981L66.6077 10.4265L66.6981 10.5169L66.9694 10.9691V11.1528V11.2432L67.0627 11.3336H67.1531L67.0627 11.5145L67.1531 11.6078L67.334 11.9695V12.2436L67.4244 12.4245V12.6054L67.334 12.7891L67.2436 12.6958V12.8795V12.9699H67.5149L67.789 13.1508V13.2412L67.8794 13.3317L67.789 13.4249L67.6985 13.3317L67.4244 13.4249V13.5153H67.5149H67.6081H67.6985V13.6058V13.6962H67.789L67.8794 13.7866H67.9698V13.9675H68.1507L68.0603 14.0608L68.1507 14.1512H68.0603L67.9698 14.0608H67.8794L67.789 14.1512L67.6985 14.2416V14.3321V14.5129V14.6062V14.6966L67.5149 14.6062V14.7871L67.4244 14.8775L67.5149 15.0584H67.4244L67.334 15.1516L67.4244 15.2421L67.6985 15.4229L67.6081 15.5134L67.6985 15.6942L67.6081 15.8779L67.6985 15.9684V16.0588L67.5149 16.2397L67.4244 16.4234L67.5149 16.5138V16.6042V16.6947H67.6081V16.7851L67.5149 16.8755L67.6985 16.9688V17.0592L67.8794 17.1497V17.2401H67.9698V17.3305V17.421H68.0603L68.1507 17.5142H68.244V17.6046H68.3344V17.6951L68.4248 17.7855L68.3344 17.9664V18.0568L68.4248 18.2405H68.3344L68.1507 18.1501V18.2405V18.3309V18.4214L68.0603 18.5118L68.244 18.6022L68.1507 18.6927V18.7859L68.244 18.9668V19.1477V19.2381V19.3314L68.0603 19.4218L67.8794 19.5122H67.789V19.6027L67.8794 19.6931L67.6985 19.6027H67.6081L67.789 19.6931L67.6985 19.7835H67.6081L67.6985 19.8768V20.0577L67.789 20.1481L67.8794 20.329L68.0603 20.1481V20.4194L68.1507 20.5127L68.244 20.6031L68.3344 20.6935V20.784H68.4248L68.6057 20.8744V20.784L68.7894 20.6935V20.784H68.8798V20.8744L68.9703 20.9648H68.8798H68.6961L68.7894 21.1485L68.8798 21.0553L68.9703 21.1485V21.2389H69.0607V21.3294H68.8798V21.4198H68.9703L69.1511 21.5103V21.6007L69.0607 21.6939V21.7844H69.1511L69.2416 21.8748V21.9652H69.332L69.2416 22.0557H69.1511H69.2416L69.1511 22.1461H69.2416H69.332H69.4253V22.2394H69.5157V22.4202L69.6061 22.5107L69.6966 22.6011L69.8774 22.6915V22.782H69.9707L69.8774 22.8752L69.9707 22.9657V23.0561H70.0611L70.3324 23.1465L70.242 23.237H70.3324L70.242 23.3274L70.5133 23.4178V23.5111L70.6066 23.4178L70.697 23.5111L70.7874 23.4178L70.8779 23.5111V23.6015L71.152 23.7824H71.2424V23.8728L71.3328 23.9633L71.152 24.0565V24.2374V24.5087V24.6924L70.9683 24.7828L71.0587 24.8733L71.4233 25.1446V25.2378H71.6041L71.6946 25.3282L71.6041 25.4187H71.6946L71.7878 25.5091L71.6946 25.69L71.7878 25.7804L71.8783 25.8737V25.9641V26.0545L71.9687 26.145L72.0591 26.0545H72.1496L72.3333 26.2354H72.4237V26.4191H72.695L72.7854 26.5095H72.9691L73.0596 26.6L72.7854 26.8713H72.695L72.5141 27.1454L72.3333 27.4167V27.5071L72.4237 27.6004L72.5141 27.4167H72.6046V27.5071L72.5141 27.6908L72.3333 27.8717L72.4237 27.9621L72.3333 28.143H72.4237V28.2363V28.3267H72.3333L72.24 28.4171L72.1496 28.5076V28.6884L71.8783 28.7789H71.7878L71.8783 28.9625V29.1434L71.9687 29.2339L71.8783 29.3243L71.7878 29.508L71.6946 29.4175L71.6041 29.508H71.5137V29.5984V29.6888L71.6041 29.8697V29.963H71.5137L71.6946 30.0534L71.6041 30.1438L71.5137 30.2343V30.3247L71.6041 30.4151L71.5137 30.6893H71.6041V30.7797H71.6946V30.8701L71.6041 31.051H71.6946V31.1414H71.7878L72.0591 31.4156H72.24H72.3333L72.5141 31.506H72.6046H72.9691V31.3251H73.15V31.2347L73.2404 31.1414H73.4213H73.5146H73.605H73.9667L74.0572 31.2347L74.2409 31.3251L74.3313 31.1414H74.4217V31.2347H74.6026V31.1414H74.693L74.7863 31.3251H74.8767L74.9672 31.2347H75.0576L75.148 31.051L75.2385 30.9606V30.8701V30.7797L75.3317 30.6893L75.2385 30.7797L75.148 30.6893L75.2385 30.5988H75.3317L75.5126 30.6893L75.6935 30.5988H75.7839V30.6893H75.6935L75.603 30.9606L75.7839 30.8701H75.8771V31.051H76.058V31.1414H76.2389L76.3293 31.3251L76.513 31.1414H76.6939H76.7843L76.8747 31.2347H76.9652V31.1414H77.0556L77.5106 31.051L77.6943 31.1414H77.7847L77.601 30.9606L77.6943 30.8701L77.8752 31.051L78.056 30.8701L78.1465 30.9606L78.2369 31.1414H78.4206L78.6015 31.2347L78.6919 31.506L78.8756 31.4156L78.966 31.2347H79.0564V31.4156H79.1469L79.3278 31.3251L79.6923 31.2347L79.7827 31.3251L79.8732 31.4156V31.2347V31.1414V31.051L80.0569 31.1414L80.1473 31.2347L80.0569 31.3251H80.1473L80.0569 31.4156L80.1473 31.506H80.0569L80.2377 31.5964L80.3282 31.4156L80.509 31.3251V31.2347H80.6927L80.8736 31.051L80.964 31.1414L81.0545 31.051L81.1449 31.1414L81.2382 31.2347L81.3286 31.1414L81.419 31.3251L81.5095 31.4156V31.506L81.5999 31.6869H81.7808V31.7801H81.874V31.8706H81.9645L82.0549 31.961V32.0514H82.1453H82.3262V31.961L82.4166 32.0514V32.1419L82.3262 32.2323V32.416H82.2358V32.5969L82.0549 32.6873L81.9645 32.7777L81.6903 32.9614V33.1423V33.2327L81.5999 33.3231L81.5095 33.504L81.5999 33.6877L81.5095 33.7781H81.7808V33.8686V33.959L81.6903 34.0494L81.5999 34.1427H81.6903L81.5999 34.3236V34.2331H81.5095V34.3236V34.5044V34.5949V34.6853L81.5999 34.7786L81.5095 34.869L81.5999 34.9594L81.5095 35.0499V35.1403V35.2307L81.419 35.4144L81.2382 35.5049V35.5953H81.1449V35.6857V35.7762V35.8666V35.9599H81.2382V36.0503L81.3286 36.1407V36.3216H81.5095V36.412L81.5999 36.5053V36.6861L81.6903 36.7766L81.7808 36.867L81.9645 37.0479H82.0549L82.1453 36.867L82.2358 36.7766L82.4166 36.5053L82.5099 36.412H82.6908V36.2312L82.7812 35.8666L83.3266 35.5049H83.5075L83.6007 35.4144L83.872 35.5049L84.0529 35.5953V35.6857H84.1433L84.4175 35.9599V36.0503V36.1407H84.5983V36.2312L84.6888 36.1407H84.7792V36.412H84.6888V36.5957L84.8725 36.412L84.9629 36.2312L85.1438 36.0503V35.9599H85.2342L85.3246 36.1407H85.4179V35.9599V35.8666L85.5083 35.7762V35.6857V35.5953H85.5988H85.6892V35.5049V35.4144L85.7796 35.324L85.8701 35.5049L85.9633 35.5953L86.0538 35.6857V35.7762H86.1442L86.0538 35.8666V35.9599L86.2346 36.0503H86.3251V36.1407L86.2346 36.2312L86.3251 36.5053L86.2346 36.6861L86.3251 36.7766V36.867L86.5059 37.1411V37.2316L86.6896 37.4124V37.5029L86.8705 37.5933L87.0514 37.6866L86.9609 37.777H86.8705V37.9579L86.7801 38.1387L86.5059 38.2292L86.5992 38.4129L86.7801 38.5033H86.9609L87.0514 38.6842L87.1418 38.7746L87.5968 39.1392L87.7805 39.0487L87.9613 38.9583L88.0518 39.0487L88.1422 38.9583H88.3259V38.8679V38.7746V38.6842L88.5068 38.7746L88.5972 38.6842H88.6876H88.7781L88.6876 38.7746L88.7781 38.8679L87.9613 39.5942L87.7805 39.775V39.9559H87.8709L87.7805 40.0463L87.3255 40.4109L87.0514 40.685L86.6896 41.2304L86.4155 41.5922L86.3251 42.0472L86.2346 42.1376H86.0538L85.6892 42.228L85.3246 42.4089L84.9629 42.5022L85.4179 42.7735L85.2342 43.2285H85.1438V43.4093V43.4998H85.0533L84.9629 43.593L84.8725 43.7739H84.327L84.0529 43.8643L83.6007 44.2289L83.2362 44.681L82.7812 45.5006L82.0549 46.6819L81.9645 47.2273V47.4082L81.874 47.3178L81.7808 47.4082L81.5999 47.4986V47.5891V47.6795L81.5095 47.8632L81.5999 47.9536L81.419 48.3182L81.2382 48.954L81.1449 49.0445L81.2382 49.1349H81.1449L81.0545 49.2253L80.964 49.1349V49.2253H80.8736H80.7832V49.1349H80.6927V49.0445L80.5995 48.954L80.509 48.8608L80.2377 49.0445V49.1349H80.1473H80.0569V49.2253H79.6019H78.1465H76.2389L76.4197 49.3158H76.3293H76.2389V49.2253H76.1484L76.058 49.3158L75.9676 49.4062V49.4966H75.8771L75.7839 49.5899H75.6935V49.6803H75.5126H75.4221L75.3317 49.4966H75.2385L75.148 49.6803H75.0576L74.9672 49.7708L74.7863 49.5899V49.4062L74.693 49.4966H74.5122V49.5899H74.4217L74.3313 49.4062L74.2409 49.4966L74.0572 49.4062L73.9667 49.4966H74.0572H73.9667L73.8763 49.6803V49.5899H73.7859V49.6803L73.6954 49.5899H73.605L73.5146 49.4966H73.4213L73.3309 49.5899H73.15V49.6803H72.9691L72.8759 49.7708L72.695 49.8612H72.6046H72.5141L72.6046 49.9516L72.5141 50.0421L72.3333 50.1353V50.2258V50.3162V50.4066H72.1496H72.24L72.1496 50.4971V50.5875L72.0591 50.4971V50.5875L71.9687 50.4971H71.8783L71.7878 50.5875V50.6779L71.8783 50.7712H71.7878H71.8783V50.8616H71.6946L71.7878 50.9521L71.6946 51.0425V50.9521H71.6041H71.5137L71.2424 51.1329L71.152 51.2234H71.0587V51.3166H70.9683V51.4071L70.8779 51.3166L70.9683 51.4071H70.8779V51.4975H70.7874V51.5879H70.6066H70.5133V51.6784L70.4229 51.5879V51.4975L70.3324 51.6784L70.1516 51.5879V51.7688V51.6784L70.0611 51.7688H69.9707L69.8774 51.8592V51.6784H69.787H69.6061L69.5157 51.8592L69.332 52.0429L69.2416 51.9525V52.0429L69.1511 52.1334H69.2416L69.1511 52.2238H69.0607L69.1511 52.4047V52.3142V52.4047L69.0607 52.4979H68.9703V52.5883L68.8798 52.4979L68.7894 52.5883L68.6961 52.4979V52.5883L68.6057 52.4047H68.5153V52.4979L68.6057 52.5883H68.5153H68.4248H68.3344H68.4248L68.3344 52.7692L68.1507 52.6788L67.9698 52.4047V52.5883H67.8794V52.4979H67.789H67.6985V52.5883L67.6081 52.4047H67.5149V52.3142V52.4047H67.4244L67.2436 52.3142L67.334 52.2238V52.0429H67.2436V52.2238L67.0627 52.3142V52.2238V52.1334H66.9694V52.0429H66.879V52.1334L66.7886 52.0429L66.6981 52.1334L66.6077 52.0429H66.5173L66.6981 51.8592H66.5173L66.4268 51.6784L66.2431 51.5879L66.0623 51.7688H65.9718L65.8814 51.5879L66.0623 51.4071H65.8814H65.6977V51.1329L65.5168 51.0425L65.4264 50.8616H65.336V50.9521H65.4264V51.1329H65.336L65.2455 50.8616L65.1523 50.9521V51.0425L64.9714 50.9521L64.881 50.6779L64.7905 50.7712H64.7001L64.6097 50.5875V50.4066L64.5164 50.4971H64.426L64.6097 50.4066V50.2258L64.5164 50.1353V50.3162H64.426L64.3355 50.2258H64.2451L64.1547 50.1353L64.0642 50.0421L64.1547 49.9516L63.7901 49.8612L63.6997 49.9516L63.6092 49.8612L63.5188 49.7708L63.2447 49.8612L63.1543 49.7708L63.2447 49.6803L63.1543 49.5899L62.9734 49.6803L62.883 49.7708L63.0638 49.8612L62.6993 50.2258L62.7897 50.0421V49.7708L62.6993 49.6803L62.428 49.5899V49.6803H62.2471V49.7708L62.3375 49.9516L62.2471 50.0421L61.973 49.8612H61.8825H61.7921L61.6084 49.9516H61.518H61.4275L61.3371 50.0421V50.1353V50.0421L61.2467 49.7708L61.1562 50.0421L60.8821 50.2258L60.7917 50.1353L60.7012 50.3162L60.5204 50.0421L60.3367 50.2258V50.1353L60.4271 49.8612L60.3367 49.7708L60.1558 49.8612L60.0654 49.7708L59.9749 49.8612L59.8845 49.9516H59.9749L60.0654 50.0421H60.1558V49.9516L60.2462 50.0421L60.1558 50.2258L60.0654 50.3162L59.9749 50.4066L59.8845 50.4971L59.7913 50.4066V50.3162H59.6104L59.52 50.2258H59.4295L59.3391 50.3162L59.2458 50.1353V49.9516L58.9745 49.8612V49.9516V50.1353L58.7937 50.0421L58.61 50.1353L58.3387 50.2258L58.0645 50.4066V50.5875H57.8837L57.9741 50.7712V50.8616L57.8837 50.9521L57.9741 51.0425V51.1329H57.8837V51.2234H58.0645V51.3166L57.9741 51.2234L57.8837 51.3166L57.7932 51.2234L57.6124 51.1329L57.5219 51.0425V50.9521L57.4287 51.0425V50.9521L57.5219 50.7712L57.4287 50.5875L56.9765 50.3162V50.2258L56.8832 50.3162H56.7928H56.7024H56.5215L56.4311 50.1353L56.3378 50.0421L56.4311 49.9516L56.2474 49.8612V49.9516V49.8612H56.0665V49.7708H55.9761V49.9516L55.8857 49.8612H55.9761H55.7952L55.702 49.7708L55.6115 49.8612L55.5211 49.7708L55.3402 49.8612L54.9757 50.0421V49.9516V49.7708H54.8852L54.7948 49.4966H54.7044L54.4302 49.7708V50.0421L54.5207 50.1353H54.6139L54.7948 50.0421H54.8852H54.9757V50.2258L54.8852 50.3162H54.7948L54.5207 50.4066H54.3398L53.9781 50.3162L53.7944 50.4971L53.7039 50.6779L53.5231 50.8616L53.7039 51.2234H53.6135L53.5231 51.3166L53.3394 51.4071L53.2489 51.4975L53.1585 51.6784L52.9776 51.9525L52.8872 52.0429L52.5226 52.2238L52.7968 52.7692L52.7035 52.8596H52.5226H52.3418V52.5883L52.2513 52.4979L51.7059 52.5883L51.6155 52.6788L51.5222 52.7692L51.3414 52.8596L51.2509 53.1338L51.1605 53.2242L51.0701 53.1338L50.7959 52.7692H50.7055L50.6151 53.0405L50.5246 53.3146L50.4342 53.4051H50.3409H50.1601V52.9501L49.8888 52.6788H49.7983L49.7051 52.7692L49.8888 53.1338L49.7983 53.3146H49.7051L49.6146 53.1338H49.3433V52.8596L49.0692 52.6788L48.9788 52.5883L48.2525 52.8596L48.162 52.7692L47.8879 52.5883L47.7975 52.8596H47.7071V53.0405L47.6166 53.1338L47.5262 53.2242L47.3425 53.3146H47.1616V53.4051H47.0712L46.9808 53.3146L46.7971 53.4051V53.4955H46.7066L46.5258 53.5859H46.3449H46.2545H46.1612L46.0708 53.7696L45.9803 53.8601L45.709 53.9505V54.0409H45.6158L45.5253 54.2218H45.6158V54.3151L45.4349 54.4959L45.5253 54.5864L45.6158 54.6768L45.3445 54.7672L45.254 54.8577V55.0414L45.0732 54.9509V55.0414L45.1636 55.1318L44.9799 55.2222V55.3127L45.0732 55.4964L45.3445 55.5868L45.254 55.6772V55.7677H45.3445H45.4349L45.6158 55.8581L45.5253 55.9485L45.6158 56.039L45.4349 56.1322V56.2226H45.3445V56.3131V56.4035L45.4349 56.4939L45.5253 56.6776H45.6158L45.709 56.8585H45.7995V56.9489L45.9803 57.0394L45.8899 57.1298V57.2202L46.0708 57.3135L45.9803 57.4039V57.4944V57.6752L45.7995 57.7657L45.8899 57.9494L45.7995 58.0398V58.1302H45.5253L45.4349 58.2207H45.254V58.3111H45.1636V58.4948H44.8895L44.799 58.4015L44.6182 58.4948V58.4015H44.5277L44.2536 58.4948H44.0728L43.8919 58.5852H43.7082L43.5273 58.7661L43.7082 58.947V59.1307L43.6178 59.2211L43.4369 59.3115L43.5273 59.1307L43.1628 58.947L43.0723 58.6757L42.8915 58.4948V58.3111L42.801 58.1302L42.7106 58.0398H42.6173H42.4365L42.5269 57.8589L42.4365 57.7657L42.346 57.5848L42.1652 57.4944L41.891 57.5848H41.1647H40.9839H40.7098H40.5289L40.348 57.4039L40.0739 57.2202L39.7093 57.4944H39.5285L39.1667 57.4039L38.4376 57.5848H38.2567L37.9854 57.4944L37.7113 57.6752L37.5304 57.5848L37.3467 57.7657H37.2563L37.1659 57.6752V57.5848L36.8946 57.4944H36.53L36.2587 57.3135L36.1683 57.4039L35.9846 57.3135H35.8037V57.2202L35.4392 57.3135L35.3487 57.1298V57.0394H35.1679V56.9489L34.9842 56.8585L34.8937 56.7681H34.8033L34.7129 56.6776H34.532L34.4416 56.4939H34.3483L34.2579 56.4035V56.1322L34.077 56.039H33.8961L33.8057 55.9485H33.622H33.4411L33.0766 55.5868L32.8957 55.7677L32.6216 55.8581H32.3503L32.2599 55.7677H32.1694H32.079L31.8953 55.8581H31.8049V55.7677L31.5336 55.4964H31.2594L31.0786 55.5868L30.9881 55.4031L30.8977 55.5868L30.714 55.4031L30.5331 55.4964H30.4427L30.3523 55.4031L30.259 55.3127L30.1686 55.4031L29.9877 55.4964H29.8973H29.6231H29.5327H29.4423H29.3518L29.171 55.2222H28.9873L28.6256 54.9509L28.3514 55.0414L28.1706 55.1318L28.0801 55.0414L27.9897 55.1318L27.806 55.0414L27.6251 55.2222L27.5347 55.1318H27.4443H27.3538V55.0414L27.2606 54.9509L27.0797 54.8577V54.7672L26.9893 54.6768L26.8084 54.5864L26.5343 54.3151L26.263 54.4055H26.1725L26.0821 54.3151L25.9888 54.4055L25.8984 54.2218L25.7175 54.1314L25.6271 54.2218H25.5367L25.4434 54.3151H25.353L25.1721 54.2218L24.9912 54.3151H24.898L24.8076 54.2218H24.7171H24.5363H24.3554H24.2621L23.9004 54.4055H23.81H23.7195H23.6263H23.4454L23.355 54.3151L23.1741 54.4055H23.0808L22.9 54.4959L22.3545 54.2218L21.8091 54.5864L21.5378 54.6768L21.1733 54.8577H20.9924L20.902 54.7672L20.8115 54.6768H20.7183L20.5374 54.5864L20.447 54.4959L20.3565 54.4055L20.2661 54.2218H20.1757L20.0824 54.3151H19.992L19.9015 54.2218H19.7207L19.537 54.0409H19.4465V53.9505L19.0848 53.7696L18.9011 53.5859H18.8107V53.4955L18.7202 53.4051V53.3146L18.5394 53.0405H18.4489V52.8596L18.0844 53.0405H17.9939L17.9035 52.9501H17.7198V52.8596H17.6294H17.5389V52.9501L17.4485 52.8596L17.3581 52.9501L17.1744 52.7692L17.084 52.8596L16.5385 53.2242L16.4481 53.3146H16.2672L15.9931 53.4955H15.9027H15.8122L15.5409 53.5859L15.1764 53.4955H14.8146V53.4051L14.5405 53.2242H14.4501L14.3596 52.9501L14.0855 53.0405H13.9046H13.8142L13.6305 52.9501L13.5401 52.8596H13.6305L13.5401 52.7692L13.4497 52.6788L13.6305 52.4047L13.4497 52.3142V52.1334H13.3592L13.1784 51.8592L13.0879 51.7688L12.8138 51.5879L12.7234 51.4071L12.6329 51.2234H12.5425L12.2684 51.0425V50.9521L12.3588 50.8616L12.2684 50.6779L12.3588 50.4066H12.4521V50.3162V50.2258L12.3588 50.0421H12.2684H12.1779V49.9516L12.0875 50.0421V49.9516V49.8612L11.9971 49.9516L11.9066 49.8612V49.7708H11.7229L11.8134 49.6803H11.7229L11.8134 49.5899L11.6325 49.4966V49.4062L11.5421 49.4966L11.4516 49.4062V49.3158V49.2253L11.3612 49.3158H11.2679V49.2253V49.1349L10.9966 49.0445V48.954H11.0871L10.9966 48.8608L10.9062 48.499H10.9966H11.0871V48.3182L11.1775 48.499H11.2679L11.1775 48.3182L11.2679 48.2249H11.1775L10.9966 48.3182L11.0871 48.1345H11.1775L11.2679 48.0441H11.1775H10.9966V47.9536V47.8632L10.9062 47.9536L10.8158 47.8632H10.9966V47.7728H11.0871L11.1775 47.6795H10.9966L11.0871 47.4986H10.9062H10.9966V47.4082L10.9062 47.2273L10.8158 47.3178V47.2273L10.9062 47.0436H10.9966V46.9532L11.0871 46.8628L11.2679 46.9532V46.8628H11.0871L11.1775 46.6819V46.5915H10.9062L11.0871 46.4982V46.4078L10.9062 46.3173L10.7253 46.2269L10.8158 46.1365H10.9966L10.9062 46.046H11.0871L10.8158 45.8623L10.6321 45.9556L10.7253 45.6815V45.591H10.5416L10.6321 45.5006L10.4512 45.4102H10.6321L10.5416 45.2265L10.7253 45.3169V45.4102L10.8158 45.3169V45.2265L10.9062 45.136L10.7253 45.0456V44.9552L10.6321 44.7715L10.4512 44.681L10.2703 44.7715L10.3608 44.5906H10.4512V44.5002L10.3608 44.5906L10.2703 44.5002L10.3608 44.3193L10.2703 44.2289L9.99622 44.4097V44.3193L9.90578 44.4097V44.3193L9.99622 44.2289L9.90578 44.1356L9.72492 44.2289H9.63448V44.1356H9.54405V44.2289H9.45079L9.54405 44.4097L9.45079 44.5906L9.36035 44.5002V44.3193L9.26992 44.1356H9.17949H9.08905V44.0452L9.17949 43.9548L8.90536 43.7739L8.81493 43.6835L8.72449 43.4998L8.54363 43.4093L8.45319 43.4998L8.2695 43.6835L8.17906 43.7739L7.9982 43.593L7.90776 43.4093H7.7269L7.63364 43.6835V44.1356H7.5432V44.2289L7.36234 43.9548L7.18147 43.4998V43.3189L7.5432 42.8639V42.5926L7.45277 42.5022H7.36234L6.90734 42.8639L6.63604 43.138H6.54278L6.27148 43.0476L6.09061 43.138L6.00018 43.3189H6.09061L6.45235 43.4998V43.593L6.54278 43.6835H6.45235H6.18105L5.81649 43.4093H5.72605L5.63562 43.4998V43.8643H5.45475L5.27106 43.6835L5.09019 43.3189H4.90932L4.45433 43.593L4.18303 44.0452H4.08977L3.81847 43.8643L3.6376 43.9548V44.0452V44.2289L3.54434 44.4097L3.09217 44.7715L3.18261 45.136L3.09217 45.2265H3.00174L2.81804 44.7715L2.54674 44.4097L2.36588 44.3193L2.09175 44.1356L1.82045 44.3193H1.72719L1.63675 44.1356L1.72719 43.9548L1.54632 43.8643L1.36545 43.7739H1.27502L0.910459 43.8643V43.138L0.820025 42.8639V42.3185L0.545898 42.1376V41.9567V41.8663L0.729592 41.773Z" fill="#D784B6" stroke="white"/>
</svg>
