<svg width="100" height="64" viewBox="0 0 100 64" fill="none" xmlns="http://www.w3.org/2000/svg">
<path fill-rule="evenodd" clip-rule="evenodd" d="M1.46411 32.4928L1.38867 32.4197V32.3442V32.2711L1.46411 32.1247L1.68358 31.8298L1.90534 31.6104L1.9785 31.5372L2.41972 31.3886L2.49288 31.3155L2.63919 31.096L3.08041 30.8742H3.15357L3.22673 30.8011L3.81655 30.6548L4.10917 30.5084H4.18233L4.33093 30.2135L4.69671 29.9186L4.76987 29.7723L5.35969 29.4042L5.57916 29.3311L5.87407 29.1116L6.3153 28.963L6.53477 28.8167L6.68108 28.7435L6.90283 28.5972L7.1223 28.3755L7.49037 28.3023L7.78528 28.156L8.00475 28.0806L8.07791 28.0074H8.15335L8.22651 27.8611L8.44598 27.6416L8.51913 27.5662L9.03351 27.2004L9.10667 26.9786L9.18211 26.9055L9.32842 26.7592L9.69649 26.2448L9.98912 25.2892L10.0646 25.0674L10.4303 24.6262H10.5789V24.5531L10.7253 24.4799L10.8716 24.2581L11.3859 23.8924L11.4591 23.6706V23.5243L11.6809 23.0099L11.9003 22.8636L12.3416 22.715L12.4147 22.5687L12.5633 22.4224L12.8559 21.908V21.8326V21.6131L12.7096 21.3182V21.0987L12.3416 20.8038L12.2684 20.6575L12.4147 20.4357L12.5633 20.1431L12.7096 20.0699H12.7828L13.224 20.1431H13.4458L13.7384 19.9968L13.8115 19.9213L13.9601 19.7019L14.1796 19.4824L14.2528 19.2606L14.3259 19.0412L14.4014 18.7463L14.8403 18.3782L14.9157 18.305V18.2319V18.1587V18.0856L14.9889 17.7907L15.0621 17.4226L14.9889 17.3494L14.9157 16.9082L14.7671 16.6887L14.694 16.6156L14.7671 16.467L14.694 16.0989L14.7671 15.9526L14.8403 15.8795H15.1352L15.357 15.8063H15.4301L15.5033 15.66L15.7227 15.5845L15.8713 15.2188V14.997L16.0177 14.7775L16.0908 14.5558L16.3857 14.1877L16.532 14.1146H16.9733H17.0464L17.4876 13.8219L17.5608 13.6733L17.634 13.1589L17.4876 13.0126L17.4145 12.7932V12.4251L17.4876 12.057V11.9839V11.9107L17.3413 11.689L17.4145 11.3232L17.7826 10.5139L17.8557 10.4407L17.9289 10.3676V10.2921L18.002 10.219L18.0752 10.1458L18.5896 9.85091L18.8113 9.63144L18.8845 9.41197L19.2525 8.82215L19.3989 8.67583L19.6938 8.45637L19.8401 8.38092V8.30777L20.2081 7.64707L20.3545 7.57392L20.4276 7.279L20.5008 7.20585H20.5739L20.7957 7.05954L21.0152 6.91094L21.6781 6.76462H22.1194L22.412 6.69147L22.6337 6.61831H22.7069L22.8532 6.54516L23.0018 6.39656L23.1481 6.3234L23.5162 6.03077L23.5893 5.88218L23.7357 5.44095L23.9551 4.92657L24.25 4.33903V4.19272L24.6181 3.67834V3.6029H24.7644H24.8376L24.9862 3.45658L25.2056 3.31027V3.16167H25.352H25.5006H25.6469L25.8663 2.9422L25.9418 2.86905L26.2344 2.79589L26.4562 2.64729V2.57414H26.6025L27.19 2.42782L27.7044 2.28151H27.7775L27.9261 2.20835H27.9993L28.2188 1.84029L28.3674 1.69169L28.5137 1.61853L28.7332 1.3259L28.8086 1.17731H28.9549H29.1744L29.323 1.03099L29.4693 0.957836H29.6888L29.8374 0.88468L29.9837 0.811523L30.13 0.88468L30.3517 0.957836L30.5712 1.03099L31.0124 1.54537L31.2342 1.61853V1.76713H31.4537L31.6 1.84029H31.6754L31.968 1.76713L32.4093 1.91344L32.7042 1.76713H32.9236L33.2186 1.84029L33.2917 1.91344H33.3649L33.5866 1.84029H33.9524H34.0256L34.101 1.91344L34.2473 1.9866L34.5422 2.28151L34.6154 2.35467H34.7617L34.908 2.42782L35.4978 2.35467L36.0854 2.57414L36.2317 2.64729H36.4534H36.6729L36.8947 2.50098L37.3336 2.42782H37.409H37.7748H37.848L38.216 2.50098H38.9522H39.0985V2.42782L39.3203 2.35467L39.6129 2.28151H39.8346L39.9078 2.20835L40.2004 2.28151L40.4222 2.35467L40.5685 2.64729L40.6416 2.72273L40.9366 3.01536H41.156L42.0385 3.08852L42.2602 3.01536L42.4797 2.86905L42.7014 2.79589L43.0672 2.86905H43.1427L43.2158 2.9422V3.08852V3.23711L43.0672 3.31027H42.8478L42.7014 3.45658L42.5528 4.04412V4.33903V4.41219L42.626 4.5585V5.14833L42.9941 5.80902L43.0672 6.03077V6.17709L43.3621 6.61831H43.4353L43.8034 6.69147L43.9497 6.76462H44.0228V6.69147L44.4641 6.39656L44.6127 6.25024L44.9053 5.58955L45.2002 4.99973L45.2733 4.92657H45.5683L45.7146 4.99973L46.0095 5.07288L46.0826 5.22148L46.229 5.58955L46.3021 6.17709V6.39656L46.229 7.64707L46.3021 7.72023L46.9628 8.16145H47.1114L47.1846 8.0883L47.3309 7.79339V7.72023V7.57392V7.50076L47.1846 7.13269L47.2577 6.76462L47.1114 6.54516V6.46971V6.25024L47.2577 5.95533L47.404 5.80902L47.4795 5.73586V5.66271L47.404 5.51411L47.4795 5.29464L47.5526 5.22148L47.7721 5.07288H47.8453H48.2865L48.5814 4.99973L48.8009 4.92657H48.874L49.2421 5.07288H49.4638L49.537 5.14833H49.7565L49.9782 5.07288L50.2708 4.78026L50.4194 4.7071H50.7121L50.9338 4.78026H51.1533H51.4482L51.8163 4.63394H51.9626L52.3307 4.5585L52.6233 4.63394H52.6964H52.845H52.9182L53.0645 4.5585H53.2863L53.5057 4.63394L53.652 4.78026L53.7275 4.85341H53.8006H53.8738H54.0933L54.2419 4.78026H54.315L54.3882 4.63394V4.5585L54.0201 4.19272V4.11956L54.0933 3.7515L54.0201 3.67834L54.0933 3.6029H54.315L54.3882 3.67834L54.5345 3.7515L54.7562 4.11956L54.8294 4.33903L54.9026 4.41219H54.9757H55.0489L55.122 4.63394L55.3438 4.7071L55.4901 4.85341L55.7119 4.92657H55.9313L56.2262 4.78026L56.2994 4.5585L56.5189 4.63394L56.6675 4.41219L56.7406 4.26588L56.8138 4.11956V3.7515L56.8869 3.67834H56.9601L57.255 3.89781L57.3282 4.26588L57.4745 4.48535L57.7694 4.63394H57.8425L58.0643 4.41219L58.1374 4.26588V4.11956V3.97096L58.2106 3.82465V3.7515L58.1374 3.67834H58.0643V3.6029V3.52974V3.45658L58.1374 3.38343L58.2838 3.16167H58.3569L58.5055 3.23711L58.8713 3.08852H59.2394L59.4611 3.16167L59.6074 3.08852L59.8269 3.01536H59.9001L60.2681 3.31027V3.38343V3.45658L60.4167 3.6029L60.4899 3.67834L60.6362 3.82465L60.7825 3.7515H60.9311L61.1506 3.52974V3.31027L61.2969 3.23711H61.5918V3.16167L61.7381 3.08852H62.033L62.1793 2.9422H62.3279L62.4011 2.86905L62.4742 2.79589V2.86905L62.6937 3.08852L62.8423 3.23711L62.9155 3.38343V3.45658V3.52974L62.7669 3.6029V3.67834V3.82465L63.0618 3.97096L63.1349 4.19272H63.2081H63.503L63.6493 4.41219H63.7979L63.9442 4.5585L64.2391 4.63394L64.3855 4.92657L64.6049 4.99973H64.6781L64.7535 5.14833V5.36779H64.8267L64.8998 5.51411L65.0461 5.73586V5.80902L64.8998 6.17709H64.8267L64.6781 6.39656H64.6049L64.5318 6.54516V6.76462H64.4586V6.91094V6.98409H64.3855L64.4586 7.05954L64.3123 7.13269L64.3855 7.35216V7.42532V7.50076V7.57392H64.4586L64.3855 7.72023L64.4586 7.79339L64.3855 7.86654H64.4586L64.3855 7.9397H64.4586L64.3855 8.01514V8.0883H64.4586V8.16145L64.3855 8.23461V8.30777L64.6049 8.45637H64.7535L64.8267 8.60268L65.0461 8.67583L65.2679 8.8953H65.4142L65.5605 8.97075L65.8554 9.0439L65.9286 9.19022H66.0018V9.33653L66.0749 9.48513L66.0018 9.55828L66.1481 9.85091H66.2235V9.92635V9.99951V10.0727L66.3698 10.1458V10.219V10.3676L66.5161 10.4407V10.5139V10.587L66.443 10.7334V10.882L66.3698 11.0283L66.2967 11.1014V11.1746H65.9286L65.7823 11.1014L65.7091 11.1746V11.2477L65.5605 11.3963L65.6337 11.5427H65.5605L65.4874 11.8376L65.4142 11.9107H65.3411L65.2679 12.1302L65.1193 12.2033L65.2679 12.4983L65.1193 12.7932L64.973 13.1589L65.1193 13.4539L65.2679 13.6002H65.4874V13.7488L65.5605 13.8951H65.7091L65.7823 14.0414L65.9286 14.1146L66.0018 14.1877L65.9286 14.4095V14.5558L65.8554 14.6289L65.9286 14.8507L66.0018 15.0702L66.0749 15.2188L66.0018 15.4382H66.0749L66.1481 15.5114L66.3698 15.5845V15.66H66.2235V15.7331V15.8063L66.0749 15.8795L66.2967 16.0989L66.2235 16.3207L66.2967 16.3938V16.467L66.443 16.6887L66.5161 16.8351V16.7619H66.5893H66.811H66.8842L66.811 16.8351V16.9082L66.7379 16.9814V17.13L66.8842 17.0545L66.9574 17.2031H67.0305V17.2763L67.106 17.4226V17.5712V17.6444L67.2523 17.7907L67.1791 17.8638H67.2523L67.3254 18.0101V18.0856L67.3986 18.2319L67.5449 18.305L67.6203 18.3782L67.5449 18.4514L67.4717 18.5268L67.5449 18.6731L67.4717 18.8194H67.3986L67.4717 18.9657V19.0412H67.3986L67.4717 19.1143H67.5449L67.6203 19.1875L67.6935 19.1143V19.1875L67.8398 19.1143H67.913H67.9861L68.0593 19.1875L68.1347 19.1143L68.281 19.1875L68.3542 19.1143L68.4273 19.1875V19.1143H68.5759L68.6491 19.0412H68.7223L68.7954 18.9657L69.0149 18.8926V18.8194H69.0903V18.7463H69.2366L69.3098 18.6731V18.6L69.3829 18.5268H69.5315L69.8242 18.6L69.8973 18.5268L69.9705 18.4514H70.1191H70.1922L70.1191 18.6L70.1922 18.6731L70.4117 18.8194H70.5603V18.7463L70.6335 18.8194L70.7066 18.9657L70.8529 18.7463L70.9261 18.6731L71.0015 18.6H71.0747L71.1478 18.4514H71.221H71.3673V18.6V18.6731V18.7463V18.8194L71.4428 18.8926L71.5159 19.0412H71.5891L71.6622 19.1143V19.1875H71.7354L71.6622 19.2606L71.7354 19.3338L71.8817 19.407V19.3338L72.1766 19.1875V19.2606L72.3229 19.3338H72.4715L72.6178 19.407H72.691H72.7641V19.4824V19.5556L72.8373 19.6287V19.775L72.9127 19.8482L72.7641 19.9968V20.1431L72.691 20.2163L72.7641 20.3626L72.8373 20.4357L72.9859 20.5843V20.6575H72.9127L72.8373 20.7306V20.8038L72.7641 20.9524V21.0255L72.691 21.0987L72.7641 21.1719V21.245L72.6178 21.3182V21.4668H72.4715L72.3961 21.5399L72.4715 21.6862H72.3961L72.2498 21.7594V21.9812L72.1035 22.0543L71.6622 21.9812V22.1275L71.5891 22.2006V22.2738L71.6622 22.4224L71.5891 22.5687V22.6418V22.715V22.9368V23.0099H71.4428L71.3673 23.0831H71.2942L71.3673 23.2294L71.1478 23.4511V23.5243L71.0015 23.5975L70.9261 23.7438L71.0015 23.8924H71.0747H71.1478L71.2942 24.1118V24.185L71.3673 24.2581L71.2942 24.4067L71.221 24.4799H71.1478L71.0747 24.5531L71.221 24.6994L71.1478 24.848L71.2942 24.9211V25.0674L71.4428 25.2892L71.5159 25.3623H71.5891L71.6622 25.5087L71.7354 25.5818V25.655V25.7304V25.8036H71.6622L71.4428 25.655L71.3673 25.7304H71.2942V25.8036L71.221 25.8767L71.0747 25.8036V25.8767H71.0015L70.9261 26.023L71.0747 26.1694L71.221 26.2448V26.318L71.0015 26.3911H70.8529L70.7066 26.4643L70.6335 26.3911H70.5603V26.4643V26.5374L70.6335 26.6106H70.7066H70.7798H70.8529H70.9261H71.0015L71.1478 26.686L71.3673 26.6106L71.5159 26.7592L71.6622 26.8323L71.7354 27.0518H71.8817V27.1272L71.7354 27.2736L71.4428 27.3467L71.3673 27.5662H71.221H71.1478H71.0747L71.1478 27.6416L71.0015 28.0074L71.0747 28.0806L70.8529 28.2292L70.9261 28.3755L70.8529 28.3023L70.7798 28.4486L70.7066 28.5218V28.5972L70.7798 28.6704L70.7066 28.7435L70.7798 28.8899L70.6335 29.0362H70.5603L70.6335 29.1116H70.7066V29.1848H70.7798V29.2579L70.8529 29.3311V29.4042V29.4774H70.9261V29.5528H71.0015L71.0747 29.6992H71.221L71.1478 29.8455L71.221 29.9186L71.1478 30.1404V30.2135L71.3673 30.2867V30.3598H71.4428L71.5159 30.433L71.7354 30.5084V30.433L71.8817 30.5084H71.9571H72.1035L72.1766 30.5816V30.6548L72.2498 30.5816H72.3961L72.4715 30.6548L72.3961 30.7279V30.8011H72.4715L72.6178 30.8742V31.0228L72.5447 31.096L72.9127 31.2423V31.3886L73.0591 31.3155L73.1322 31.3886H73.354H73.5003V31.5372H73.6466V31.6104L73.7929 31.6835H73.8683L73.9415 31.6104V31.7567L73.7197 31.9784V32.1247H73.9415L73.7929 32.2711L74.0147 32.4928L73.7929 32.566V32.6391L73.8683 32.7123H74.0147L74.0878 32.7854L74.161 32.8586V33.0072L74.0147 33.0803H73.9415L74.0147 33.0072L73.9415 32.934L73.8683 33.0072L73.7197 32.934L73.6466 33.0072L73.4271 33.0803V33.1535L73.2785 33.0803L73.2054 33.1535V33.2267L73.2785 33.2998L73.2054 33.3753L73.2785 33.4484H73.4271L73.5003 33.6679H73.6466V33.741L73.7929 33.8142V33.741L74.0147 33.8896H74.161L74.2341 33.8142V33.8896H74.3073L74.4559 34.1091L74.529 34.0359H74.7485V34.1091L74.6754 34.1823V34.2554H74.6022V34.3286L74.4559 34.404L74.3073 34.6966V34.8452L74.3827 34.9184L74.3073 34.9916L74.3827 35.211H74.2341V35.2842H74.3073V35.3596L74.3827 35.4328L74.4559 35.5791L74.6754 35.6523L74.7485 35.5791L74.9703 35.5059L75.1897 35.5791L75.3383 35.3596H75.4846H75.5578V35.5059H75.7041L75.7796 35.5791L75.8527 35.4328L76.2185 35.2842L76.2939 35.211L76.3671 35.2842L76.7352 35.211L76.8083 35.1379V35.211L76.8815 35.4328V35.5059L76.8083 35.7254L76.7352 35.8008L76.8815 35.874L77.0278 35.7254H77.1764L77.3227 35.5791L77.5422 35.5059L77.8371 35.5791L78.0565 35.4328L78.2783 35.5059L78.3515 35.4328L78.4978 35.3596V35.2842L78.6464 35.211L78.7927 35.1379L78.8658 35.0647L78.939 34.9916H79.0876L79.2339 34.8452V34.7698L79.3802 34.6966H79.4534L79.3802 34.8452V34.9184H79.5265V34.9916V35.1379H79.602V35.211V35.3596H79.6751L79.8214 35.2842H79.8946V35.211V35.0647H79.9678L80.0409 34.9184H80.1164H80.2627V34.8452L80.409 34.9184V34.8452L80.5576 34.9184V35.0647L80.6307 35.1379H80.7039L80.8502 35.0647L80.9234 34.9916V34.9184L80.8502 34.5503H80.9965L81.072 34.404L81.1451 34.4772L81.2183 34.6235H81.2914L81.3646 34.6966H81.5132V34.6235H81.4377L81.3646 34.5503L81.2914 34.4772V34.404L81.3646 34.2554H81.4377L81.5132 34.1823V34.0359H81.4377V33.8896L81.2914 33.6679H81.072H80.9965L80.7771 33.741L80.5576 33.8142H80.4821L80.3358 33.6679L80.409 33.3753L80.7039 33.2998L80.7771 33.2267L80.9965 33.1535V33.0803H81.072L81.1451 33.0072V32.934H81.2914L81.4377 33.0072L81.5132 32.934L81.7327 32.8586H81.6595V32.7854L81.5132 32.7123L81.4377 32.4928H81.2914V32.4197L81.2183 32.3442L81.2914 32.2711L81.3646 32.1979V32.1247L81.4377 32.0516L81.6595 32.1247L81.879 31.9784L82.0276 32.0516V32.1247L82.1007 32.2711H82.0276L81.9521 32.4197H82.0276L81.879 32.566V32.6391L81.8058 32.7123L81.9521 32.8586H82.0276L82.1739 32.7854L82.5419 32.7123L82.6883 32.4928H82.8346L82.9077 32.4197H82.8346L82.9832 32.2711V32.4197H83.1295L83.2026 32.566L82.9832 32.7123L82.9077 32.7854V32.8586L82.9832 32.934L83.2758 32.8586H83.349L83.4244 32.7854H83.4976L83.7902 32.566L83.9388 32.6391L84.0851 32.2711L84.0119 32.1979H84.0851L84.3046 32.3442H84.38L84.4532 32.4197L84.5263 32.4928H84.6726L84.7458 32.566L84.8189 32.6391L84.7458 32.8586H84.8944H84.9675L85.187 32.7123H85.3333L85.4088 32.566H85.5551L85.6282 32.4928L85.9963 32.4197L86.2158 32.4928L86.2912 32.4197H86.3644V32.3442L86.4375 32.1979L86.3644 32.1247L86.7302 31.903H86.8056L86.9519 31.8298H87.0251L87.32 31.7567L87.4663 31.6104L87.3931 31.5372V31.464L87.4663 31.3886L87.6126 31.2423H87.6858L87.8344 31.1691L87.9075 31.096H87.9807L88.127 31.0228L88.2001 30.9474L88.3487 31.0228L88.5682 30.8742L88.79 30.8011L88.9363 30.7279V30.8011H89.0826H89.2312H89.3043L89.597 30.8742L89.6724 30.8011L89.8919 30.6548H90.1868H90.3331L90.4063 30.433L90.5526 30.3598L90.628 30.2867H90.7012L90.7743 30.3598H90.9206H90.9938L91.1424 30.2867L91.2887 30.2135V30.1404H91.5813L91.7299 30.2135H91.8762L92.0226 30.3598L92.1712 30.5084L92.2443 30.8011V30.8742L92.1712 31.0228L92.2443 31.096H92.3175V31.1691V31.3155H92.4638L92.5392 31.3886H92.6124L92.6855 31.464L92.7587 31.6104L92.6855 31.6835V31.8298L92.905 31.7567L92.9782 31.8298L93.0536 31.7567L93.1268 31.8298L93.0536 32.0516V32.1247V32.3442H93.1268L93.1999 32.4197L93.2731 32.3442L93.4194 32.4928L93.4925 32.4197V32.3442L93.568 32.4197L93.6411 32.566H93.7143L93.8606 32.2711L93.9338 32.4197L94.0824 32.3442L94.2287 32.4928H94.3018H94.375L94.2287 32.6391V32.7123H94.3018L94.2287 32.6391H94.3018H94.4504L94.5236 32.7123H94.5967L94.8162 32.4197L94.7431 32.3442H94.8162L94.8894 32.4197L95.038 32.4928L95.1111 32.4197H95.1843L95.2574 32.3442L95.4038 32.2711H95.5524L95.6255 32.3442H95.6987V32.2711L95.6255 32.1979V32.1247L95.7718 32.0516V31.9784H95.845L95.9936 32.0516H96.0667H96.1399L96.0667 32.1979H96.1399V32.4197H96.213H96.2862L96.213 32.2711V32.1979L96.2862 32.2711V32.1979V32.1247L96.3616 32.1979L96.508 32.1247L96.5811 32.2711L96.6543 32.1979L96.7274 32.2711H96.8006H96.876L96.9492 32.4197V32.3442L97.0955 32.2711L97.315 32.4197L97.3904 32.3442H97.5367H97.6099L97.683 32.4928L97.7562 32.4197H97.8316V32.566L97.9048 32.6391H97.9779L98.0511 32.7123L97.9779 32.7854L98.1243 32.934L98.2729 33.0803V33.1535V33.2267L98.1974 33.2998H98.1243V33.4484L98.0511 33.5216L97.9048 33.5947H97.8316V33.6679H97.9048L97.8316 33.741H97.6099L97.3904 33.9628L97.4636 34.0359H97.315L97.2418 34.1823V34.2554L97.315 34.3286L97.2418 34.404H97.3904V34.4772V34.5503H97.2418L97.0955 34.8452L96.9492 34.9184V34.8452H96.8006L96.5811 34.9916V35.0647H96.508L96.5811 34.9916L96.508 34.9184L95.9936 35.1379H95.845H95.7718H95.6987V35.0647H95.5524H95.4792L95.4038 35.1379L95.3306 35.2842L95.2574 35.3596H95.1843L94.9648 35.4328V35.3596H94.8894V35.2842H94.8162L94.8894 35.1379L94.8162 35.0647H94.6699H94.5967L94.4504 35.211L94.3018 35.2842L94.1555 35.4328L94.0092 35.5059L93.7875 35.3596L93.568 35.5059H93.4925L93.1999 35.6523L93.1268 35.7254V35.8008L92.905 35.9472L92.7587 35.8008L92.6124 36.0203H92.5392H92.4638H92.3906L92.3175 35.9472L92.2443 36.0203L92.0226 36.1666L91.8762 36.3152L91.9494 36.3884L91.8762 36.4615V36.5347H91.8031H91.7299H91.5813H91.5082H91.435V36.6079V36.681L91.3619 36.7565L91.435 36.8296L91.3619 36.9759H91.435V37.0491L91.3619 37.1222V37.2708L91.2887 37.344V37.4171L91.2156 37.4903V37.5635V37.6366V37.7121L91.1424 37.7852H91.2156V37.8584H91.2887L91.2156 38.0047H91.2887L91.2156 38.0778L91.2887 38.151L91.1424 38.2264L91.2156 38.2996L91.067 38.3728L91.1424 38.5191L91.067 38.5922H90.9206L90.8475 38.6677H90.7743V38.7408H90.7012L90.5526 38.814V38.8871V38.9603L90.4794 39.0334V39.182L90.4063 39.2552L90.4794 39.3284H90.5526V39.5478H90.7743L90.9938 39.6233L90.9206 39.6964L91.067 39.7696V39.8427L91.1424 39.9159L91.067 39.9891L91.2887 39.9159V39.9891L91.5082 40.0622V40.1376L91.5813 40.284V40.3571L91.6568 40.5034H91.5813L91.8031 40.5789L91.9494 40.7252H92.0226L92.098 40.7983L92.1712 40.8715H92.098H91.9494L91.5813 40.9447L91.5082 40.8715H91.435H91.3619V40.9447L91.2887 41.0178H91.1424L91.067 41.0933H90.9206H90.8475L90.9206 41.0178L90.9938 40.8715L90.7743 40.7983H90.628L90.4063 40.9447V40.7983V40.7252L90.4794 40.652L90.4063 40.5034H90.1868L90.1114 40.652L90.0382 40.7252H89.8187L89.7456 40.7983V40.9447L89.6724 41.0178H89.597L89.5238 41.0933V41.1664L89.4507 41.2396L89.3775 41.1664H89.3043L89.1557 41.3127L89.0826 41.3859H88.8631L88.7168 41.5322V41.459L88.6414 41.3859L88.5682 41.459L88.495 41.5322V41.6076V41.7539L88.5682 41.8271L88.6414 41.9003L88.79 41.7539H88.8631V41.9003H88.7168L88.6414 41.9734H88.5682H88.495L88.4219 42.1952V42.2683H88.495L88.3487 42.4146V42.5632L88.2756 42.4901V42.2683H88.127L88.0538 42.3415L88.127 42.1952H88.0538L87.9807 42.2683L87.8344 42.3415L88.0538 42.4146L87.9807 42.4901H88.0538V42.5632L87.9807 42.6364V42.5632H87.9075V42.4901L87.7612 42.4146L87.6858 42.4901L87.7612 42.3415H87.6126V42.2683L87.4663 42.3415L87.3931 42.2683H87.32V42.3415V42.4146L87.4663 42.4901L87.3931 42.6364H87.4663V42.7827H87.3931H87.32H87.2445H87.1714V42.7096V42.6364L87.0982 42.5632L86.8788 42.6364L86.7302 42.7827V42.8559L86.8788 42.929V43.0776L86.9519 43.1508V43.2239H86.8788H86.657L86.5838 43.3703H86.4375H86.5107L86.4375 43.2971L86.3644 43.4434V43.2971H86.2158H86.1426L86.2158 43.2239L86.1426 43.1508H86.0695H85.9963L85.7745 43.2239L85.5551 43.3703L85.3333 43.6652V43.7383L85.187 43.8115L85.1139 43.7383L84.9675 43.8115H84.8944V43.7383H84.8189L84.6726 43.8115L84.5263 44.0332V44.4013L84.5995 44.6208L84.6726 44.8402H84.7458H84.8944V44.9888L84.7458 45.1351L84.8944 45.4301V45.6495V45.7958L84.8189 45.7227V45.7958V45.8713L84.6726 45.9444L84.5263 46.0176L84.4532 45.9444L84.38 46.0176V45.9444L84.1582 45.8713L84.0119 46.0176H83.9388L83.8633 46.0908H83.7902V46.1639H83.6439V46.0176H83.4244V45.8713L83.349 45.7958H83.2026V45.6495L83.1295 45.5764H82.8346L82.7614 45.6495L82.5419 45.7227H82.4688L82.3934 45.6495L82.4688 45.5032H82.3202H82.247V45.4301H82.1007L82.0276 45.5032V45.4301H81.9521H81.8058L81.7327 45.5032L81.6595 45.3546H81.5863H81.5132H81.4377H81.2914H80.9965V45.2815H80.9234L80.5576 45.3546V45.2815L80.409 45.2083H80.0409L79.4534 45.2815L78.6464 45.5032L78.4978 45.5764L78.4246 45.7227L78.2783 45.6495L78.0565 45.7958L77.9834 45.8713V45.9444L77.9102 46.0176H77.8371L77.9102 45.9444L77.8371 45.8713L77.7639 45.7958L77.5422 45.8713L77.1009 46.0908L76.9546 46.1639V46.3125H76.8815L76.8083 46.3857L77.0278 46.3125L76.9546 46.3857L76.8815 46.532V46.6783L76.7352 46.7514V46.8269H76.8083L76.7352 46.9H76.6597L76.4403 47.0464V47.1927L76.5134 47.2658L76.5866 47.1927V47.2658H76.6597L76.5866 47.3413L76.5134 47.4144L76.3671 47.4876V47.6339V47.7825H76.4403H76.2939L76.2185 47.8556V47.9288L76.1453 47.8556L76.2185 47.7825H76.0722H75.7041L75.5578 47.9288L75.4846 48.002L75.5578 48.0751H75.4846H75.4115L75.3383 48.1483V48.2969L75.2652 48.4432V48.37L75.3383 48.2237L75.2652 48.1483L75.1897 48.0751L75.1166 48.1483L75.0434 48.2237V48.1483H74.9703H74.8971V47.9288L75.0434 47.8556L74.9703 47.7071L74.8971 47.6339L74.6754 47.5607H74.529H74.3827V47.6339V47.7071L74.3073 47.5607H74.2341L74.161 47.6339H74.2341L74.3073 47.7825V47.8556H74.161V47.9288V48.002L74.2341 48.0751H74.161V48.1483L74.0878 48.2969H74.0147L74.0878 48.1483L73.8683 48.0751L73.4271 48.1483L72.9859 48.37L71.8085 48.8844L70.7066 49.5451L69.8242 49.9863L69.6779 50.1326L69.4561 50.2081L68.7223 50.7225L68.2079 51.0151L67.5449 51.6049V51.6781V51.8975L67.4717 51.9707L67.3254 52.1193L67.3986 52.1925L67.4717 52.2656V52.3388H67.5449L67.4717 52.4119L67.5449 52.4851H67.4717V52.5605L67.3986 52.4851L67.3254 52.5605V52.6337H67.2523L67.0305 52.7068L66.7379 52.8531L66.5893 52.9995L66.0749 53.3675L65.6337 53.6624L65.5605 53.7356V53.8819L65.4142 53.9551L65.1193 54.1768V54.25L64.8267 54.3231L63.2835 55.2787H63.2081V55.3519L62.8423 55.5736L62.7669 55.72L62.2525 55.8663L61.8113 56.1612L60.8557 56.7487L60.4899 57.0436L59.1662 58.0724L58.4301 58.8085L58.0643 59.2475L57.9911 59.4692L57.9157 59.6887H57.6962V59.7641L57.7694 59.9836L57.8425 60.0568V60.1299V60.2785L57.6962 60.4248L57.6231 60.7197V60.7929H57.6962V60.8661H57.6231H57.5499L57.3282 61.0124L57.0332 61.3073L56.4457 61.7485L55.7119 62.5555H55.6387V62.4092L55.785 62.2629L56.4457 61.6754L56.3725 61.5999L56.4457 61.5267H56.3725H56.2994L56.2262 61.5999L56.0799 61.5267V61.5999V61.6754V61.7485H55.9313L55.8582 61.8217L55.785 61.7485L55.6387 61.8217L55.4901 61.8948L55.122 61.5999L55.0489 61.5267L54.9757 61.3804H54.8294L54.6831 61.3073L54.6076 61.1587L54.8294 61.0855L54.9026 60.9392V60.7929H54.9757L55.0489 60.7197L54.9026 60.6443L54.7562 60.5711V60.498L54.6076 60.3517V60.2785L54.4613 60.0568V59.9836L54.3882 59.9104L54.4613 59.7641L54.3882 59.5424L54.4613 59.4692V59.3961H54.3882L54.2419 59.3229V59.2475L54.315 59.1743H54.2419V59.1012L54.1687 59.028L54.0933 58.9548L54.0201 58.8085L53.9469 58.8817V58.9548V59.028H53.8738H53.8006V59.1012V59.1743L53.7275 59.2475V59.3229V59.4692H53.652L53.5789 59.3229H53.5057V59.3961L53.3594 59.5424L53.2863 59.6887L53.1377 59.8373V59.6887H53.2108V59.4692H53.1377L53.0645 59.5424V59.4692H52.9182V59.3961V59.3229L52.6964 59.1012H52.6233V59.028L52.477 58.9548L52.2575 58.8817L52.1821 58.9548H52.0357L51.5945 59.2475L51.5214 59.5424V59.6887H51.375L51.2996 59.7641L51.1533 59.9836L51.0801 60.0568L51.007 60.2031H50.9338L50.7852 60.0568L50.7121 59.9836L50.6389 59.9104V59.7641L50.5658 59.6887V59.6155H50.4194V59.4692L50.3463 59.3961V59.3229H50.2708V59.2475V59.1743V59.1012V59.028H50.3463V58.9548L50.4926 58.8817L50.5658 58.7331V58.6599V58.5868L50.6389 58.5136L50.5658 58.4405L50.6389 58.3673L50.5658 58.2919V58.2187V58.1456V57.9992V57.9261H50.6389V57.9992L50.7121 57.8529H50.6389L50.7121 57.7775L50.7852 57.7043V57.6312V57.558H50.5658L50.6389 57.4849L50.5658 57.3363L50.6389 57.1899L50.7121 57.1168V57.0436V56.8973L50.9338 56.7487L51.007 56.6756L51.1533 56.6024V56.4561H51.2265V56.3075L51.2996 56.2343V56.1612L51.2265 56.088V56.1612H51.0801H51.007V56.088L50.9338 56.0149H50.8607V55.9417H50.7852V55.8663H50.6389L50.5658 55.72V55.6468L50.4926 55.5736L50.4194 55.4251L50.3463 55.5005L50.2708 55.4251L50.1977 55.3519L50.1245 55.4251L50.0514 55.3519L49.9051 55.5005H49.7565V55.5736L49.6102 55.6468L49.537 55.7931L49.3907 55.72H49.4638L49.3907 55.6468L49.4638 55.5736H49.3907L49.4638 55.5005L49.3907 55.4251L49.2421 55.3519V55.4251V55.5005V55.6468L49.1689 55.5736L49.0958 55.5005L48.8009 55.5736L48.6545 55.6468H48.5814V55.5005H48.5082L48.4351 55.6468L48.2865 55.72L48.2133 55.5005L48.067 55.4251H47.9184L47.8453 55.2787L47.7721 55.2056L47.6258 55.3519L47.4795 55.2056L47.404 55.2787L47.5526 55.4251H47.4795L47.3309 55.3519L46.9628 55.4251H46.8896V55.5005H46.8165L46.7433 55.4251H46.6702H46.5239L46.3753 55.5736L46.3021 55.4251H46.1558V55.3519H46.0095V55.2056H45.934L45.7877 55.2787L45.8609 55.0593H45.934V54.9861H45.8609L45.7146 55.0593L45.5683 54.9861H45.4928L45.4197 55.0593L45.4928 55.1324V55.2056V55.2787L45.4197 55.3519L45.3465 55.5005H45.2733L45.2002 55.5736H45.127L45.0516 55.4251H44.9784V55.5005H44.8321V55.4251H44.759L44.6858 55.5736L44.5372 55.5005L44.4641 55.4251H44.1714H44.0983H44.0228H43.8765L43.8034 55.5005V55.5736H43.6571V55.72H43.3621H43.289L43.1427 55.6468H43.0672H42.9209L42.7014 55.4251H42.626V55.3519H42.5528L42.626 55.2056V55.1324H42.5528V55.0593H42.4797L42.5528 54.8375L42.4797 54.7644V54.6912L42.5528 54.618L42.626 54.5449L42.4797 54.4717H42.5528V54.3963L42.4797 54.25V54.1768V54.1037H42.5528L42.626 54.0305L42.7014 54.1037L42.7746 53.9551L42.8478 53.8819L42.7746 53.8088V53.6624L42.7014 53.5138H42.7746L42.9941 53.4407V53.2944L43.0672 53.2212L43.1427 53.1481H43.2158V53.0749V52.9995H43.1427L43.2158 52.8531L43.1427 52.78L43.289 52.6337L43.3621 52.4851V52.4119H43.289L43.2158 52.5605L43.1427 52.4851V52.4119L43.289 52.1925L43.4353 51.9707H43.5085L43.7302 51.7512L43.6571 51.6781H43.5085L43.4353 51.6049H43.2158V51.4563H43.1427L42.9941 51.31H42.9209L42.8478 51.3832L42.7746 51.31V51.2368V51.1637L42.7014 51.0882L42.626 51.0151L42.7014 50.8688L42.626 50.7956H42.5528L42.626 50.7225L42.5528 50.6493H42.4065V50.5739L42.1116 50.3544L42.0385 50.2812L42.1871 50.2081V50.0595V49.84V49.6937L42.3334 49.6183L42.2602 49.5451V49.4719H42.1871L41.9653 49.3256V49.2525L41.8922 49.177L41.819 49.2525L41.7458 49.177L41.6704 49.2525V49.177L41.4509 49.1039L41.5241 49.0307H41.4509L41.5241 48.9576L41.3046 48.8844H41.2315V48.8113L41.156 48.7381L41.2315 48.6627H41.156V48.5895L41.0097 48.5163L40.9366 48.4432L40.8634 48.37V48.2237H40.7902V48.1483H40.7148H40.6416H40.5685L40.6416 48.0751L40.7148 48.002H40.6416V47.9288L40.5685 47.8556H40.4953V47.7825L40.5685 47.7071V47.6339L40.4222 47.5607H40.349V47.4876H40.4953V47.4144H40.4222V47.3413L40.349 47.2658L40.2759 47.3413L40.2004 47.1927H40.349H40.4222L40.349 47.1195V47.0464H40.2759V46.9732L40.1273 47.0464V47.1195L39.9809 47.0464H39.9078V46.9732L39.8346 46.9L39.7592 46.8269L39.686 46.7514V46.532L39.5397 46.6783L39.4666 46.532L39.3934 46.4588V46.3125L39.3203 46.2371H39.3934L39.4666 46.1639L39.3203 46.0908H39.3934L39.5397 46.1639L39.4666 46.0908V46.0176H39.5397L39.686 45.9444L39.8346 45.8713V45.7958V45.7227V45.5764L39.7592 45.4301V45.3546L39.8346 45.2815L39.686 45.2083L39.7592 45.1351V45.062V44.9888V44.9157L39.9078 44.9888H39.9809L39.9078 44.8402V44.7671L39.9809 44.6208L39.9078 44.5476V44.4745H39.8346V44.4013H39.7592L39.686 44.3259H39.6129V44.2527V44.1795H39.5397V44.1064L39.3934 44.0332V43.9601L39.2448 43.8846L39.3203 43.8115V43.7383H39.2448V43.6652V43.592L39.1717 43.5188L39.2448 43.3703L39.3934 43.2239V43.1508L39.3203 43.0776L39.3934 42.929L39.3203 42.7827L39.3934 42.7096L39.1717 42.5632L39.0985 42.4901L39.1717 42.4146H39.2448L39.1717 42.2683L39.2448 42.1952V42.0489L39.3934 42.122V42.0489V41.9734V41.8271V41.7539L39.4666 41.6808L39.5397 41.6076H39.6129L39.686 41.6808H39.7592L39.686 41.6076L39.7592 41.5322H39.6129V41.3859H39.5397L39.4666 41.3127H39.3934V41.2396V41.1664H39.3203H39.2448H39.1717V41.0933L39.3934 41.0178L39.4666 41.0933L39.5397 41.0178L39.4666 40.9447V40.8715L39.2448 40.7252H39.0253V40.652V40.5034L39.0985 40.5789L39.1717 40.4303V40.284L39.0985 40.1376V39.9159L38.9522 39.6233L38.879 39.5478L38.9522 39.4015H38.879L38.8036 39.3284V39.2552V39.1066L38.5841 38.7408L38.511 38.6677L38.5841 38.5922H38.3646L38.2892 38.5191V38.4459L38.216 38.5191L38.1429 38.3728L37.9966 38.2996L37.9234 38.2264L38.0697 38.0047L37.9966 37.9315L37.9234 37.8584H37.7748L37.6285 37.9315L37.4822 37.8584H37.3336L37.2604 37.7852H37.1873L37.1141 37.7121V37.6366H37.041L36.9678 37.5635L36.8947 37.4903L36.6729 37.5635H36.5266L36.4534 37.4903L36.378 37.4171L36.3048 37.4903L36.1585 37.344H36.0122V37.1222V37.0491L36.0854 36.9028V36.8296H36.1585V36.7565L35.9368 36.6079L35.7905 36.5347H35.571L35.3492 36.3152V36.2398L35.4224 36.1666L35.4978 35.9472L35.4224 35.8008V35.7254L35.2029 35.5791L35.1298 35.6523V35.7254L35.2029 35.874L35.1298 35.9472H35.0566H34.9834L34.908 35.7254H34.7617L34.5422 35.6523V35.7254L34.3205 35.9472L34.1742 35.874H34.0256L33.8792 36.0935H33.8061H33.6598L33.438 36.0203L33.2917 36.1666L33.0722 36.2398H32.8505L32.7042 36.1666L32.5556 36.2398H32.4824V36.1666L32.4093 36.0935L32.1143 35.9472L31.968 36.0203H31.8217L31.7486 36.1666H31.6H31.3805L31.3073 36.0203L31.161 35.874V35.8008L30.9393 35.6523L30.793 35.7254H30.6444L30.5712 35.8008V36.0203H30.498L30.4249 36.1666L30.2031 36.0935L30.0568 36.1666L29.8374 36.0203H29.7642L29.6156 36.1666L29.4693 36.0935L29.3961 36.0203L29.323 35.874L29.2498 35.8008L29.1012 35.7254L28.8086 35.6523L28.66 35.8008L28.5137 35.874L28.3674 35.8008L28.1456 35.7254L28.0725 35.5791H27.9261H27.853L27.7775 35.6523L27.7044 35.7254L27.4118 36.2398L27.19 36.3152H27.1169H27.0437L26.9705 36.2398L26.8974 36.1666H26.6756H26.4562L26.383 36.0935L26.4562 35.6523V35.5791V35.5059L26.2344 35.4328L26.1612 35.211L26.0881 35.1379L25.9418 34.8452L25.5006 34.5503L25.4274 34.4772H25.1325H25.0593L24.913 34.5503H24.8376L24.6913 34.3286H24.4718L24.3232 34.404H24.1769L23.5893 34.1091H23.0018L22.5606 33.9628L22.3388 33.8142L22.1925 33.741L21.9708 33.6679H21.8976L21.6781 33.5216L21.605 33.2267H21.5295L21.3832 33.0803L21.2369 33.0072L21.0152 33.0803H20.942L20.6494 33.0072H20.5008L20.2081 32.934L20.0595 33.0072H19.9132L19.6183 32.8586H19.3989L19.1794 33.1535H19.1039L18.8113 33.2998H18.6627L18.5896 33.2267L18.2969 33.2998L18.2238 33.3753L18.0752 33.2998L17.8557 33.2267L17.5608 33.0072L17.4145 32.934H17.0464H16.9001L16.6784 33.0803H16.4589L16.3857 32.934L16.3126 32.6391V32.566H16.164L16.0908 32.4928H16.0177L15.8713 32.4197L15.0621 32.6391H14.9889L14.7671 32.566L14.6208 32.4197L14.5477 32.3442L14.4745 32.2711L14.0333 31.903H13.8115L13.4458 31.6835L13.1508 31.6104H13.0777H12.7828L12.4147 31.3886L12.2684 31.3155H12.1952L12.0489 31.3886L11.9758 31.464L11.8272 31.6835L11.754 31.903V31.9784L11.6809 32.2711V32.3442L11.754 32.7854L11.4591 32.8586L11.3128 32.934L11.0179 33.0803H10.9447V33.0072V32.7123L10.7984 32.4928L10.7253 32.4197L10.4303 32.4928L10.284 32.566L10.1377 32.7123L9.91596 32.6391H9.40158L9.03351 32.4928L8.8872 32.4197H8.81404L8.74089 32.3442H8.59229V32.4197H8.44598L8.07791 32.6391H8.00475L7.78528 32.4928L7.63668 32.4197H7.56353L7.2709 32.1247L7.1223 31.903H7.04915L6.90283 31.9784L6.24214 32.4197L5.80092 32.566H5.57916L5.28653 32.4197L4.99162 32.3442L4.91847 32.2711H4.84531H4.62356L4.25549 32.4197L4.10917 32.3442L3.59479 31.9784L3.37532 31.903L2.86094 31.9784L2.7855 32.0516L2.63919 32.1247L2.49288 32.1979V32.2711L2.34428 32.3442L2.19796 32.4928L2.05165 32.6391L1.75674 32.7123L1.61043 32.934L1.53727 32.7123L1.46411 32.4928ZM90.8475 41.2396V41.3127H90.7743V41.2396L90.8475 41.1664H90.7743V41.2396H90.8475ZM88.9363 45.062H89.0094H89.0826L89.0094 45.1351H89.0826V45.2083L89.0094 45.2815V45.2083L88.9363 45.1351V45.062ZM88.79 42.5632H88.7168L88.79 42.4901V42.5632ZM90.1868 41.459H90.2599V41.5322H90.1868V41.459ZM86.2158 46.3125H86.1426V46.3857H86.0695V46.4588L86.2912 46.532L86.2158 46.6051L86.2912 46.6783H86.3644L86.5107 46.8269L86.5838 46.6783L86.657 46.7514H86.7302L86.8056 46.8269L86.7302 46.9L86.657 46.8269V46.9V47.0464V47.1195V47.1927V47.2658H86.7302L86.657 47.3413V47.4144L86.5107 47.5607L86.2912 47.4876L86.1426 47.2658L86.2158 47.1195L86.0695 46.9L85.9231 46.9732V46.9L85.85 46.9732H85.7745L85.7014 46.9L85.6282 46.9732H85.5551V47.0464L85.4088 46.9732L85.3333 47.1195L84.8944 47.1927H84.8189L84.5995 47.2658L84.38 47.1927L84.2314 46.9732V46.6783V46.6051H84.3046L84.4532 46.4588H84.5263V46.3857L84.6726 46.3125H84.7458L84.6726 46.2371H84.7458L85.1139 45.8713L85.2602 45.7958V45.5032H85.3333V45.4301L85.4088 45.3546V45.2815V45.2083L85.4819 44.9888V44.8402L85.6282 44.7671L85.7745 44.8402L85.85 44.9157H86.0695V44.9888H86.2158L86.2912 45.062H86.3644L86.4375 45.1351V45.2083L86.5107 45.2815H86.5838L86.657 45.4301H86.7302L86.657 45.5032V45.6495L86.5838 45.7958H86.657V45.8713L86.5107 45.9444L86.5838 46.0176H86.657L86.5838 46.0908H86.657H86.7302L86.657 46.1639L86.4375 46.0908H86.2912L86.1426 46.2371H86.2158V46.3125ZM86.7302 45.8713V45.7958L86.8056 45.8713H86.7302ZM90.2599 40.9447V41.0178L90.1868 40.9447H90.2599ZM89.8187 41.0933H89.7456V41.0178H89.8187V41.0933ZM83.4976 46.3125V46.2371H83.5707V46.3125H83.4976ZM68.5005 52.1193H68.5759V52.1925H68.5005V52.1193ZM68.5759 52.3388V52.2656H68.6491V52.3388H68.5759ZM90.7012 41.459H90.7743V41.5322L90.7012 41.459ZM81.3646 45.7227V45.6495H81.4377V45.7227H81.3646ZM85.9963 43.4434L86.0695 43.3703H86.1426V43.4434H85.9963ZM80.7039 46.3857V46.3125H80.7771H80.8502L80.7771 46.3857V46.4588H80.7039V46.3857ZM87.4663 43.0776L87.5394 43.0045L87.6126 43.0776V43.1508L87.5394 43.0776L87.4663 43.1508V43.0776ZM87.4663 45.7227L87.6126 45.6495L87.6858 45.5764V45.6495L87.9807 45.7958L87.9075 45.8713L87.7612 45.7958L87.6126 45.9444L87.5394 45.7958L87.4663 45.7227ZM88.5682 42.7096V42.6364L88.79 42.7096V42.7827L88.5682 42.8559L88.3487 43.0776V42.929V42.8559L88.2756 42.7827L88.3487 42.7096L88.4219 42.7827H88.495L88.5682 42.7096Z" fill="#06C419"/>
<path d="M81.2914 33.6679L81.4377 33.8896V34.036H81.5132V34.1823L81.4377 34.2554H81.3646L81.2914 34.404V34.4772L81.3646 34.5503L81.4377 34.6235H81.5132V34.6966H81.3646L81.2914 34.6235H81.2183L81.1451 34.4772L81.072 34.404L80.9965 34.5503H80.8502L80.9234 34.9184V34.9916L80.8502 35.0647L80.7039 35.1379H80.6307L80.5576 35.0647V34.9184L80.409 34.8452V34.9184L80.2627 34.8452V34.9184H80.1164H80.0409L79.9678 35.0647H79.8946V35.211V35.2842H79.8214L79.6751 35.3596H79.602V35.211V35.1379H79.5265V34.9916V34.9184H79.3802V34.8452L79.4534 34.6966H79.3802L79.2339 34.7698V34.8452L79.0876 34.9916H78.939L78.8658 35.0647L78.7927 35.1379L78.6464 35.211L78.4978 35.2842V35.3596L78.3515 35.4328L78.2783 35.5059L78.0566 35.4328L77.8371 35.5791L77.5422 35.5059L77.3227 35.5791L77.1764 35.7254H77.0278L76.8815 35.874L76.7352 35.8008L76.8083 35.7254L76.8815 35.5059V35.4328L76.8083 35.211V35.1379L76.7352 35.211L76.3671 35.2842L76.2939 35.211L76.2185 35.2842L75.8527 35.4328L75.7796 35.5791L75.7041 35.5059H75.5578V35.3596H75.4846H75.3383L75.1897 35.5791L74.9703 35.5059L74.7485 35.5791L74.6754 35.6523L74.4559 35.5791L74.3827 35.4328L74.3073 35.3596V35.2842H74.2341V35.211H74.3827L74.3073 34.9916L74.3827 34.9184L74.3073 34.8452V34.6966L74.4559 34.404L74.6022 34.3286V34.2554H74.6754V34.1823L74.7485 34.1091V34.036H74.529L74.4559 34.1091L74.3073 33.8896H74.2341V33.8142L74.161 33.8896H74.0147L73.7929 33.741V33.8142L73.6466 33.741V33.6679H73.5003L73.4271 33.4484H73.2785L73.2054 33.3753L73.2785 33.2998L73.2054 33.2267V33.1535L73.2785 33.0803L73.4271 33.1535V33.0803L73.6466 33.0072L73.7197 32.934L73.8683 33.0072L73.9415 32.934L74.0147 33.0072L73.9415 33.0803H74.0147L74.161 33.0072V32.8586L74.0878 32.7854L74.0147 32.7123H73.8683L73.7929 32.6391V32.566L74.0147 32.4928L73.7929 32.2711L73.9415 32.1247H73.7197V31.9784L73.9415 31.7567V31.6104L73.8683 31.6835H73.7929L73.6466 31.6104V31.5372H73.5003V31.3886H73.354H73.1322L73.0591 31.3155L72.9127 31.3886V31.2423L72.5447 31.096L72.6178 31.0228V30.8742L72.4715 30.8011H72.3961V30.7279L72.4715 30.6548L72.3961 30.5816H72.2498L72.1766 30.6548V30.5816L72.1035 30.5084H71.9571H71.8817L71.7354 30.433V30.5084L71.5159 30.433L71.4428 30.3598H71.3673V30.2867L71.1478 30.2135V30.1404L71.221 29.9186L71.1478 29.8455L71.221 29.6991H71.0747L71.0015 29.5528H70.9261V29.4774H70.8529V29.4042V29.3311L70.7798 29.2579V29.1848H70.7066V29.1116H70.6335L70.5603 29.0362H70.6335L70.7798 28.8899L70.7066 28.7435L70.7798 28.6704L70.7066 28.5972V28.5218L70.7798 28.4486L70.8529 28.3023L70.9261 28.3755L70.8529 28.2292L71.0747 28.0806L71.0015 28.0074L71.1478 27.6416L71.0747 27.5662H71.1478H71.221H71.3673L71.4428 27.3467L71.7354 27.2736L71.8817 27.1272V27.0518H71.7354L71.6622 26.8323L71.5159 26.7592L71.3673 26.6106L71.1478 26.686L71.0015 26.6106H70.9261H70.8529H70.7798H70.7066H70.6335L70.5603 26.5374V26.4643V26.3911H70.6335L70.7066 26.4643L70.8529 26.3911H71.0015L71.221 26.318V26.2448L71.0747 26.1694L70.9261 26.023L71.0015 25.8767H71.0747V25.8036L71.221 25.8767L71.2942 25.8036V25.7304H71.3673L71.4428 25.655L71.6622 25.8036H71.7354V25.7304V25.655V25.5818L71.6622 25.5087L71.5891 25.3623H71.5159L71.4428 25.2892L71.2942 25.0674V24.9211L71.1478 24.848L71.221 24.6994L71.0747 24.5531L71.1478 24.4799H71.221L71.2942 24.4067L71.3673 24.2581L71.2942 24.185V24.1118L71.1478 23.8924H71.0747H71.0015L70.9261 23.7438L71.0015 23.5975L71.1478 23.5243V23.4511L71.3673 23.2294L71.2942 23.0831H71.3673L71.4428 23.0099H71.5891V22.9368V22.715V22.6418V22.5687L71.6622 22.4224L71.5891 22.2738V22.2006L71.6622 22.1275V21.9812L72.1035 22.0543L72.2498 21.9812V21.7594L72.3961 21.6862H72.4715L72.3961 21.5399L72.4715 21.4668H72.6178V21.3182L72.7641 21.245V21.1719L72.691 21.0987L72.7641 21.0255V20.9524L72.8373 20.8038V20.7306L72.9127 20.6575H72.9859V20.5843L72.8373 20.4357L72.7641 20.3626L72.691 20.2163L72.7641 20.1431V19.9968L72.9127 19.8482L72.8373 19.775V19.6287L72.7641 19.5556V19.4824V19.407H72.691H72.6178L72.4715 19.3338H72.3229L72.1766 19.2606V19.1875L71.8817 19.3338V19.407L71.7354 19.3338L71.6622 19.2606L71.7354 19.1875H71.6622V19.1143L71.5891 19.0412H71.5159L71.4428 18.8926L71.3673 18.8194V18.7463V18.6731V18.6V18.4514H71.221H71.1478L71.0747 18.6H71.0015L70.9261 18.6731L70.8529 18.7463L70.7066 18.9657L70.6335 18.8194L70.5603 18.7463V18.8194H70.4117L70.1922 18.6731L70.1191 18.6L70.1922 18.4514H70.1191H69.9705L69.8973 18.5268L69.8242 18.6L69.5315 18.5268H69.3829L69.3098 18.6V18.6731L69.2366 18.7463H69.0903V18.8194H69.0149V18.8926L68.7954 18.9657L68.7223 19.0412H68.6491L68.5759 19.1143H68.4273V19.1875L68.3542 19.1143L68.281 19.1875L68.1347 19.1143L68.0593 19.1875L67.9861 19.1143H67.913H67.8398L67.6935 19.1875V19.1143L67.6203 19.1875L67.5449 19.1143H67.4717L67.3986 19.0412H67.4717V18.9657L67.3986 18.8194H67.4717L67.5449 18.6731L67.4717 18.5268L67.5449 18.4514L67.6203 18.3782L67.5449 18.305L67.3986 18.2319L67.3254 18.0856V18.0101L67.2523 17.8638H67.1791L67.2523 17.7907L67.106 17.6444V17.5712V17.4226L67.0305 17.2763V17.2031H66.9574L66.8842 17.0545L66.7379 17.13V16.9814L66.811 16.9082V16.8351L66.8842 16.7619H66.811H66.5893H66.5161V16.8351L66.443 16.6887L66.2967 16.467V16.3938L66.2235 16.3207L66.2967 16.0989L66.0749 15.8795L66.2235 15.8063V15.7331V15.66H66.3698V15.5845L66.1481 15.5114L66.0749 15.4382H66.0018L66.0749 15.2188L66.0018 15.0702L65.9286 14.8507L65.8554 14.6289L65.9286 14.5558V14.4095L66.0018 14.1877L65.9286 14.1146L65.7823 14.0414L65.7091 13.8951H65.5605L65.4874 13.7488V13.6002H65.2679L65.1193 13.4539L64.973 13.1589L65.1193 12.7932L65.2679 12.4983L65.1193 12.2033L65.2679 12.1302L65.3411 11.9107H65.4142L65.4874 11.8376L65.5605 11.5427H65.6337L65.5605 11.3963L65.7091 11.2477V11.1746L65.7823 11.1014L65.9286 11.1746H66.2967V11.1014L66.3698 11.0283L66.443 10.882V10.7334L66.5161 10.587V10.5139V10.4407L66.3698 10.3676V10.219V10.1458L66.2235 10.0727V9.99951V9.92635V9.85091H66.1481L66.0018 9.55828L66.0749 9.48513L66.0018 9.33653V9.19022H65.9286L65.8554 9.0439L65.5605 8.97075L65.4142 8.8953H65.2679L65.0461 8.67583L64.8267 8.60268L64.7535 8.45637H64.6049L64.3855 8.30777V8.23461L64.4586 8.16145V8.0883H64.3855V8.01514L64.4586 7.9397H64.3855L64.4586 7.86654H64.3855L64.4586 7.79339L64.3855 7.72023L64.4586 7.57392H64.3855V7.50076V7.42532V7.35216L64.3123 7.13269L64.4586 7.05954L64.3855 6.98409H64.4586V6.91094V6.76462H64.5318V6.54515L64.6049 6.39656H64.6781L64.8267 6.17709H64.8998L65.0461 5.80902V5.73586L64.8998 5.51411L64.8267 5.36779H64.7535V5.14833L64.6781 4.99973H64.6049L64.3855 4.92657L64.2391 4.63394L63.9442 4.5585L63.7979 4.41219H63.6493L63.503 4.19272H63.2081H63.1349L63.0618 3.97096L62.7669 3.82465V3.67834V3.6029L62.9155 3.52974V3.45658V3.38343L62.8423 3.23711L62.6937 3.08852L62.4742 2.86905V2.79589L62.4011 2.86905L62.3279 2.9422H62.1793L62.033 3.08852H61.7381L61.5918 3.16167V3.23711H61.2969L61.1506 3.31027V3.52974L60.9311 3.7515H60.7825L60.6362 3.82465L60.4899 3.67834L60.4167 3.6029L60.2681 3.45658V3.38343V3.31027L59.9001 3.01536H59.8269L59.6074 3.08852L59.4611 3.16167L59.2394 3.08852H58.8713L58.5055 3.23711L58.3569 3.16167H58.2838L58.1374 3.38343L58.0643 3.45658V3.52974V3.6029V3.67834H58.1374L58.2106 3.7515V3.82465L58.1374 3.97096V4.11956V4.26588L58.0643 4.41219L57.8425 4.63394H57.7694L57.4745 4.48535L57.3282 4.26588L57.255 3.89781L56.9601 3.67834H56.8869L56.8138 3.7515V4.11956L56.7406 4.26588L56.6675 4.41219L56.5189 4.63394L56.2994 4.5585L56.2262 4.78026L55.9313 4.92657H55.7119L55.4901 4.85341L55.3438 4.7071L55.122 4.63394L55.0489 4.41219H54.9757H54.9026L54.8294 4.33903L54.7562 4.11956L54.5345 3.7515L54.3882 3.67834L54.315 3.6029H54.0933L54.0201 3.67834L54.0933 3.7515L54.0201 4.11956V4.19272L54.3882 4.5585V4.63394L54.315 4.78026H54.2419L54.0933 4.85341H53.8738H53.8006H53.7275L53.652 4.78026L53.5057 4.63394L53.2863 4.5585H53.0645L52.9182 4.63394H52.845H52.6964H52.6233L52.3307 4.5585L51.9626 4.63394H51.8163L51.4482 4.78026H51.1533H50.9338L50.7121 4.7071H50.4194L50.2708 4.78026L49.9782 5.07288L49.7565 5.14833H49.537L49.4638 5.07288H49.2421L48.874 4.92657H48.8009L48.5814 4.99973L48.2865 5.07288H47.8453H47.7721L47.5526 5.22148L47.4795 5.29464L47.404 5.51411L47.4795 5.66271V5.73586L47.404 5.80902L47.2577 5.95533L47.1114 6.25024V6.46971V6.54515L47.2577 6.76462L47.1846 7.13269L47.3309 7.50076V7.57392V7.72023V7.79339L47.1846 8.0883L47.1114 8.16145H46.9628L46.3021 7.72023L46.229 7.64707L46.3021 6.39656V6.17709L46.229 5.58955L46.0826 5.22148L46.0095 5.07288L45.7146 4.99973L45.5683 4.92657H45.2734L45.2002 4.99973L44.9053 5.58955L44.6127 6.25024L44.4641 6.39656L44.0228 6.69147V6.76462H43.9497L43.8034 6.69147L43.4353 6.61831H43.3621L43.0672 6.17709V6.03077L42.9941 5.80902L42.626 5.14833V4.5585L42.5528 4.41219V4.33903V4.04412L42.7014 3.45658L42.8478 3.31027H43.0672L43.2158 3.23711V3.08852V2.9422L43.1427 2.86905H43.0672L42.7014 2.79589L42.4797 2.86905L42.2602 3.01536L42.0385 3.08852L41.156 3.01536H40.9365L40.6416 2.72273L40.5685 2.64729L40.4222 2.35467L40.2004 2.28151L39.9078 2.20835L39.8346 2.28151H39.6129L39.3203 2.35467L39.0985 2.42782V2.50098H38.9522H38.216L37.848 2.42782H37.7748H37.409H37.3336L36.8947 2.50098L36.6729 2.64729H36.4534H36.2317L36.0854 2.57414L35.4978 2.35467L34.908 2.42782L34.7617 2.35467H34.6154L34.5422 2.28151L34.2473 1.9866L34.101 1.91344L34.0256 1.84029H33.9524H33.5866L33.3649 1.91344H33.2917L33.2186 1.84029L32.9236 1.76713H32.7042L32.4093 1.91344L31.968 1.76713L31.6754 1.84029H31.6L31.4537 1.76713H31.2342V1.61853L31.0124 1.54537L30.5712 1.03099L30.3517 0.957836L30.13 0.88468L29.9837 0.811523L29.8374 0.88468L29.6888 0.957836H29.4693L29.323 1.03099L29.1744 1.17731H28.9549H28.8086L28.7332 1.3259L28.5137 1.61853L28.3674 1.69169L28.2188 1.84029L27.9993 2.20835H27.9261L27.7775 2.28151H27.7044L27.19 2.42782L26.6025 2.57414H26.4562V2.64729L26.2344 2.79589L25.9418 2.86905L25.8663 2.9422L25.6469 3.16167H25.5006H25.352H25.2056V3.31027L24.9862 3.45658L24.8376 3.6029H24.7644H24.6181V3.67834L24.25 4.19272V4.33903L23.9551 4.92657L23.7357 5.44095L23.5893 5.88218L23.5162 6.03077L23.1481 6.3234L23.0018 6.39656L22.8532 6.54515L22.7069 6.61831H22.6337L22.412 6.69147L22.1194 6.76462H21.6781L21.0152 6.91094L20.7957 7.05954L20.5739 7.20585H20.5008L20.4276 7.279L20.3545 7.57392L20.2081 7.64707L19.8401 8.30777V8.38092L19.6938 8.45637L19.3989 8.67583L19.2525 8.82215L18.8845 9.41197L18.8113 9.63144L18.5896 9.85091L18.0752 10.1458L18.002 10.219L17.9289 10.2921V10.3676L17.8557 10.4407L17.7826 10.5139L17.4145 11.3232L17.3413 11.689L17.4876 11.9107V11.9839V12.057L17.4145 12.4251V12.7932L17.4876 13.0126L17.634 13.1589L17.5608 13.6733L17.4876 13.8219L17.0464 14.1146H16.9733H16.532L16.3857 14.1877L16.0908 14.5558L16.0177 14.7775L15.8713 14.997V15.2188L15.7227 15.5845L15.5033 15.66L15.4301 15.8063H15.357L15.1352 15.8795H14.8403L14.7671 15.9526L14.694 16.0989L14.7671 16.467L14.694 16.6156L14.7671 16.6887L14.9157 16.9082L14.9889 17.3494L15.0621 17.4226L14.9889 17.7907L14.9157 18.0856V18.1587V18.2319V18.305L14.8403 18.3782L14.4014 18.7463L14.3259 19.0412L14.2528 19.2606L14.1796 19.4824L13.9601 19.7019L13.8115 19.9213L13.7384 19.9968L13.4458 20.1431H13.224L12.7828 20.0699H12.7096L12.5633 20.1431L12.4147 20.4357L12.2684 20.6575L12.3416 20.8038L12.7096 21.0987V21.3182L12.8559 21.6131V21.8326V21.908L12.5633 22.4224L12.4147 22.5687L12.3416 22.715L11.9003 22.8636L11.6809 23.0099L11.4591 23.5243V23.6706L11.3859 23.8924L10.8716 24.2581L10.7253 24.4799L10.5789 24.5531V24.6262H10.4303L10.0646 25.0674L9.98912 25.2892L9.69649 26.2448L9.32842 26.7592L9.18211 26.9055L9.10667 26.9786L9.03351 27.2004L8.51913 27.5662L8.44598 27.6416L8.22651 27.8611L8.15335 28.0074H8.07791L8.00475 28.0806L7.78528 28.156L7.49037 28.3023L7.1223 28.3755L6.90283 28.5972L6.68108 28.7435L6.53477 28.8167L6.3153 28.963L5.87407 29.1116L5.57916 29.3311L5.35969 29.4042L4.76987 29.7723L4.69671 29.9186L4.33093 30.2135L4.18233 30.5084H4.10917L3.81655 30.6548L3.22673 30.8011L3.15357 30.8742H3.08041L2.63919 31.096L2.49288 31.3155L2.41972 31.3886L1.9785 31.5372L1.90534 31.6104L1.68358 31.8298L1.46411 32.1247L1.38867 32.2711V32.3442V32.4197L1.46411 32.4928L1.53727 32.7123L1.61043 32.934L1.75674 32.7123L2.05165 32.6391L2.19796 32.4928L2.34428 32.3442L2.49288 32.2711V32.1979L2.63919 32.1247L2.7855 32.0516L2.86094 31.9784L3.37532 31.903L3.59479 31.9784L4.10917 32.3442L4.25549 32.4197L4.62356 32.2711H4.84531H4.91847L4.99162 32.3442L5.28653 32.4197L5.57916 32.566H5.80092L6.24214 32.4197L6.90283 31.9784L7.04915 31.903H7.1223L7.2709 32.1247L7.56353 32.4197H7.63668L7.78528 32.4928L8.00475 32.6391H8.07791L8.44598 32.4197H8.59229V32.3442H8.74089L8.81404 32.4197H8.8872L9.03351 32.4928L9.40158 32.6391H9.91596L10.1377 32.7123L10.284 32.566L10.4303 32.4928L10.7253 32.4197L10.7984 32.4928L10.9447 32.7123V33.0072V33.0803H11.0179L11.3128 32.934L11.4591 32.8586L11.754 32.7854L11.6809 32.3442V32.2711L11.754 31.9784V31.903L11.8272 31.6835L11.9758 31.464L12.0489 31.3886L12.1952 31.3155H12.2684L12.4147 31.3886L12.7828 31.6104H13.0777H13.1508L13.4458 31.6835L13.8115 31.903H14.0333L14.4745 32.2711L14.5477 32.3442L14.6208 32.4197L14.7671 32.566L14.9889 32.6391H15.0621L15.8713 32.4197L16.0177 32.4928H16.0908L16.164 32.566H16.3126V32.6391L16.3857 32.934L16.4589 33.0803H16.6784L16.9001 32.934H17.0464H17.4145L17.5608 33.0072L17.8557 33.2267L18.0752 33.2998L18.2238 33.3753L18.2969 33.2998L18.5896 33.2267L18.6627 33.2998H18.8113L19.1039 33.1535H19.1794L19.3989 32.8586H19.6183L19.9132 33.0072H20.0595L20.2081 32.934L20.5008 33.0072H20.6494L20.942 33.0803H21.0152L21.2369 33.0072L21.3832 33.0803L21.5295 33.2267H21.605L21.6781 33.5216L21.8976 33.6679H21.9708L22.1925 33.741L22.3388 33.8142L22.5606 33.9628L23.0018 34.1091H23.5893L24.1769 34.404H24.3232L24.4718 34.3286H24.6913L24.8376 34.5503H24.913L25.0593 34.4772H25.1325H25.4274L25.5006 34.5503L25.9418 34.8452L26.0881 35.1379L26.1612 35.211L26.2344 35.4328L26.4562 35.5059V35.5791V35.6523L26.383 36.0935L26.4562 36.1666H26.6756H26.8974L26.9705 36.2398L27.0437 36.3152H27.1169H27.19L27.4118 36.2398L27.7044 35.7254L27.7775 35.6523L27.853 35.5791H27.9261H28.0725L28.1456 35.7254L28.3674 35.8008L28.5137 35.874L28.66 35.8008L28.8086 35.6523L29.1012 35.7254L29.2498 35.8008L29.323 35.874L29.3961 36.0203L29.4693 36.0935L29.6156 36.1666L29.7642 36.0203H29.8374L30.0568 36.1666L30.2031 36.0935L30.4249 36.1666L30.498 36.0203H30.5712V35.8008L30.6444 35.7254H30.793L30.9393 35.6523L31.161 35.8008V35.874L31.3073 36.0203L31.3805 36.1666H31.6H31.7486L31.8217 36.0203H31.968L32.1143 35.9472L32.4093 36.0935L32.4824 36.1666V36.2398H32.5556L32.7042 36.1666L32.8505 36.2398H33.0722L33.2917 36.1666L33.438 36.0203L33.6598 36.0935H33.8061H33.8792L34.0256 35.874H34.1742L34.3205 35.9472L34.5422 35.7254V35.6523L34.7617 35.7254H34.908L34.9834 35.9472H35.0566H35.1298L35.2029 35.874L35.1298 35.7254V35.6523L35.2029 35.5791L35.4224 35.7254V35.8008L35.4978 35.9472L35.4224 36.1666L35.3492 36.2398V36.3152L35.571 36.5347H35.7905L35.9368 36.6079L36.1585 36.7565V36.8296H36.0854V36.9028L36.0122 37.0491V37.1222V37.344H36.1585L36.3048 37.4903L36.378 37.4171L36.4534 37.4903L36.5266 37.5635H36.6729L36.8947 37.4903L36.9678 37.5635L37.041 37.6366H37.1141V37.7121L37.1873 37.7852H37.2604L37.3336 37.8584H37.4822L37.6285 37.9315L37.7748 37.8584H37.9234L37.9966 37.9315L38.0697 38.0047L37.9234 38.2264L37.9966 38.2996L38.1429 38.3728L38.216 38.5191L38.2892 38.4459V38.5191L38.3646 38.5922H38.5841L38.511 38.6677L38.5841 38.7408L38.8036 39.1066V39.2552V39.3284L38.879 39.4015H38.9522L38.879 39.5478L38.9522 39.6233L39.0985 39.9159V40.1377L39.1717 40.284V40.4303L39.0985 40.5789L39.0253 40.5034V40.652V40.7252H39.2448L39.4666 40.8715V40.9447L39.5397 41.0178L39.4666 41.0933L39.3934 41.0178L39.1717 41.0933V41.1664H39.2448H39.3203H39.3934V41.2396V41.3127H39.4666L39.5397 41.3859H39.6129V41.5322H39.7592L39.686 41.6076L39.7592 41.6808H39.686L39.6129 41.6076H39.5397L39.4666 41.6808L39.3934 41.7539V41.8271V41.9734V42.0489V42.122L39.2448 42.0489V42.1952L39.1717 42.2683L39.2448 42.4146H39.1717L39.0985 42.4901L39.1717 42.5632L39.3934 42.7096L39.3203 42.7827L39.3934 42.929L39.3203 43.0776L39.3934 43.1508V43.2239L39.2448 43.3703L39.1717 43.5188L39.2448 43.592V43.6652V43.7383H39.3203V43.8115L39.2448 43.8846L39.3934 43.9601V44.0332L39.5397 44.1064V44.1795H39.6129V44.2527V44.3259H39.686L39.7592 44.4013H39.8346V44.4745H39.9078V44.5476L39.9809 44.6208L39.9078 44.7671V44.8402L39.9809 44.9888H39.9078L39.7592 44.9157V44.9888V45.062V45.1351L39.686 45.2083L39.8346 45.2815L39.7592 45.3546V45.4301L39.8346 45.5764V45.7227V45.7958V45.8713L39.686 45.9444L39.5397 46.0176H39.4666V46.0908L39.5397 46.1639L39.3934 46.0908H39.3203L39.4666 46.1639L39.3934 46.2371H39.3203L39.3934 46.3125V46.4588L39.4666 46.532L39.5397 46.6783L39.686 46.532V46.7514L39.7592 46.8269L39.8346 46.9L39.9078 46.9732V47.0464H39.9809L40.1273 47.1195V47.0464L40.2759 46.9732V47.0464H40.349V47.1195L40.4222 47.1927H40.349H40.2004L40.2759 47.3413L40.349 47.2658L40.4222 47.3413V47.4144H40.4953V47.4876H40.349V47.5607H40.4222L40.5685 47.6339V47.7071L40.4953 47.7825V47.8556H40.5685L40.6416 47.9288V48.002H40.7148L40.6416 48.0751M81.2914 33.6679H81.3646M81.2914 33.6679H81.072H80.9965L80.7771 33.741L80.5576 33.8142H80.4821L80.3358 33.6679L80.409 33.3753L80.7039 33.2998L80.7771 33.2267L80.9965 33.1535V33.0803H81.072L81.1451 33.0072V32.934H81.2914L81.4377 33.0072L81.5132 32.934L81.7327 32.8586H81.6595V32.7854L81.5132 32.7123L81.4377 32.4928H81.2914V32.4197L81.2183 32.3442L81.2914 32.2711L81.3646 32.1979V32.1247L81.4377 32.0516L81.6595 32.1247L81.879 31.9784L82.0276 32.0516V32.1247L82.1007 32.2711H82.0276L81.9521 32.4197H82.0276L81.879 32.566V32.6391L81.8058 32.7123L81.9521 32.8586H82.0276L82.1739 32.7854L82.542 32.7123L82.6883 32.4928H82.8346L82.9077 32.4197H82.8346L82.9832 32.2711V32.4197H83.1295L83.2026 32.566L82.9832 32.7123L82.9077 32.7854V32.8586L82.9832 32.934L83.2758 32.8586H83.349L83.4244 32.7854H83.4976L83.7902 32.566L83.9388 32.6391L84.0851 32.2711L84.0119 32.1979H84.0851L84.3046 32.3442H84.38L84.4532 32.4197L84.5263 32.4928H84.6726L84.7458 32.566L84.8189 32.6391L84.7458 32.8586H84.8944H84.9675L85.187 32.7123H85.3333L85.4088 32.566H85.5551L85.6282 32.4928L85.9963 32.4197L86.2158 32.4928L86.2912 32.4197H86.3644V32.3442L86.4375 32.1979L86.3644 32.1247L86.7302 31.903H86.8056L86.9519 31.8298H87.0251L87.32 31.7567L87.4663 31.6104L87.3931 31.5372V31.464L87.4663 31.3886L87.6126 31.2423H87.6858L87.8344 31.1691L87.9075 31.096H87.9807L88.127 31.0228L88.2001 30.9474L88.3487 31.0228L88.5682 30.8742L88.79 30.8011L88.9363 30.7279V30.8011H89.0826H89.2312H89.3043L89.597 30.8742L89.6724 30.8011L89.8919 30.6548H90.1868H90.3331L90.4063 30.433L90.5526 30.3598L90.628 30.2867H90.7012L90.7743 30.3598H90.9206H90.9938L91.1424 30.2867L91.2887 30.2135V30.1404H91.5813L91.7299 30.2135H91.8762L92.0226 30.3598L92.1712 30.5084L92.2443 30.8011V30.8742L92.1712 31.0228L92.2443 31.096H92.3175V31.1691V31.3155H92.4638L92.5392 31.3886H92.6124L92.6855 31.464L92.7587 31.6104L92.6855 31.6835V31.8298L92.905 31.7567L92.9782 31.8298L93.0536 31.7567L93.1268 31.8298L93.0536 32.0516V32.1247V32.3442H93.1268L93.1999 32.4197L93.2731 32.3442L93.4194 32.4928L93.4925 32.4197V32.3442L93.568 32.4197L93.6411 32.566H93.7143L93.8606 32.2711L93.9338 32.4197L94.0824 32.3442L94.2287 32.4928H94.3018H94.375L94.2287 32.6391M94.2287 32.6391V32.7123H94.3018L94.2287 32.6391ZM94.2287 32.6391H94.3018H94.4504L94.5236 32.7123H94.5967L94.8162 32.4197L94.7431 32.3442H94.8162L94.8894 32.4197L95.038 32.4928L95.1111 32.4197H95.1843L95.2574 32.3442L95.4038 32.2711H95.5524L95.6255 32.3442H95.6987V32.2711L95.6255 32.1979V32.1247L95.7718 32.0516V31.9784H95.845L95.9936 32.0516H96.0667H96.1399L96.0667 32.1979H96.1399V32.4197H96.213H96.2862L96.213 32.2711V32.1979L96.2862 32.2711V32.1979V32.1247L96.3616 32.1979L96.508 32.1247L96.5811 32.2711L96.6543 32.1979L96.7274 32.2711H96.8006H96.876L96.9492 32.4197V32.3442L97.0955 32.2711L97.315 32.4197L97.3904 32.3442H97.5367H97.6099L97.683 32.4928L97.7562 32.4197H97.8316V32.566L97.9048 32.6391H97.9779L98.0511 32.7123L97.9779 32.7854L98.1243 32.934L98.2729 33.0803V33.1535V33.2267L98.1974 33.2998H98.1243V33.4484L98.0511 33.5216L97.9048 33.5947H97.8316V33.6679H97.9048L97.8316 33.741H97.6099L97.3904 33.9628L97.4636 34.036H97.315L97.2418 34.1823V34.2554L97.315 34.3286L97.2418 34.404H97.3904V34.4772V34.5503H97.2418L97.0955 34.8452L96.9492 34.9184V34.8452H96.8006L96.5811 34.9916M96.5811 34.9916V35.0647H96.508L96.5811 34.9916ZM96.5811 34.9916L96.508 34.9184L95.9936 35.1379H95.845H95.7718H95.6987V35.0647H95.5524H95.4792L95.4038 35.1379L95.3306 35.2842L95.2574 35.3596H95.1843L94.9648 35.4328V35.3596H94.8894V35.2842H94.8162L94.8894 35.1379L94.8162 35.0647H94.6699H94.5967L94.4504 35.211L94.3018 35.2842L94.1555 35.4328L94.0092 35.5059L93.7875 35.3596L93.568 35.5059H93.4925L93.1999 35.6523L93.1268 35.7254V35.8008L92.905 35.9472L92.7587 35.8008L92.6124 36.0203H92.5392H92.4638H92.3906L92.3175 35.9472L92.2443 36.0203L92.0226 36.1666L91.8762 36.3152L91.9494 36.3884L91.8762 36.4615V36.5347H91.8031H91.7299H91.5813H91.5082H91.435V36.6079V36.681L91.3619 36.7565L91.435 36.8296L91.3619 36.9759H91.435V37.0491L91.3619 37.1222V37.2708L91.2887 37.344V37.4171L91.2156 37.4903V37.5635V37.6366V37.7121L91.1424 37.7852H91.2156V37.8584H91.2887L91.2156 38.0047H91.2887L91.2156 38.0778L91.2887 38.151L91.1424 38.2264L91.2156 38.2996L91.067 38.3728L91.1424 38.5191L91.067 38.5922H90.9206L90.8475 38.6677H90.7743V38.7408H90.7012L90.5526 38.814V38.8871V38.9603L90.4794 39.0334V39.182L90.4063 39.2552L90.4794 39.3284H90.5526V39.5478H90.7743L90.9938 39.6233L90.9206 39.6964L91.067 39.7696V39.8427L91.1424 39.9159L91.067 39.9891L91.2887 39.9159V39.9891L91.5082 40.0622V40.1377L91.5813 40.284V40.3571L91.6568 40.5034H91.5813L91.8031 40.5789L91.9494 40.7252H92.0226L92.098 40.7983L92.1712 40.8715H92.098H91.9494L91.5813 40.9447L91.5082 40.8715H91.435H91.3619V40.9447L91.2887 41.0178H91.1424L91.067 41.0933H90.9206H90.8475L90.9206 41.0178L90.9938 40.8715L90.7743 40.7983H90.628L90.4063 40.9447V40.7983V40.7252L90.4794 40.652L90.4063 40.5034H90.1868L90.1113 40.652L90.0382 40.7252H89.8187L89.7456 40.7983V40.9447L89.6724 41.0178H89.597L89.5238 41.0933V41.1664L89.4507 41.2396L89.3775 41.1664H89.3043L89.1557 41.3127L89.0826 41.3859H88.8631L88.7168 41.5322V41.459L88.6414 41.3859L88.5682 41.459L88.4951 41.5322M88.4951 41.5322H88.5682M88.4951 41.5322V41.6076V41.7539L88.5682 41.8271L88.6414 41.9003L88.79 41.7539H88.8631V41.9003M88.8631 41.9003H89.0094M88.8631 41.9003H88.7168L88.6414 41.9734H88.5682H88.4951L88.4219 42.1952V42.2683H88.4951L88.3487 42.4146V42.5632L88.2756 42.4901V42.2683H88.127L88.0538 42.3415L88.127 42.1952H88.0538L87.9807 42.2683L87.8344 42.3415L88.0538 42.4146L87.9807 42.4901H88.0538V42.5632L87.9807 42.6364V42.5632H87.9075V42.4901L87.7612 42.4146L87.6858 42.4901L87.7612 42.3415H87.6126V42.2683L87.4663 42.3415L87.3931 42.2683H87.32V42.3415V42.4146L87.4663 42.4901L87.3931 42.6364H87.4663V42.7827H87.3931H87.32H87.2445H87.1714V42.7096V42.6364L87.0982 42.5632L86.8788 42.6364L86.7302 42.7827V42.8559L86.8788 42.929M86.8788 42.929V42.8559M86.8788 42.929V43.0776M86.8788 43.0776H86.9519M86.8788 43.0776L86.9519 43.1508V43.2239H86.8788H86.657L86.5838 43.3703H86.4375H86.5107L86.4375 43.2971L86.3644 43.4434V43.2971H86.2158H86.1426L86.2158 43.2239L86.1426 43.1508H86.0695H85.9963L85.7745 43.2239L85.5551 43.3703L85.3333 43.6652V43.7383L85.187 43.8115L85.1139 43.7383L84.9675 43.8115H84.8944V43.7383H84.8189L84.6726 43.8115L84.5263 44.0332V44.4013L84.5995 44.6208L84.6726 44.8402H84.7458H84.8944V44.9888L84.7458 45.1351L84.8944 45.4301V45.6495V45.7958L84.8189 45.7227V45.7958V45.8713L84.6726 45.9444L84.5263 46.0176L84.4532 45.9444L84.38 46.0176V45.9444L84.1582 45.8713L84.0119 46.0176H83.9388L83.8633 46.0908H83.7902V46.1639H83.6439V46.0176H83.4244V45.8713L83.349 45.7958H83.2026V45.6495L83.1295 45.5764H82.8346L82.7614 45.6495L82.542 45.7227H82.4688L82.3934 45.6495L82.4688 45.5032H82.3202H82.247V45.4301H82.1007L82.0276 45.5032V45.4301H81.9521H81.8058L81.7327 45.5032L81.6595 45.3546H81.5863H81.5132H81.4377H81.2914H80.9965V45.2815H80.9234L80.5576 45.3546V45.2815L80.409 45.2083H80.0409L79.4534 45.2815L78.6464 45.5032L78.4978 45.5764L78.4246 45.7227L78.2783 45.6495L78.0566 45.7958L77.9834 45.8713V45.9444L77.9102 46.0176H77.8371L77.9102 45.9444L77.8371 45.8713L77.7639 45.7958L77.5422 45.8713L77.1009 46.0908L76.9546 46.1639V46.3125H76.8815L76.8083 46.3857L77.0278 46.3125L76.9546 46.3857L76.8815 46.532V46.6783L76.7352 46.7514V46.8269H76.8083L76.7352 46.9H76.6597L76.4403 47.0464V47.1927L76.5134 47.2658L76.5866 47.1927V47.2658H76.6597L76.5866 47.3413L76.5134 47.4144L76.3671 47.4876V47.6339V47.7825H76.4403H76.2939L76.2185 47.8556V47.9288L76.1453 47.8556L76.2185 47.7825H76.0722H75.7041L75.5578 47.9288L75.4846 48.002L75.5578 48.0751H75.4846H75.4115L75.3383 48.1483V48.2969L75.2652 48.4432V48.37L75.3383 48.2237L75.2652 48.1483L75.1897 48.0751L75.1166 48.1483L75.0434 48.2237V48.1483H74.9703H74.8971V47.9288L75.0434 47.8556L74.9703 47.7071L74.8971 47.6339L74.6754 47.5607H74.529H74.3827V47.6339V47.7071L74.3073 47.5607H74.2341L74.161 47.6339H74.2341L74.3073 47.7825V47.8556H74.161V47.9288V48.002L74.2341 48.0751H74.161V48.1483L74.0878 48.2969H74.0147L74.0878 48.1483L73.8683 48.0751L73.4271 48.1483L72.9859 48.37L71.8085 48.8844L70.7066 49.5451L69.8242 49.9863L69.6779 50.1326L69.4561 50.2081L68.7223 50.7225L68.2079 51.0151L67.5449 51.6049V51.6781V51.8975L67.4717 51.9707L67.3254 52.1193L67.3986 52.1925L67.4717 52.2656V52.3388H67.5449L67.4717 52.4119L67.5449 52.4851H67.4717V52.5605L67.3986 52.4851L67.3254 52.5605V52.6337H67.2523L67.0305 52.7068L66.7379 52.8531L66.5893 52.9995L66.0749 53.3675L65.6337 53.6624L65.5605 53.7356V53.8819L65.4142 53.9551L65.1193 54.1768V54.25L64.8267 54.3231L63.2835 55.2787H63.2081V55.3519L62.8423 55.5736L62.7669 55.72L62.2525 55.8663L61.8113 56.1612L60.8557 56.7487L60.4899 57.0436L59.1662 58.0724L58.4301 58.8085L58.0643 59.2475L57.9911 59.4692L57.9157 59.6887H57.6962V59.7641L57.7694 59.9836L57.8425 60.0568V60.1299V60.2785L57.6962 60.4248L57.6231 60.7197V60.7929H57.6962V60.8661M57.6962 60.8661V60.9392M57.6962 60.8661H57.6231H57.5499L57.3282 61.0124L57.0332 61.3073L56.4457 61.7485L55.7119 62.5555H55.6387V62.4092L55.785 62.2629L56.4457 61.6754L56.3725 61.5999L56.4457 61.5267H56.3725H56.2994L56.2262 61.5999L56.0799 61.5267V61.5999V61.6754V61.7485H55.9313L55.8582 61.8217L55.785 61.7485L55.6387 61.8217L55.4901 61.8948L55.122 61.5999L55.0489 61.5267L54.9757 61.3804H54.8294L54.6831 61.3073L54.6076 61.1587L54.8294 61.0855L54.9026 60.9392V60.7929H54.9757L55.0489 60.7197L54.9026 60.6443L54.7562 60.5711V60.498L54.6076 60.3517V60.2785L54.4613 60.0568V59.9836L54.3882 59.9104L54.4613 59.7641L54.3882 59.5424L54.4613 59.4692V59.3961H54.3882L54.2419 59.3229V59.2475L54.315 59.1743H54.2419V59.1012L54.1687 59.028L54.0933 58.9548L54.0201 58.8085L53.947 58.8817V58.9548V59.028H53.8738H53.8006V59.1012V59.1743L53.7275 59.2475V59.3229V59.4692H53.652L53.5789 59.3229H53.5057V59.3961L53.3594 59.5424L53.2863 59.6887L53.1377 59.8373V59.6887H53.2108V59.4692H53.1377L53.0645 59.5424V59.4692H52.9182V59.3961V59.3229L52.6964 59.1012H52.6233V59.028L52.477 58.9548L52.2575 58.8817L52.1821 58.9548H52.0357L51.5945 59.2475L51.5214 59.5424V59.6887H51.3751L51.2996 59.7641L51.1533 59.9836L51.0801 60.0568L51.007 60.2031H50.9338L50.7852 60.0568L50.7121 59.9836L50.6389 59.9104V59.7641L50.5658 59.6887V59.6155H50.4194V59.4692L50.3463 59.3961V59.3229H50.2708V59.2475V59.1743V59.1012V59.028H50.3463V58.9548L50.4926 58.8817L50.5658 58.7331V58.6599V58.5868L50.6389 58.5136L50.5658 58.4405L50.6389 58.3673L50.5658 58.2919V58.2187V58.1456V57.9992V57.9261H50.6389V57.9992L50.7121 57.8529H50.6389L50.7121 57.7775L50.7852 57.7043V57.6312V57.558H50.5658L50.6389 57.4849L50.5658 57.3363L50.6389 57.1899L50.7121 57.1168V57.0436V56.8973L50.9338 56.7487L51.007 56.6756L51.1533 56.6024V56.4561H51.2265V56.3075L51.2996 56.2343V56.1612L51.2265 56.088V56.1612H51.0801H51.007V56.088L50.9338 56.0149H50.8607V55.9417H50.7852V55.8663H50.6389L50.5658 55.72V55.6468L50.4926 55.5736L50.4194 55.4251L50.3463 55.5005L50.2708 55.4251L50.1977 55.3519L50.1245 55.4251L50.0514 55.3519L49.9051 55.5005H49.7565V55.5736L49.6102 55.6468L49.537 55.7931L49.3907 55.72H49.4638L49.3907 55.6468L49.4638 55.5736H49.3907L49.4638 55.5005L49.3907 55.4251L49.2421 55.3519V55.4251V55.5005V55.6468L49.1689 55.5736L49.0958 55.5005L48.8009 55.5736L48.6545 55.6468H48.5814V55.5005H48.5082L48.4351 55.6468L48.2865 55.72L48.2133 55.5005L48.067 55.4251H47.9184L47.8453 55.2787L47.7721 55.2056L47.6258 55.3519L47.4795 55.2056L47.404 55.2787L47.5526 55.4251H47.4795L47.3309 55.3519L46.9628 55.4251H46.8896V55.5005H46.8165L46.7433 55.4251H46.6702H46.5239L46.3753 55.5736L46.3021 55.4251H46.1558V55.3519H46.0095V55.2056H45.934L45.7877 55.2787L45.8609 55.0593H45.934V54.9861H45.8609L45.7146 55.0593L45.5683 54.9861H45.4928L45.4197 55.0593L45.4928 55.1324M45.4928 55.1324L45.5683 55.0593M45.4928 55.1324V55.2056V55.2787L45.4197 55.3519L45.3465 55.5005H45.2734L45.2002 55.5736H45.127L45.0516 55.4251H44.9784V55.5005H44.8321V55.4251H44.759L44.6858 55.5736L44.5372 55.5005L44.4641 55.4251H44.1714H44.0983H44.0228H43.8765L43.8034 55.5005V55.5736H43.6571V55.72H43.3621H43.289L43.1427 55.6468H43.0672H42.9209L42.7014 55.4251H42.626V55.3519H42.5528L42.626 55.2056V55.1324H42.5528V55.0593H42.4797L42.5528 54.8375L42.4797 54.7644V54.6912L42.5528 54.618L42.626 54.5449L42.4797 54.4717H42.5528V54.3963L42.4797 54.25V54.1768V54.1037H42.5528L42.626 54.0305L42.7014 54.1037L42.7746 53.9551L42.8478 53.8819L42.7746 53.8088V53.6624L42.7014 53.5138H42.7746L42.9941 53.4407V53.2944L43.0672 53.2212L43.1427 53.1481H43.2158V53.0749V52.9995H43.1427L43.2158 52.8531L43.1427 52.78L43.289 52.6337L43.3621 52.4851V52.4119H43.289L43.2158 52.5605L43.1427 52.4851V52.4119L43.289 52.1925L43.4353 51.9707H43.5085L43.7302 51.7512L43.6571 51.6781H43.5085L43.4353 51.6049H43.2158V51.4563H43.1427L42.9941 51.31H42.9209L42.8478 51.3832L42.7746 51.31V51.2368V51.1637L42.7014 51.0882L42.626 51.0151L42.7014 50.8688L42.626 50.7956H42.5528L42.626 50.7225L42.5528 50.6493H42.4065V50.5739L42.1116 50.3544L42.0385 50.2812L42.1871 50.2081V50.0595V49.84V49.6937L42.3334 49.6183L42.2602 49.5451V49.4719H42.1871L41.9653 49.3256V49.2525L41.8922 49.177L41.819 49.2525L41.7458 49.177L41.6704 49.2525V49.177L41.4509 49.1039L41.5241 49.0307H41.4509L41.5241 48.9576L41.3046 48.8844H41.2315V48.8113L41.156 48.7381L41.2315 48.6627H41.156V48.5895L41.0097 48.5163L40.9365 48.4432L40.8634 48.37V48.2237H40.7902V48.1483H40.7148H40.6416H40.5685L40.6416 48.0751M40.6416 48.0751H40.5685M90.7743 41.2396V41.3127H90.8475V41.2396H90.7743ZM90.7743 41.2396L90.8475 41.1664H90.7743V41.2396ZM88.9363 45.062V44.9888M88.9363 45.062H89.0094H89.0826L89.0094 45.1351H89.0826V45.2083L89.0094 45.2815V45.2083L88.9363 45.1351V45.062ZM78.1297 46.0176V45.9444M86.8788 42.7096H86.9519M90.2599 40.7252V40.652M85.85 43.2971V43.2239M85.9963 47.0464V46.9732M85.7014 47.0464V46.9732M88.8631 42.8559H88.9363M67.7666 52.0439H67.8398M90.2599 40.9447H90.3331M90.2599 40.9447V41.0178L90.1868 40.9447H90.2599ZM81.4377 45.5764H81.5132M83.5707 46.2371H83.4976V46.3125H83.5707V46.2371ZM83.5707 46.2371V46.1639M90.7012 41.459V41.5322M90.7012 41.459H90.7743M90.7012 41.459L90.7743 41.5322V41.459M90.7743 41.459V41.3859M88.3487 42.7096L88.2756 42.7827L88.3487 42.8559V42.929V43.0776L88.5682 42.8559L88.79 42.7827V42.7096L88.5682 42.6364V42.7096L88.4951 42.7827H88.4219L88.3487 42.7096ZM88.3487 42.7096V42.6364M88.79 42.5632H88.7168L88.79 42.4901V42.5632ZM90.1868 41.459H90.2599V41.5322H90.1868V41.459ZM86.2158 46.3125H86.1426V46.3857H86.0695V46.4588L86.2912 46.532L86.2158 46.6051L86.2912 46.6783H86.3644L86.5107 46.8269L86.5838 46.6783L86.657 46.7514H86.7302L86.8056 46.8269L86.7302 46.9L86.657 46.8269V46.9V47.0464V47.1195V47.1927V47.2658H86.7302L86.657 47.3413V47.4144L86.5107 47.5607L86.2912 47.4876L86.1426 47.2658L86.2158 47.1195L86.0695 46.9L85.9231 46.9732V46.9L85.85 46.9732H85.7745L85.7014 46.9L85.6282 46.9732H85.5551V47.0464L85.4088 46.9732L85.3333 47.1195L84.8944 47.1927H84.8189L84.5995 47.2658L84.38 47.1927L84.2314 46.9732V46.6783V46.6051H84.3046L84.4532 46.4588H84.5263V46.3857L84.6726 46.3125H84.7458L84.6726 46.2371H84.7458L85.1139 45.8713L85.2602 45.7958V45.5032H85.3333V45.4301L85.4088 45.3546V45.2815V45.2083L85.4819 44.9888V44.8402L85.6282 44.7671L85.7745 44.8402L85.85 44.9157H86.0695V44.9888H86.2158L86.2912 45.062H86.3644L86.4375 45.1351V45.2083L86.5107 45.2815H86.5838L86.657 45.4301H86.7302L86.657 45.5032V45.6495L86.5838 45.7958H86.657V45.8713L86.5107 45.9444L86.5838 46.0176H86.657L86.5838 46.0908H86.657H86.7302L86.657 46.1639L86.4375 46.0908H86.2912L86.1426 46.2371H86.2158V46.3125ZM86.7302 45.8713V45.7958L86.8056 45.8713H86.7302ZM89.8187 41.0933H89.7456V41.0178H89.8187V41.0933ZM68.5005 52.1193H68.5759V52.1925H68.5005V52.1193ZM68.5759 52.3388V52.2656H68.6491V52.3388H68.5759ZM81.3646 45.7227V45.6495H81.4377V45.7227H81.3646ZM85.9963 43.4434L86.0695 43.3703H86.1426V43.4434H85.9963ZM80.7039 46.3857V46.3125H80.7771H80.8502L80.7771 46.3857V46.4588H80.7039V46.3857ZM87.4663 43.0776L87.5394 43.0045L87.6126 43.0776V43.1508L87.5394 43.0776L87.4663 43.1508V43.0776ZM87.4663 45.7227L87.6126 45.6495L87.6858 45.5764V45.6495L87.9807 45.7958L87.9075 45.8713L87.7612 45.7958L87.6126 45.9444L87.5394 45.7958L87.4663 45.7227Z" stroke="white"/>
</svg>
