<svg width="41" height="41" viewBox="0 0 41 41" fill="none" xmlns="http://www.w3.org/2000/svg">
<circle cx="20.6719" cy="20.1538" r="20" fill="#06C419"/>
<path d="M26 13H18.5C17.5717 13 16.6815 13.3687 16.0251 14.0251C15.3687 14.6815 15 15.5717 15 16.5C15 17.4283 15.3687 18.3185 16.0251 18.9749C16.6815 19.6313 17.5717 20 18.5 20H23.5C24.4283 20 25.3185 20.3687 25.9749 21.0251C26.6313 21.6815 27 22.5717 27 23.5C27 24.4283 26.6313 25.3185 25.9749 25.9749C25.3185 26.6313 24.4283 27 23.5 27H15M21 9V31V9Z" stroke="white" stroke-width="2" stroke-linecap="round" stroke-linejoin="round"/>
</svg>
