<svg width="98" height="88" viewBox="0 0 98 88" fill="none" xmlns="http://www.w3.org/2000/svg">
<g filter="url(#filter0_d_738_7155)">
<rect x="4" y="0.000488281" width="90" height="80" rx="8" fill="#FFC801"/>
</g>
<path d="M58.344 30.6085C58.152 30.9445 57.944 31.1925 57.72 31.3525C57.512 31.4965 57.248 31.5685 56.928 31.5685C56.592 31.5685 56.224 31.4485 55.824 31.2085C55.44 30.9525 54.976 30.6725 54.432 30.3685C53.888 30.0645 53.248 29.7925 52.512 29.5525C51.792 29.2965 50.936 29.1685 49.944 29.1685C49.048 29.1685 48.264 29.2805 47.592 29.5045C46.92 29.7125 46.352 30.0085 45.888 30.3925C45.44 30.7765 45.104 31.2405 44.88 31.7845C44.656 32.3125 44.544 32.8965 44.544 33.5365C44.544 34.3525 44.768 35.0325 45.216 35.5765C45.68 36.1205 46.288 36.5845 47.04 36.9685C47.792 37.3525 48.648 37.6965 49.608 38.0005C50.568 38.3045 51.552 38.6325 52.56 38.9845C53.568 39.3205 54.552 39.7205 55.512 40.1845C56.472 40.6325 57.328 41.2085 58.08 41.9125C58.832 42.6005 59.432 43.4485 59.88 44.4565C60.344 45.4645 60.576 46.6885 60.576 48.1285C60.576 49.6965 60.304 51.1685 59.76 52.5445C59.232 53.9045 58.448 55.0965 57.408 56.1205C56.384 57.1285 55.128 57.9285 53.64 58.5205C52.152 59.0965 50.448 59.3845 48.528 59.3845C47.424 59.3845 46.336 59.2725 45.264 59.0485C44.192 58.8405 43.16 58.5365 42.168 58.1365C41.192 57.7365 40.272 57.2565 39.408 56.6965C38.544 56.1365 37.776 55.5125 37.104 54.8245L39 51.7285C39.16 51.5045 39.368 51.3205 39.624 51.1765C39.88 51.0165 40.152 50.9365 40.44 50.9365C40.84 50.9365 41.272 51.1045 41.736 51.4405C42.2 51.7605 42.752 52.1205 43.392 52.5205C44.032 52.9205 44.776 53.2885 45.624 53.6245C46.488 53.9445 47.52 54.1045 48.72 54.1045C50.56 54.1045 51.984 53.6725 52.992 52.8085C54 51.9285 54.504 50.6725 54.504 49.0405C54.504 48.1285 54.272 47.3845 53.808 46.8085C53.36 46.2325 52.76 45.7525 52.008 45.3685C51.256 44.9685 50.4 44.6325 49.44 44.3605C48.48 44.0885 47.504 43.7925 46.512 43.4725C45.52 43.1525 44.544 42.7685 43.584 42.3205C42.624 41.8725 41.768 41.2885 41.016 40.5685C40.264 39.8485 39.656 38.9525 39.192 37.8805C38.744 36.7925 38.52 35.4565 38.52 33.8725C38.52 32.6085 38.768 31.3765 39.264 30.1765C39.776 28.9765 40.512 27.9125 41.472 26.9845C42.432 26.0565 43.616 25.3125 45.024 24.7525C46.432 24.1925 48.048 23.9125 49.872 23.9125C51.92 23.9125 53.808 24.2325 55.536 24.8725C57.264 25.5125 58.736 26.4085 59.952 27.5605L58.344 30.6085Z" fill="white" fill-opacity="0.5"/>
<defs>
<filter id="filter0_d_738_7155" x="0" y="0.000488281" width="98" height="88" filterUnits="userSpaceOnUse" color-interpolation-filters="sRGB">
<feFlood flood-opacity="0" result="BackgroundImageFix"/>
<feColorMatrix in="SourceAlpha" type="matrix" values="0 0 0 0 0 0 0 0 0 0 0 0 0 0 0 0 0 0 127 0" result="hardAlpha"/>
<feOffset dy="4"/>
<feGaussianBlur stdDeviation="2"/>
<feComposite in2="hardAlpha" operator="out"/>
<feColorMatrix type="matrix" values="0 0 0 0 0 0 0 0 0 0 0 0 0 0 0 0 0 0 0.1 0"/>
<feBlend mode="normal" in2="BackgroundImageFix" result="effect1_dropShadow_738_7155"/>
<feBlend mode="normal" in="SourceGraphic" in2="effect1_dropShadow_738_7155" result="shape"/>
</filter>
</defs>
</svg>
