<svg width="41" height="41" viewBox="0 0 41 41" fill="none" xmlns="http://www.w3.org/2000/svg">
<circle cx="20.6719" cy="20.0176" r="20" fill="#7B61FF"/>
<path d="M26 29V27C26 25.9391 25.5786 24.9217 24.8284 24.1716C24.0783 23.4214 23.0609 23 22 23H14C12.9391 23 11.9217 23.4214 11.1716 24.1716C10.4214 24.9217 10 25.9391 10 27V29" stroke="white" stroke-width="2" stroke-linecap="round" stroke-linejoin="round"/>
<path d="M18 19C20.2091 19 22 17.2091 22 15C22 12.7909 20.2091 11 18 11C15.7909 11 14 12.7909 14 15C14 17.2091 15.7909 19 18 19Z" stroke="white" stroke-width="2" stroke-linecap="round" stroke-linejoin="round"/>
<path d="M25 11.1299C25.8604 11.3502 26.623 11.8506 27.1676 12.5522C27.7122 13.2538 28.0078 14.1167 28.0078 15.0049C28.0078 15.8931 27.7122 16.756 27.1676 17.4576C26.623 18.1592 25.8604 18.6596 25 18.8799M32 28.9999V26.9999C31.9993 26.1136 31.7044 25.2527 31.1614 24.5522C30.6184 23.8517 29.8581 23.3515 29 23.1299L32 28.9999Z" stroke="white" stroke-width="2" stroke-linecap="round" stroke-linejoin="round"/>
</svg>
