<svg width="61" height="28" viewBox="0 0 61 28" fill="none" xmlns="http://www.w3.org/2000/svg">
<path d="M54.999 6.59426C54.5163 5.71503 53.8524 5.04561 53.0076 4.58601C52.1627 4.12641 51.177 3.89661 50.0505 3.89661C48.8033 3.89661 47.697 4.17637 46.7314 4.73588C45.7658 5.29539 45.0115 6.0947 44.4683 7.13379C43.9252 8.17289 43.6536 9.37184 43.6536 10.7307C43.6536 12.1294 43.9252 13.3484 44.4683 14.3875C45.0316 15.4266 45.8061 16.2259 46.7917 16.7854C47.7774 17.3449 48.924 17.6247 50.2316 17.6247C51.8408 17.6247 53.1584 17.205 54.1843 16.3658C55.2103 15.5065 55.8841 14.3175 56.206 12.7989H48.9643V9.59165H60.37V13.2485C60.0884 14.7072 59.4849 16.056 58.5596 17.2949C57.6342 18.5339 56.4373 19.533 54.9689 20.2923C53.5205 21.0317 51.8911 21.4014 50.0807 21.4014C48.049 21.4014 46.2084 20.9518 44.5589 20.0525C42.9295 19.1333 41.6421 17.8645 40.6966 16.2459C39.7713 14.6273 39.3086 12.7889 39.3086 10.7307C39.3086 8.67245 39.7713 6.83405 40.6966 5.21546C41.6421 3.57689 42.9295 2.30799 44.5589 1.40877C46.2084 0.489574 48.0389 0.0299735 50.0505 0.0299735C52.4242 0.0299735 54.4861 0.609469 56.2362 1.76846C57.9863 2.90747 59.1932 4.51607 59.857 6.59426H54.999Z" fill="#121F49"/>
<path fill-rule="evenodd" clip-rule="evenodd" d="M5.37096 20.0525C7.02047 20.9717 8.8309 21.4313 10.8023 21.4313C12.7736 21.4313 14.5841 20.9717 16.2336 20.0525C17.8831 19.1333 19.1806 17.8645 20.126 16.2459C20.3529 15.8608 20.5531 15.4642 20.7267 15.056C20.8942 15.465 21.0878 15.8616 21.3075 16.2459C22.253 17.8645 23.5404 19.1333 25.1698 20.0525C26.8193 20.9518 28.6599 21.4014 30.6916 21.4014C32.502 21.4014 34.1314 21.0317 35.5798 20.2923C37.0482 19.533 38.2451 18.5339 39.1705 17.2949C40.0958 16.056 40.6993 14.7072 40.9809 13.2485V9.59165H29.5752V12.7989H36.8169C36.495 14.3175 35.8212 15.5065 34.7952 16.3658C33.7693 17.205 32.4517 17.6247 30.8425 17.6247C29.5349 17.6247 28.3883 17.3449 27.4026 16.7854C26.417 16.2259 25.6425 15.4266 25.0792 14.3875C24.5361 13.3484 24.2645 12.1294 24.2645 10.7307C24.2645 9.37184 24.5361 8.17289 25.0792 7.13379C25.6224 6.0947 26.3767 5.29539 27.3423 4.73588C28.3079 4.17637 29.4142 3.89661 30.6614 3.89661C31.7879 3.89661 32.7736 4.12641 33.6185 4.58601C34.4633 5.04561 35.1272 5.71503 35.6099 6.59426H40.4679C39.8041 4.51607 38.5972 2.90747 36.8471 1.76846C35.097 0.609469 33.0351 0.0299735 30.6614 0.0299735C28.6498 0.0299735 26.8193 0.489574 25.1698 1.40877C23.5404 2.30799 22.253 3.57689 21.3075 5.21546C21.0891 5.59745 20.8965 5.99168 20.7297 6.39815C20.5554 5.9922 20.3542 5.59797 20.126 5.21546C19.1806 3.57689 17.8831 2.298 16.2336 1.3788C14.6042 0.459599 12.7937 0 10.8023 0C8.8309 0 7.02047 0.459599 5.37096 1.3788C3.72145 2.298 2.41391 3.57689 1.44835 5.21546C0.482783 6.83405 0 8.66246 0 10.7007C0 12.7589 0.482783 14.6073 1.44835 16.2459C2.41391 17.8645 3.72145 19.1333 5.37096 20.0525ZM20.7297 6.39815C20.1896 7.71402 19.9195 9.15819 19.9195 10.7307C19.9195 12.3003 20.1886 13.742 20.7267 15.056C21.2918 13.727 21.5744 12.2752 21.5744 10.7007C21.5744 9.14414 21.2928 7.70996 20.7297 6.39815ZM14.1516 16.8453C13.186 17.4049 12.0696 17.6846 10.8023 17.6846C9.53496 17.6846 8.40847 17.4049 7.42279 16.8453C6.45722 16.2658 5.70287 15.4466 5.15974 14.3875C4.61661 13.3284 4.34504 12.0995 4.34504 10.7007C4.34504 9.3019 4.61661 8.08296 5.15974 7.04387C5.70287 5.98479 6.45722 5.1755 7.42279 4.61598C8.40847 4.05647 9.53496 3.77671 10.8023 3.77671C12.0696 3.77671 13.186 4.05647 14.1516 4.61598C15.1171 5.1755 15.8715 5.98479 16.4146 7.04387C16.9577 8.08296 17.2293 9.3019 17.2293 10.7007C17.2293 12.0995 16.9577 13.3284 16.4146 14.3875C15.8715 15.4466 15.1171 16.2658 14.1516 16.8453Z" fill="#121F49"/>
<path d="M20.7297 6.39815C20.1896 7.71402 19.9195 9.15819 19.9195 10.7307C19.9195 12.3003 20.1886 13.742 20.7267 15.056C21.2918 13.727 21.5744 12.2752 21.5744 10.7007C21.5744 9.14414 21.2928 7.70996 20.7297 6.39815Z" fill="#121F49"/>
<path d="M36.2158 27.196C35.8692 27.196 35.5847 27.1142 35.3621 26.9508C35.1396 26.7846 35.0198 26.548 35.0029 26.2409H35.8861C35.8946 26.3451 35.9256 26.4212 35.9791 26.4691C36.0326 26.517 36.1017 26.5409 36.1862 26.5409C36.2622 26.5409 36.3242 26.5226 36.3721 26.486C36.4228 26.4466 36.4482 26.393 36.4482 26.3254C36.4482 26.2381 36.4073 26.1705 36.3256 26.1226C36.2439 26.0747 36.1115 26.0212 35.9284 25.962C35.734 25.8972 35.5762 25.8352 35.4551 25.776C35.3368 25.7141 35.2325 25.6253 35.1424 25.5098C35.055 25.3915 35.0114 25.238 35.0114 25.0492C35.0114 24.8576 35.0593 24.6942 35.1551 24.559C35.2508 24.4209 35.3833 24.3167 35.5523 24.2463C35.7213 24.1758 35.9129 24.1406 36.127 24.1406C36.4735 24.1406 36.7496 24.2223 36.9553 24.3857C37.1638 24.5463 37.2751 24.7731 37.2891 25.0661H36.389C36.3862 24.9759 36.358 24.9083 36.3045 24.8633C36.2538 24.8182 36.1876 24.7956 36.1059 24.7956C36.0439 24.7956 35.9932 24.814 35.9538 24.8506C35.9143 24.8872 35.8946 24.9393 35.8946 25.0069C35.8946 25.0633 35.9157 25.1126 35.958 25.1548C36.0031 25.1943 36.058 25.2295 36.1228 25.2605C36.1876 25.2887 36.2834 25.3253 36.4102 25.3704C36.5989 25.4352 36.7539 25.5 36.875 25.5648C36.999 25.6267 37.1046 25.7155 37.1919 25.831C37.2821 25.9437 37.3272 26.0874 37.3272 26.262C37.3272 26.4395 37.2821 26.5987 37.1919 26.7396C37.1046 26.8804 36.9764 26.9917 36.8074 27.0734C36.6412 27.1551 36.444 27.196 36.2158 27.196Z" fill="#121F49"/>
<path d="M38.5405 24.1871V27.1664H37.7122V24.1871H38.5405Z" fill="#121F49"/>
<path d="M42.4901 24.1871V27.1664H41.6618V25.5225L41.0998 27.1664H40.4067L39.8405 25.5098V27.1664H39.0122V24.1871H40.0137L40.7617 26.1226L41.4928 24.1871H42.4901Z" fill="#121F49"/>
<path d="M43.773 24.1871V25.9155C43.773 26.0761 43.8096 26.2 43.8828 26.2874C43.9589 26.3747 44.073 26.4184 44.2251 26.4184C44.3773 26.4184 44.4914 26.3747 44.5674 26.2874C44.6463 26.1972 44.6858 26.0733 44.6858 25.9155V24.1871H45.514V25.9155C45.514 26.1888 45.4563 26.4226 45.3408 26.617C45.2253 26.8086 45.0675 26.9537 44.8675 27.0523C44.6703 27.1481 44.4505 27.196 44.2082 27.196C43.9659 27.196 43.749 27.1481 43.5574 27.0523C43.3687 26.9537 43.2194 26.8086 43.1095 26.617C43.0024 26.4254 42.9489 26.1916 42.9489 25.9155V24.1871H43.773Z" fill="#121F49"/>
<path d="M46.7983 26.5325H47.7238V27.1664H45.9701V24.1871H46.7983V26.5325Z" fill="#121F49"/>
<path d="M49.9306 26.6804H48.8741L48.7136 27.1664H47.843L48.9291 24.1871H49.8841L50.966 27.1664H50.0912L49.9306 26.6804ZM49.7236 26.0465L49.4024 25.083L49.0854 26.0465H49.7236Z" fill="#121F49"/>
<path d="M52.415 24.1871C52.7277 24.1871 53.0009 24.2505 53.2348 24.3773C53.4714 24.5012 53.6531 24.6759 53.7799 24.9013C53.9067 25.1267 53.9701 25.3844 53.9701 25.6746C53.9701 25.962 53.9053 26.2184 53.7757 26.4437C53.6489 26.6691 53.4672 26.8466 53.2306 26.9762C52.9967 27.103 52.7249 27.1664 52.415 27.1664H51.2359V24.1871H52.415ZM52.3516 26.4353C52.5939 26.4353 52.784 26.3691 52.9221 26.2367C53.0601 26.1043 53.1291 25.9169 53.1291 25.6746C53.1291 25.4295 53.0601 25.2408 52.9221 25.1084C52.784 24.9731 52.5939 24.9055 52.3516 24.9055H52.0642V26.4353H52.3516Z" fill="#121F49"/>
<path d="M55.7718 27.196C55.4929 27.196 55.2365 27.1312 55.0027 27.0016C54.7689 26.8691 54.5829 26.6874 54.4449 26.4564C54.3096 26.2226 54.242 25.9592 54.242 25.6662C54.242 25.3732 54.3096 25.1112 54.4449 24.8802C54.5829 24.6463 54.7689 24.4646 55.0027 24.335C55.2365 24.2054 55.4929 24.1406 55.7718 24.1406C56.0535 24.1406 56.3099 24.2054 56.5409 24.335C56.7748 24.4646 56.9593 24.6463 57.0945 24.8802C57.2297 25.1112 57.2974 25.3732 57.2974 25.6662C57.2974 25.9592 57.2297 26.2226 57.0945 26.4564C56.9593 26.6874 56.7748 26.8691 56.5409 27.0016C56.3071 27.1312 56.0507 27.196 55.7718 27.196ZM55.7718 26.4268C55.9831 26.4268 56.1493 26.3578 56.2705 26.2198C56.3944 26.0817 56.4564 25.8972 56.4564 25.6662C56.4564 25.4295 56.3944 25.2436 56.2705 25.1084C56.1493 24.9703 55.9831 24.9013 55.7718 24.9013C55.5577 24.9013 55.3901 24.9703 55.2689 25.1084C55.1478 25.2436 55.0872 25.4295 55.0872 25.6662C55.0872 25.9 55.1478 26.0859 55.2689 26.224C55.3901 26.3592 55.5577 26.4268 55.7718 26.4268Z" fill="#121F49"/>
<path d="M59.1783 27.1664L58.5867 26.0676H58.498V27.1664H57.6697V24.1871H58.9755C59.215 24.1871 59.4178 24.2294 59.584 24.3139C59.7503 24.3956 59.8756 24.5097 59.9601 24.6562C60.0447 24.7999 60.0869 24.9619 60.0869 25.1422C60.0869 25.345 60.0306 25.5239 59.9179 25.6789C59.808 25.831 59.646 25.9394 59.4319 26.0042L60.1038 27.1664H59.1783ZM58.498 25.5014H58.9079C59.0206 25.5014 59.1051 25.4746 59.1614 25.4211C59.2178 25.3675 59.246 25.2901 59.246 25.1886C59.246 25.0929 59.2164 25.0182 59.1572 24.9647C59.1009 24.9083 59.0178 24.8802 58.9079 24.8802H58.498V25.5014Z" fill="#121F49"/>
</svg>
