<svg width="200" height="97" viewBox="0 0 200 97" fill="none" xmlns="http://www.w3.org/2000/svg">
<path d="M182.207 22.6113C180.607 19.6985 178.408 17.4808 175.609 15.9581C172.81 14.4355 169.545 13.6742 165.813 13.6742C161.681 13.6742 158.015 14.601 154.817 16.4546C151.618 18.3083 149.119 20.9563 147.319 24.3987C145.52 27.8411 144.62 31.8132 144.62 36.3148C144.62 40.9488 145.52 44.987 147.319 48.4295C149.185 51.8719 151.751 54.5199 155.017 56.3735C158.282 58.2271 162.081 59.1539 166.412 59.1539C171.744 59.1539 176.109 57.7637 179.508 54.9833C182.906 52.1367 185.139 48.1978 186.205 43.1665H162.214V32.5414H200V44.656C199.067 49.4887 197.068 53.9572 194.002 58.0616C190.937 62.1661 186.971 65.4761 182.107 67.9917C177.308 70.4411 171.91 71.6658 165.913 71.6658C159.182 71.6658 153.084 70.1763 147.619 67.1973C142.221 64.1521 137.956 59.9484 134.824 54.5861C131.758 49.2239 130.226 43.1334 130.226 36.3148C130.226 29.4961 131.758 23.4057 134.824 18.0435C137.956 12.615 142.221 8.41129 147.619 5.43227C153.084 2.38705 159.148 0.864436 165.813 0.864436C173.676 0.864436 180.507 2.78425 186.305 6.62387C192.103 10.3973 196.101 15.7264 198.301 22.6113H182.207Z" fill="white"/>
<path fill-rule="evenodd" clip-rule="evenodd" d="M17.7935 67.1973C23.2581 70.2425 29.2559 71.7651 35.7869 71.7651C42.3178 71.7651 48.3156 70.2425 53.7803 67.1973C59.2449 64.1521 63.5433 59.9484 66.6755 54.5861C67.4272 53.3105 68.0906 51.9965 68.6656 50.6441C69.2206 51.9991 69.862 53.3131 70.5897 54.5861C73.7219 59.9484 77.987 64.1521 83.385 67.1973C88.8497 70.1763 94.9474 71.6658 101.678 71.6658C107.676 71.6658 113.074 70.4411 117.872 67.9917C122.737 65.4761 126.702 62.1661 129.768 58.0616C132.834 53.9572 134.833 49.4887 135.766 44.656V32.5414H97.9797V43.1665H121.971C120.905 48.1978 118.672 52.1367 115.273 54.9833C111.875 57.7637 107.509 59.1539 102.178 59.1539C97.8464 59.1539 94.0478 58.2271 90.7823 56.3735C87.5168 54.5199 84.9511 51.8719 83.0851 48.4295C81.2858 44.987 80.3861 40.9488 80.3861 36.3148C80.3861 31.8132 81.2858 27.8411 83.0851 24.3987C84.8845 20.9563 87.3835 18.3083 90.5824 16.4546C93.7812 14.601 97.4465 13.6742 101.578 13.6742C105.31 13.6742 108.576 14.4355 111.375 15.9581C114.174 17.4808 116.373 19.6985 117.972 22.6113H134.066C131.867 15.7264 127.869 10.3973 122.071 6.62387C116.273 2.78425 109.442 0.864436 101.578 0.864436C94.9141 0.864436 88.8497 2.38705 83.385 5.43227C77.987 8.41129 73.7219 12.615 70.5897 18.0435C69.8662 19.3089 69.2281 20.615 68.6754 21.9616C68.0981 20.6167 67.4315 19.3107 66.6755 18.0435C63.5433 12.615 59.2449 8.37819 53.7803 5.33296C48.3822 2.28775 42.3844 0.765137 35.7869 0.765137C29.2559 0.765137 23.2581 2.28775 17.7935 5.33296C12.3288 8.37819 7.99706 12.615 4.79824 18.0435C1.59941 23.4057 0 29.463 0 36.2155C0 43.0341 1.59941 49.1577 4.79824 54.5861C7.99706 59.9484 12.3288 64.1521 17.7935 67.1973ZM68.6754 21.9616C66.8861 26.3209 65.9914 31.1053 65.9914 36.3148C65.9914 41.5147 66.8828 46.2912 68.6656 50.6441C70.5377 46.2414 71.4738 41.4318 71.4738 36.2155C71.4738 31.0588 70.541 26.3075 68.6754 21.9616ZM46.8828 56.5721C43.684 58.4257 39.9853 59.3526 35.7869 59.3526C31.5884 59.3526 27.8564 58.4257 24.591 56.5721C21.3921 54.6523 18.8931 51.9381 17.0937 48.4295C15.2944 44.9208 14.3947 40.8495 14.3947 36.2155C14.3947 31.5814 15.2944 27.5432 17.0937 24.1008C18.8931 20.5922 21.3921 17.9111 24.591 16.0574C27.8564 14.2038 31.5884 13.277 35.7869 13.277C39.9853 13.277 43.684 14.2038 46.8828 16.0574C50.0816 17.9111 52.5807 20.5922 54.38 24.1008C56.1794 27.5432 57.079 31.5814 57.079 36.2155C57.079 40.8495 56.1794 44.9208 54.38 48.4295C52.5807 51.9381 50.0816 54.6523 46.8828 56.5721Z" fill="white"/>
<path d="M68.6754 21.9616C66.8861 26.3209 65.9914 31.1053 65.9914 36.3148C65.9914 41.5147 66.8828 46.2912 68.6656 50.6441C70.5377 46.2414 71.4738 41.4318 71.4738 36.2155C71.4738 31.0588 70.541 26.3075 68.6754 21.9616Z" fill="white"/>
<path d="M119.981 90.8631C118.833 90.8631 117.89 90.5925 117.153 90.0511C116.415 89.5005 116.019 88.7165 115.963 87.6991H118.889C118.917 88.0445 119.019 88.2965 119.197 88.4551C119.374 88.6138 119.603 88.6931 119.883 88.6931C120.135 88.6931 120.34 88.6325 120.499 88.5111C120.667 88.3805 120.751 88.2031 120.751 87.9791C120.751 87.6898 120.615 87.4658 120.345 87.3071C120.074 87.1485 119.635 86.9711 119.029 86.7751C118.385 86.5605 117.862 86.3551 117.461 86.1591C117.069 85.9538 116.723 85.6598 116.425 85.2771C116.135 84.8851 115.991 84.3765 115.991 83.7511C115.991 83.1165 116.149 82.5751 116.467 82.1271C116.784 81.6698 117.223 81.3245 117.783 81.0911C118.343 80.8578 118.977 80.7411 119.687 80.7411C120.835 80.7411 121.749 81.0118 122.431 81.5531C123.121 82.0851 123.49 82.8365 123.537 83.8071H120.555C120.545 83.5085 120.452 83.2845 120.275 83.1351C120.107 82.9858 119.887 82.9111 119.617 82.9111C119.411 82.9111 119.243 82.9718 119.113 83.0931C118.982 83.2145 118.917 83.3871 118.917 83.6111C118.917 83.7978 118.987 83.9611 119.127 84.1011C119.276 84.2318 119.458 84.3485 119.673 84.4511C119.887 84.5445 120.205 84.6658 120.625 84.8151C121.25 85.0298 121.763 85.2445 122.165 85.4591C122.575 85.6645 122.925 85.9585 123.215 86.3411C123.513 86.7145 123.663 87.1905 123.663 87.7691C123.663 88.3571 123.513 88.8845 123.215 89.3511C122.925 89.8178 122.501 90.1865 121.941 90.4571C121.39 90.7278 120.737 90.8631 119.981 90.8631ZM127.682 80.8951V90.7651H124.938V80.8951H127.682ZM140.767 80.8951V90.7651H138.023V85.3191L136.161 90.7651H133.865L131.989 85.2771V90.7651H129.245V80.8951H132.563L135.041 87.3071L137.463 80.8951H140.767ZM145.017 80.8951V86.6211C145.017 87.1531 145.138 87.5638 145.381 87.8531C145.633 88.1425 146.011 88.2871 146.515 88.2871C147.019 88.2871 147.397 88.1425 147.649 87.8531C147.91 87.5545 148.041 87.1438 148.041 86.6211V80.8951H150.785V86.6211C150.785 87.5265 150.594 88.3011 150.211 88.9451C149.828 89.5798 149.306 90.0605 148.643 90.3871C147.99 90.7045 147.262 90.8631 146.459 90.8631C145.656 90.8631 144.938 90.7045 144.303 90.3871C143.678 90.0605 143.183 89.5798 142.819 88.9451C142.464 88.3105 142.287 87.5358 142.287 86.6211V80.8951H145.017ZM155.04 88.6651H158.106V90.7651H152.296V80.8951H155.04V88.6651ZM165.417 89.1551H161.917L161.385 90.7651H158.501L162.099 80.8951H165.263L168.847 90.7651H165.949L165.417 89.1551ZM164.731 87.0551L163.667 83.8631L162.617 87.0551H164.731ZM173.647 80.8951C174.683 80.8951 175.588 81.1051 176.363 81.5251C177.147 81.9358 177.749 82.5145 178.169 83.2611C178.589 84.0078 178.799 84.8618 178.799 85.8231C178.799 86.7751 178.584 87.6245 178.155 88.3711C177.735 89.1178 177.133 89.7058 176.349 90.1351C175.574 90.5551 174.674 90.7651 173.647 90.7651H169.741V80.8951H173.647ZM173.437 88.3431C174.24 88.3431 174.87 88.1238 175.327 87.6851C175.784 87.2465 176.013 86.6258 176.013 85.8231C176.013 85.0111 175.784 84.3858 175.327 83.9471C174.87 83.4991 174.24 83.2751 173.437 83.2751H172.485V88.3431H173.437ZM184.768 90.8631C183.844 90.8631 182.995 90.6485 182.22 90.2191C181.445 89.7805 180.829 89.1785 180.372 88.4131C179.924 87.6385 179.7 86.7658 179.7 85.7951C179.7 84.8245 179.924 83.9565 180.372 83.1911C180.829 82.4165 181.445 81.8145 182.22 81.3851C182.995 80.9558 183.844 80.7411 184.768 80.7411C185.701 80.7411 186.551 80.9558 187.316 81.3851C188.091 81.8145 188.702 82.4165 189.15 83.1911C189.598 83.9565 189.822 84.8245 189.822 85.7951C189.822 86.7658 189.598 87.6385 189.15 88.4131C188.702 89.1785 188.091 89.7805 187.316 90.2191C186.541 90.6485 185.692 90.8631 184.768 90.8631ZM184.768 88.3151C185.468 88.3151 186.019 88.0865 186.42 87.6291C186.831 87.1718 187.036 86.5605 187.036 85.7951C187.036 85.0111 186.831 84.3951 186.42 83.9471C186.019 83.4898 185.468 83.2611 184.768 83.2611C184.059 83.2611 183.503 83.4898 183.102 83.9471C182.701 84.3951 182.5 85.0111 182.5 85.7951C182.5 86.5698 182.701 87.1858 183.102 87.6431C183.503 88.0911 184.059 88.3151 184.768 88.3151ZM196.053 90.7651L194.093 87.1251H193.799V90.7651H191.055V80.8951H195.381C196.175 80.8951 196.847 81.0351 197.397 81.3151C197.948 81.5858 198.363 81.9638 198.643 82.4491C198.923 82.9251 199.063 83.4618 199.063 84.0591C199.063 84.7311 198.877 85.3238 198.503 85.8371C198.139 86.3411 197.603 86.7005 196.893 86.9151L199.119 90.7651H196.053ZM193.799 85.2491H195.157C195.531 85.2491 195.811 85.1605 195.997 84.9831C196.184 84.8058 196.277 84.5491 196.277 84.2131C196.277 83.8958 196.179 83.6485 195.983 83.4711C195.797 83.2845 195.521 83.1911 195.157 83.1911H193.799V85.2491Z" fill="white"/>
</svg>
