<svg width="41" height="41" viewBox="0 0 41 41" fill="none" xmlns="http://www.w3.org/2000/svg">
<circle cx="20.6719" cy="20.8813" r="20" fill="#FFC801"/>
<path d="M20.6 25.8C20.4949 26.1808 20.3159 26.5372 20.0731 26.8489C19.8303 27.1605 19.5285 27.4213 19.1849 27.6163C18.8413 27.8113 18.4627 27.9367 18.0707 27.9854C17.6786 28.0341 17.2808 28.0051 16.9 27.9C16.5192 27.7949 16.1628 27.6159 15.8511 27.3731C15.5395 27.1303 15.2787 26.8285 15.0837 26.4849C14.8887 26.1413 14.7633 25.7627 14.7146 25.3707C14.6659 24.9786 14.6949 24.5808 14.8 24.2M12 20L30 15V27L12 23V20Z" stroke="white" stroke-width="2" stroke-linecap="round" stroke-linejoin="round"/>
</svg>
