<svg width="94" height="89" viewBox="0 0 94 89" fill="none" xmlns="http://www.w3.org/2000/svg">
<g filter="url(#filter0_d_738_7169)">
<rect x="4.5" y="0.333496" width="85" height="80" rx="8" fill="#B2000C"/>
</g>
<path d="M65.46 41.9815C65.46 44.5255 65.036 46.8855 64.188 49.0615C63.356 51.2215 62.172 53.0935 60.636 54.6775C59.1 56.2615 57.252 57.5015 55.092 58.3975C52.932 59.2775 50.532 59.7175 47.892 59.7175C45.268 59.7175 42.876 59.2775 40.716 58.3975C38.556 57.5015 36.7 56.2615 35.148 54.6775C33.612 53.0935 32.42 51.2215 31.572 49.0615C30.724 46.8855 30.3 44.5255 30.3 41.9815C30.3 39.4375 30.724 37.0855 31.572 34.9255C32.42 32.7495 33.612 30.8695 35.148 29.2855C36.7 27.7015 38.556 26.4695 40.716 25.5895C42.876 24.6935 45.268 24.2455 47.892 24.2455C49.652 24.2455 51.308 24.4535 52.86 24.8695C54.412 25.2695 55.836 25.8455 57.132 26.5975C58.428 27.3335 59.588 28.2375 60.612 29.3095C61.652 30.3655 62.532 31.5495 63.252 32.8615C63.972 34.1735 64.516 35.5975 64.884 37.1335C65.268 38.6695 65.46 40.2855 65.46 41.9815ZM58.86 41.9815C58.86 40.0775 58.604 38.3735 58.092 36.8695C57.58 35.3495 56.852 34.0615 55.908 33.0055C54.964 31.9495 53.812 31.1415 52.452 30.5815C51.108 30.0215 49.588 29.7415 47.892 29.7415C46.196 29.7415 44.668 30.0215 43.308 30.5815C41.964 31.1415 40.812 31.9495 39.852 33.0055C38.908 34.0615 38.18 35.3495 37.668 36.8695C37.156 38.3735 36.9 40.0775 36.9 41.9815C36.9 43.8855 37.156 45.5975 37.668 47.1175C38.18 48.6215 38.908 49.9015 39.852 50.9575C40.812 51.9975 41.964 52.7975 43.308 53.3575C44.668 53.9175 46.196 54.1975 47.892 54.1975C49.588 54.1975 51.108 53.9175 52.452 53.3575C53.812 52.7975 54.964 51.9975 55.908 50.9575C56.852 49.9015 57.58 48.6215 58.092 47.1175C58.604 45.5975 58.86 43.8855 58.86 41.9815Z" fill="white" fill-opacity="0.5"/>
<defs>
<filter id="filter0_d_738_7169" x="0.5" y="0.333496" width="93" height="88" filterUnits="userSpaceOnUse" color-interpolation-filters="sRGB">
<feFlood flood-opacity="0" result="BackgroundImageFix"/>
<feColorMatrix in="SourceAlpha" type="matrix" values="0 0 0 0 0 0 0 0 0 0 0 0 0 0 0 0 0 0 127 0" result="hardAlpha"/>
<feOffset dy="4"/>
<feGaussianBlur stdDeviation="2"/>
<feComposite in2="hardAlpha" operator="out"/>
<feColorMatrix type="matrix" values="0 0 0 0 0 0 0 0 0 0 0 0 0 0 0 0 0 0 0.1 0"/>
<feBlend mode="normal" in2="BackgroundImageFix" result="effect1_dropShadow_738_7169"/>
<feBlend mode="normal" in="SourceGraphic" in2="effect1_dropShadow_738_7169" result="shape"/>
</filter>
</defs>
</svg>
