<svg width="41" height="41" viewBox="0 0 41 41" fill="none" xmlns="http://www.w3.org/2000/svg">
<circle cx="20.6719" cy="20.7451" r="20" fill="#B2000C"/>
<path d="M21.22 11H20.78C20.2496 11 19.7409 11.2107 19.3658 11.5858C18.9907 11.9609 18.78 12.4696 18.78 13V13.18C18.7796 13.5307 18.6871 13.8752 18.5115 14.1788C18.336 14.4825 18.0837 14.7346 17.78 14.91L17.35 15.16C17.046 15.3355 16.7011 15.4279 16.35 15.4279C15.9989 15.4279 15.654 15.3355 15.35 15.16L15.2 15.08C14.7411 14.8153 14.1958 14.7434 13.684 14.8803C13.1722 15.0172 12.7356 15.3515 12.47 15.81L12.25 16.19C11.9853 16.6489 11.9134 17.1942 12.0503 17.706C12.1872 18.2178 12.5215 18.6544 12.98 18.92L13.13 19.02C13.4323 19.1945 13.6836 19.4451 13.8591 19.7468C14.0345 20.0486 14.1279 20.391 14.13 20.74V21.25C14.1314 21.6024 14.0397 21.949 13.864 22.2545C13.6884 22.5601 13.4352 22.8138 13.13 22.99L12.98 23.08C12.5215 23.3456 12.1872 23.7822 12.0503 24.294C11.9134 24.8058 11.9853 25.3511 12.25 25.81L12.47 26.19C12.7356 26.6485 13.1722 26.9828 13.684 27.1197C14.1958 27.2566 14.7411 27.1847 15.2 26.92L15.35 26.84C15.654 26.6645 15.9989 26.5721 16.35 26.5721C16.7011 26.5721 17.046 26.6645 17.35 26.84L17.78 27.09C18.0837 27.2654 18.336 27.5175 18.5115 27.8212C18.6871 28.1248 18.7796 28.4693 18.78 28.82V29C18.78 29.5304 18.9907 30.0391 19.3658 30.4142C19.7409 30.7893 20.2496 31 20.78 31H21.22C21.7504 31 22.2591 30.7893 22.6342 30.4142C23.0093 30.0391 23.22 29.5304 23.22 29V28.82C23.2204 28.4693 23.3129 28.1248 23.4885 27.8212C23.664 27.5175 23.9163 27.2654 24.22 27.09L24.65 26.84C24.954 26.6645 25.2989 26.5721 25.65 26.5721C26.0011 26.5721 26.346 26.6645 26.65 26.84L26.8 26.92C27.2589 27.1847 27.8042 27.2566 28.316 27.1197C28.8278 26.9828 29.2645 26.6485 29.53 26.19L29.75 25.8C30.0147 25.3411 30.0866 24.7958 29.9497 24.284C29.8128 23.7722 29.4785 23.3356 29.02 23.07L28.87 22.99C28.5648 22.8138 28.3116 22.5601 28.136 22.2545C27.9604 21.949 27.8686 21.6024 27.87 21.25V20.75C27.8686 20.3976 27.9604 20.051 28.136 19.7455C28.3116 19.4399 28.5648 19.1862 28.87 19.01L29.02 18.92C29.4785 18.6544 29.8128 18.2178 29.9497 17.706C30.0866 17.1942 30.0147 16.6489 29.75 16.19L29.53 15.81C29.2645 15.3515 28.8278 15.0172 28.316 14.8803C27.8042 14.7434 27.2589 14.8153 26.8 15.08L26.65 15.16C26.346 15.3355 26.0011 15.4279 25.65 15.4279C25.2989 15.4279 24.954 15.3355 24.65 15.16L24.22 14.91C23.9163 14.7346 23.664 14.4825 23.4885 14.1788C23.3129 13.8752 23.2204 13.5307 23.22 13.18V13C23.22 12.4696 23.0093 11.9609 22.6342 11.5858C22.2591 11.2107 21.7504 11 21.22 11V11Z" stroke="white" stroke-width="2" stroke-linecap="round" stroke-linejoin="round"/>
<path d="M21 24C22.6569 24 24 22.6569 24 21C24 19.3431 22.6569 18 21 18C19.3431 18 18 19.3431 18 21C18 22.6569 19.3431 24 21 24Z" stroke="white" stroke-width="2" stroke-linecap="round" stroke-linejoin="round"/>
</svg>
