<svg width="251" height="161" viewBox="0 0 251 161" fill="none" xmlns="http://www.w3.org/2000/svg">
<path fill-rule="evenodd" clip-rule="evenodd" d="M1.19418 82.545L1 82.3567V82.1625V81.9742L1.19418 81.5976L1.75908 80.8385L2.32986 80.2736L2.51816 80.0854L3.65383 79.7029L3.84213 79.5146L4.21873 78.9497L5.3544 78.3789H5.5427L5.731 78.1906L7.24915 77.814L8.00235 77.4374H8.19065L8.57313 76.6783L9.51462 75.9192L9.70292 75.5426L11.2211 74.5953L11.786 74.407L12.545 73.8421L13.6807 73.4596L14.2456 73.083L14.6222 72.8947L15.193 72.5181L15.7579 71.9473L16.7053 71.759L17.4643 71.3824L18.0292 71.1882L18.2175 70.9999H18.4117L18.6 70.6234L19.1649 70.0585L19.3532 69.8643L20.6772 68.9228L20.8655 68.352L21.0597 68.1637L21.4363 67.7871L22.3836 66.4631L23.1368 64.0035L23.331 63.4327L24.2725 62.297H24.655V62.1087L25.0316 61.9204L25.4082 61.3497L26.7322 60.4082L26.9205 59.8374V59.4608L27.4912 58.1368L28.0561 57.7602L29.1918 57.3777L29.3801 57.0011L29.7626 56.6245L30.5158 55.3006V55.1064V54.5415L30.1392 53.7824V53.2175L29.1918 52.4584L29.0035 52.0818L29.3801 51.5111L29.7626 50.7579L30.1392 50.5696H30.3275L31.4632 50.7579H32.0339L32.7871 50.3813L32.9754 50.1871L33.3579 49.6222L33.9228 49.0573L34.1111 48.4865L34.2994 47.9216L34.4936 47.1625L35.6234 46.2152L35.8176 46.0269V45.8386V45.6503V45.462L36.0059 44.7029L36.1942 43.7555L36.0059 43.5672L35.8176 42.4315L35.4351 41.8666L35.2468 41.6783L35.4351 41.2959L35.2468 40.3485L35.4351 39.9719L35.6234 39.7836H36.3825L36.9532 39.5953H37.1415L37.3298 39.2187L37.8947 39.0245L38.2772 38.083V37.5122L38.6538 36.9473L38.8421 36.3766L39.6012 35.4292L39.9778 35.2409H41.1134H41.3017L42.4374 34.4877L42.6257 34.1052L42.814 32.7812L42.4374 32.4046L42.2491 31.8398V30.8924L42.4374 29.945V29.7567V29.5684L42.0608 28.9976L42.2491 28.0561L43.1965 25.9731L43.3848 25.7848L43.5731 25.5965V25.4023L43.7614 25.214L43.9497 25.0257L45.2737 24.2666L45.8444 23.7017L46.0327 23.1368L46.9801 21.6187L47.3567 21.2421L48.1158 20.6772L48.4924 20.483V20.2947L49.4398 18.5941L49.8164 18.4058L50.0047 17.6468L50.193 17.4585H50.3813L50.952 17.0819L51.5169 16.6994L53.2234 16.3228H54.3591L55.1123 16.1345L55.683 15.9462H55.8713L56.2479 15.7579L56.6304 15.3754L57.007 15.1871L57.9544 14.4339L58.1427 14.0514L58.5193 12.9158L59.0842 11.5918L59.8433 10.0795V9.70292L60.7906 8.37895V8.18476H61.1672H61.3555L61.738 7.80817L62.3029 7.43157V7.04909H62.6795H63.062H63.4386L64.0035 6.48419L64.1977 6.29589L64.9509 6.1076L65.5216 5.72511V5.53682H65.8982L67.4105 5.16022L68.7345 4.78362H68.9228L69.3053 4.59532H69.4936L70.0584 3.64795L70.4409 3.26547L70.8175 3.07717L71.3824 2.32397L71.5766 1.94149H71.9532H72.5181L72.9006 1.5649L73.2772 1.3766H73.8421L74.2245 1.1883L74.6011 1L74.9777 1.1883L75.5485 1.3766L76.1134 1.5649L77.2491 2.88887L77.8199 3.07717V3.45965H78.3848L78.7614 3.64795H78.9555L79.7087 3.45965L80.8444 3.83625L81.6035 3.45965H82.1684L82.9275 3.64795L83.1158 3.83625H83.3041L83.8748 3.64795H84.8163H85.0046L85.1988 3.83625L85.5754 4.02454L86.3345 4.78362L86.5228 4.97192H86.8994L87.276 5.16022L88.7941 4.97192L90.3064 5.53682L90.683 5.72511H91.2538H91.8187L92.3895 5.34852L93.5192 5.16022H93.7134H94.6549H94.8432L95.7906 5.34852H97.6854H98.062V5.16022L98.6327 4.97192L99.3859 4.78362H99.9567L100.145 4.59532L100.898 4.78362L101.469 4.97192L101.846 5.72511L102.034 5.9193L102.793 6.67249H103.358L105.629 6.86079L106.2 6.67249L106.765 6.29589L107.336 6.1076L108.277 6.29589H108.471L108.66 6.48419V6.86079V7.24327L108.277 7.43157H107.712L107.336 7.80817L106.953 9.32044V10.0795V10.2678L107.141 10.6444V12.1626L108.089 13.8631L108.277 14.4339V14.8105L109.036 15.9462H109.225L110.172 16.1345L110.548 16.3228H110.737V16.1345L111.872 15.3754L112.255 14.9988L113.008 13.2982L113.767 11.7801L113.956 11.5918H114.715L115.091 11.7801L115.85 11.9684L116.039 12.3509L116.415 13.2982L116.603 14.8105V15.3754L116.415 18.5941L116.603 18.7824L118.304 19.9181H118.687L118.875 19.7298L119.251 18.9707V18.7824V18.4058V18.2175L118.875 17.2702L119.063 16.3228L118.687 15.7579V15.5637V14.9988L119.063 14.2397L119.44 13.8631L119.634 13.6748V13.4865L119.44 13.1041L119.634 12.5392L119.822 12.3509L120.387 11.9684H120.575H121.711L122.47 11.7801L123.035 11.5918H123.223L124.171 11.9684H124.741L124.93 12.1626H125.495L126.065 11.9684L126.819 11.2152L127.201 11.0269H127.954L128.525 11.2152H129.09H129.849L130.796 10.8386H131.173L132.12 10.6444L132.874 10.8386H133.062H133.444H133.633L134.009 10.6444H134.58L135.145 10.8386L135.522 11.2152L135.716 11.4035H135.904H136.092H136.657L137.04 11.2152H137.228L137.416 10.8386V10.6444L136.469 9.70292V9.51462L136.657 8.56724L136.469 8.37895L136.657 8.18476H137.228L137.416 8.37895L137.793 8.56724L138.364 9.51462L138.552 10.0795L138.74 10.2678H138.929H139.117L139.305 10.8386L139.876 11.0269L140.253 11.4035L140.823 11.5918H141.388L142.147 11.2152L142.336 10.6444L142.901 10.8386L143.283 10.2678L143.471 9.89122L143.66 9.51462V8.56724L143.848 8.37895H144.036L144.795 8.94384L144.984 9.89122L145.36 10.4561L146.119 10.8386H146.308L146.878 10.2678L147.067 9.89122V9.51462V9.13214L147.255 8.75554V8.56724L147.067 8.37895H146.878V8.18476V7.99646V7.80817L147.067 7.61987L147.443 7.04909H147.632L148.014 7.24327L148.955 6.86079H149.903L150.474 7.04909L150.85 6.86079L151.415 6.67249H151.603L152.551 7.43157V7.61987V7.80817L152.933 8.18476L153.122 8.37895L153.498 8.75554L153.875 8.56724H154.257L154.822 7.99646V7.43157L155.199 7.24327H155.958V7.04909L156.334 6.86079H157.094L157.47 6.48419H157.853L158.041 6.29589L158.229 6.1076V6.29589L158.794 6.86079L159.177 7.24327L159.365 7.61987V7.80817V7.99646L158.982 8.18476V8.37895V8.75554L159.741 9.13214L159.93 9.70292H160.118H160.877L161.254 10.2678H161.636L162.013 10.6444L162.772 10.8386L163.148 11.5918L163.713 11.7801H163.902L164.096 12.1626V12.7275H164.284L164.472 13.1041L164.849 13.6748V13.8631L164.472 14.8105H164.284L163.902 15.3754H163.713L163.525 15.7579V16.3228H163.337V16.6994V16.8877H163.148L163.337 17.0819L162.96 17.2702L163.148 17.8351V18.0234V18.2175V18.4058H163.337L163.148 18.7824L163.337 18.9707L163.148 19.159H163.337L163.148 19.3473H163.337L163.148 19.5415V19.7298H163.337V19.9181L163.148 20.1064V20.2947L163.713 20.6772H164.096L164.284 21.0538L164.849 21.2421L165.42 21.807H165.796L166.173 22.0012L166.932 22.1895L167.12 22.5661H167.309V22.9427L167.497 23.3251L167.309 23.5134L167.685 24.2666H167.879V24.4608V24.6491V24.8374L168.256 25.0257V25.214V25.5965L168.633 25.7848V25.9731V26.1614L168.444 26.538V26.9205L168.256 27.2971L168.068 27.4854V27.6737H167.12L166.744 27.4854L166.555 27.6737V27.8619L166.173 28.2444L166.361 28.621H166.173L165.985 29.3801L165.796 29.5684H165.608L165.42 30.1333L165.037 30.3216L165.42 31.0807L165.037 31.8398L164.661 32.7812L165.037 33.5403L165.42 33.9169H165.985V34.2994L166.173 34.676H166.555L166.744 35.0526L167.12 35.2409L167.309 35.4292L167.12 36V36.3766L166.932 36.5649L167.12 37.1357L167.309 37.7005L167.497 38.083L167.309 38.6479H167.497L167.685 38.8362L168.256 39.0245V39.2187H167.879V39.407V39.5953L167.497 39.7836L168.068 40.3485L167.879 40.9193L168.068 41.1076V41.2959L168.444 41.8666L168.633 42.2432V42.0549H168.821H169.392H169.58L169.392 42.2432V42.4315L169.203 42.6198V43.0023L169.58 42.8081L169.768 43.1906H169.957V43.3789L170.151 43.7555V44.138V44.3263L170.527 44.7029L170.339 44.8912H170.527L170.716 45.2678V45.462L170.904 45.8386L171.281 46.0269L171.475 46.2152L171.281 46.4035L171.092 46.5976L171.281 46.9742L171.092 47.3508H170.904L171.092 47.7274V47.9216H170.904L171.092 48.1099H171.281L171.475 48.2982L171.663 48.1099V48.2982L172.04 48.1099H172.228H172.416L172.605 48.2982L172.799 48.1099L173.175 48.2982L173.364 48.1099L173.552 48.2982V48.1099H173.934L174.123 47.9216H174.311L174.499 47.7274L175.064 47.5391V47.3508H175.258V47.1625H175.635L175.823 46.9742V46.7859L176.012 46.5976H176.394L177.147 46.7859L177.336 46.5976L177.524 46.4035H177.906H178.095L177.906 46.7859L178.095 46.9742L178.66 47.3508H179.042V47.1625L179.23 47.3508L179.419 47.7274L179.795 47.1625L179.984 46.9742L180.178 46.7859H180.366L180.554 46.4035H180.743H181.119V46.7859V46.9742V47.1625V47.3508L181.313 47.5391L181.502 47.9216H181.69L181.878 48.1099V48.2982H182.067L181.878 48.4865L182.067 48.6748L182.443 48.8631V48.6748L183.202 48.2982V48.4865L183.579 48.6748H183.961L184.338 48.8631H184.526H184.715V49.0573V49.2456L184.903 49.4339V49.8105L185.097 49.9988L184.715 50.3813V50.7579L184.526 50.9462L184.715 51.3228L184.903 51.5111L185.285 51.8935V52.0818H185.097L184.903 52.2701V52.4584L184.715 52.8409V53.0292L184.526 53.2175L184.715 53.4058V53.5941L184.338 53.7824V54.1649H183.961L183.767 54.3532L183.961 54.7298H183.767L183.391 54.9181V55.4889L183.014 55.6772L181.878 55.4889V55.8655L181.69 56.0538V56.2421L181.878 56.6245L181.69 57.0011V57.1894V57.3777V57.9485V58.1368H181.313L181.119 58.3251H180.931L181.119 58.7017L180.554 59.2725V59.4608L180.178 59.6491L179.984 60.0257L180.178 60.4082H180.366H180.554L180.931 60.9731V61.1614L181.119 61.3497L180.931 61.7321L180.743 61.9204H180.554L180.366 62.1087L180.743 62.4853L180.554 62.8678L180.931 63.0561V63.4327L181.313 64.0035L181.502 64.1918H181.69L181.878 64.5684L182.067 64.7567V64.945V65.1392V65.3275H181.878L181.313 64.945L181.119 65.1392H180.931V65.3275L180.743 65.5158L180.366 65.3275V65.5158H180.178L179.984 65.8923L180.366 66.269L180.743 66.4631V66.6514L180.178 66.8397H179.795L179.419 67.028L179.23 66.8397H179.042V67.028V67.2163L179.23 67.4046H179.419H179.607H179.795H179.984H180.178L180.554 67.5988L181.119 67.4046L181.502 67.7871L181.878 67.9754L182.067 68.5403H182.443V68.7345L182.067 69.1111L181.313 69.2994L181.119 69.8643H180.743H180.554H180.366L180.554 70.0585L180.178 70.9999L180.366 71.1882L179.795 71.5707L179.984 71.9473L179.795 71.759L179.607 72.1356L179.419 72.3239V72.5181L179.607 72.7064L179.419 72.8947L179.607 73.2713L179.23 73.6479H179.042L179.23 73.8421H179.419V74.0304H179.607V74.2187L179.795 74.407V74.5953V74.7836H179.984V74.9778H180.178L180.366 75.3543H180.743L180.554 75.7309L180.743 75.9192L180.554 76.49V76.6783L181.119 76.8666V77.0549H181.313L181.502 77.2432L182.067 77.4374V77.2432L182.443 77.4374H182.637H183.014L183.202 77.6257V77.814L183.391 77.6257H183.767L183.961 77.814L183.767 78.0023V78.1906H183.961L184.338 78.3789V78.7614L184.15 78.9497L185.097 79.3263V79.7029L185.474 79.5146L185.662 79.7029H186.233H186.609V80.0854H186.986V80.2736L187.362 80.4619H187.557L187.745 80.2736V80.6502L187.174 81.221V81.5976H187.745L187.362 81.9742L187.933 82.545L187.362 82.7333V82.9216L187.557 83.1099H187.933L188.122 83.2982L188.31 83.4865V83.869L187.933 84.0573H187.745L187.933 83.869L187.745 83.6807L187.557 83.869L187.174 83.6807L186.986 83.869L186.421 84.0573V84.2456L186.038 84.0573L185.85 84.2456V84.4339L186.038 84.6222L185.85 84.8163L186.038 85.0046H186.421L186.609 85.5695H186.986V85.7578L187.362 85.9461V85.7578L187.933 86.1403H188.31L188.498 85.9461V86.1403H188.686L189.069 86.7052L189.257 86.5169H189.822V86.7052L189.634 86.8935V87.0818H189.446V87.2701L189.069 87.4643L188.686 88.2175V88.6L188.881 88.7883L188.686 88.9766L188.881 89.5415H188.498V89.7298H188.686V89.9239L188.881 90.1122L189.069 90.4888L189.634 90.6771L189.822 90.4888L190.393 90.3005L190.958 90.4888L191.34 89.9239H191.717H191.905V90.3005H192.282L192.476 90.4888L192.664 90.1122L193.606 89.7298L193.8 89.5415L193.988 89.7298L194.936 89.5415L195.124 89.3532V89.5415L195.312 90.1122V90.3005L195.124 90.8654L194.936 91.0596L195.312 91.2479L195.689 90.8654H196.071L196.448 90.4888L197.013 90.3005L197.772 90.4888L198.337 90.1122L198.908 90.3005L199.096 90.1122L199.472 89.9239V89.7298L199.855 89.5415L200.231 89.3532L200.42 89.1649L200.608 88.9766H200.991L201.367 88.6V88.4058L201.744 88.2175H201.932L201.744 88.6V88.7883H202.12V88.9766V89.3532H202.315V89.5415V89.9239H202.503L202.879 89.7298H203.068V89.5415V89.1649H203.256L203.444 88.7883H203.639H204.015V88.6L204.392 88.7883V88.6L204.774 88.7883V89.1649L204.962 89.3532H205.151L205.527 89.1649L205.716 88.9766V88.7883L205.527 87.8409H205.904L206.098 87.4643L206.286 87.6526L206.475 88.0292H206.663L206.851 88.2175H207.234V88.0292H207.04L206.851 87.8409L206.663 87.6526V87.4643L206.851 87.0818H207.04L207.234 86.8935V86.5169H207.04V86.1403L206.663 85.5695H206.098H205.904L205.339 85.7578L204.774 85.9461H204.58L204.203 85.5695L204.392 84.8163L205.151 84.6222L205.339 84.4339L205.904 84.2456V84.0573H206.098L206.286 83.869V83.6807H206.663L207.04 83.869L207.234 83.6807L207.799 83.4865H207.61V83.2982L207.234 83.1099L207.04 82.545H206.663V82.3567L206.475 82.1625L206.663 81.9742L206.851 81.7859V81.5976L207.04 81.4093L207.61 81.5976L208.175 81.221L208.558 81.4093V81.5976L208.746 81.9742H208.558L208.364 82.3567H208.558L208.175 82.7333V82.9216L207.987 83.1099L208.364 83.4865H208.558L208.934 83.2982L209.882 83.1099L210.258 82.545H210.635L210.823 82.3567H210.635L211.017 81.9742V82.3567H211.394L211.582 82.7333L211.017 83.1099L210.823 83.2982V83.4865L211.017 83.6807L211.771 83.4865H211.959L212.153 83.2982H212.341L213.095 82.7333L213.477 82.9216L213.854 81.9742L213.665 81.7859H213.854L214.419 82.1625H214.613L214.801 82.3567L214.989 82.545H215.366L215.554 82.7333L215.743 82.9216L215.554 83.4865H215.937H216.125L216.69 83.1099H217.067L217.261 82.7333H217.637L217.826 82.545L218.773 82.3567L219.338 82.545L219.532 82.3567H219.72V82.1625L219.909 81.7859L219.72 81.5976L220.662 81.0268H220.856L221.233 80.8385H221.421L222.18 80.6502L222.557 80.2736L222.368 80.0854V79.897L222.557 79.7029L222.933 79.3263H223.122L223.504 79.138L223.692 78.9497H223.881L224.257 78.7614L224.445 78.5672L224.828 78.7614L225.393 78.3789L225.964 78.1906L226.34 78.0023V78.1906H226.717H227.099H227.288L228.041 78.3789L228.235 78.1906L228.8 77.814H229.559H229.936L230.124 77.2432L230.5 77.0549L230.695 76.8666H230.883L231.071 77.0549H231.448H231.636L232.019 76.8666L232.395 76.6783V76.49H233.148L233.531 76.6783H233.907L234.284 77.0549L234.667 77.4374L234.855 78.1906V78.3789L234.667 78.7614L234.855 78.9497H235.043V79.138V79.5146H235.42L235.614 79.7029H235.802L235.991 79.897L236.179 80.2736L235.991 80.4619V80.8385L236.555 80.6502L236.744 80.8385L236.938 80.6502L237.126 80.8385L236.938 81.4093V81.5976V82.1625H237.126L237.315 82.3567L237.503 82.1625L237.879 82.545L238.068 82.3567V82.1625L238.262 82.3567L238.45 82.7333H238.638L239.015 81.9742L239.203 82.3567L239.586 82.1625L239.962 82.545H240.151H240.339L239.962 82.9216V83.1099H240.151L239.962 82.9216H240.151H240.533L240.722 83.1099H240.91L241.475 82.3567L241.286 82.1625H241.475L241.663 82.3567L242.046 82.545L242.234 82.3567H242.422L242.61 82.1625L242.987 81.9742H243.369L243.558 82.1625H243.746V81.9742L243.558 81.7859V81.5976L243.934 81.4093V81.221H244.123L244.505 81.4093H244.693H244.882L244.693 81.7859H244.882V82.3567H245.07H245.258L245.07 81.9742V81.7859L245.258 81.9742V81.7859V81.5976L245.453 81.7859L245.829 81.5976L246.017 81.9742L246.206 81.7859L246.394 81.9742H246.582H246.777L246.965 82.3567V82.1625L247.341 81.9742L247.906 82.3567L248.1 82.1625H248.477H248.665L248.854 82.545L249.042 82.3567H249.236V82.7333L249.424 82.9216H249.613L249.801 83.1099L249.613 83.2982L249.989 83.6807L250.372 84.0573V84.2456V84.4339L250.178 84.6222H249.989V85.0046L249.801 85.1929L249.424 85.3812H249.236V85.5695H249.424L249.236 85.7578H248.665L248.1 86.3286L248.289 86.5169H247.906L247.718 86.8935V87.0818L247.906 87.2701L247.718 87.4643H248.1V87.6526V87.8409H247.718L247.341 88.6L246.965 88.7883V88.6H246.582L246.017 88.9766V89.1649H245.829L246.017 88.9766L245.829 88.7883L244.505 89.3532H244.123H243.934H243.746V89.1649H243.369H243.181L242.987 89.3532L242.799 89.7298L242.61 89.9239H242.422L241.857 90.1122V89.9239H241.663V89.7298H241.475L241.663 89.3532L241.475 89.1649H241.098H240.91L240.533 89.5415L240.151 89.7298L239.774 90.1122L239.398 90.3005L238.827 89.9239L238.262 90.3005H238.068L237.315 90.6771L237.126 90.8654V91.0596L236.555 91.4362L236.179 91.0596L235.802 91.6245H235.614H235.42H235.231L235.043 91.4362L234.855 91.6245L234.284 92.0011L233.907 92.3836L234.096 92.5719L233.907 92.7602V92.9485H233.719H233.531H233.148H232.96H232.772V93.1368V93.3251L232.584 93.5193L232.772 93.7076L232.584 94.0842H232.772V94.2725L232.584 94.4608V94.8432L232.395 95.0315V95.2198L232.207 95.4081V95.5964V95.7847V95.9789L232.019 96.1672H232.207V96.3555H232.395L232.207 96.7321H232.395L232.207 96.9204L232.395 97.1087L232.019 97.3029L232.207 97.4912L231.824 97.6795L232.019 98.0561L231.824 98.2444H231.448L231.26 98.4386H231.071V98.6269H230.883L230.5 98.8152V99.0035V99.1918L230.312 99.3801V99.7625L230.124 99.9508L230.312 100.139H230.5V100.704H231.071L231.636 100.898L231.448 101.087L231.824 101.275V101.463L232.019 101.651L231.824 101.84L232.395 101.651V101.84L232.96 102.028V102.222L233.148 102.599V102.787L233.343 103.164H233.148L233.719 103.358L234.096 103.734H234.284L234.478 103.923L234.667 104.111H234.478H234.096L233.148 104.299L232.96 104.111H232.772H232.584V104.299L232.395 104.488H232.019L231.824 104.682H231.448H231.26L231.448 104.488L231.636 104.111L231.071 103.923H230.695L230.124 104.299V103.923V103.734L230.312 103.546L230.124 103.164H229.559L229.365 103.546L229.176 103.734H228.612L228.423 103.923V104.299L228.235 104.488H228.041L227.853 104.682V104.87L227.664 105.058L227.476 104.87H227.288L226.905 105.247L226.717 105.435H226.152L225.775 105.812V105.623L225.581 105.435L225.393 105.623L225.205 105.812V106.006V106.382L225.393 106.571L225.581 106.759L225.964 106.382H226.152V106.759H225.775L225.581 106.947H225.393H225.205L225.016 107.518V107.706H225.205L224.828 108.083V108.465L224.64 108.277V107.706H224.257L224.069 107.895L224.257 107.518H224.069L223.881 107.706L223.504 107.895L224.069 108.083L223.881 108.277H224.069V108.465L223.881 108.654V108.465H223.692V108.277L223.316 108.083L223.122 108.277L223.316 107.895H222.933V107.706L222.557 107.895L222.368 107.706H222.18V107.895V108.083L222.557 108.277L222.368 108.654H222.557V109.03H222.368H222.18H221.986H221.798V108.842V108.654L221.609 108.465L221.044 108.654L220.662 109.03V109.219L221.044 109.407V109.789L221.233 109.978V110.166H221.044H220.474L220.285 110.543H219.909H220.097L219.909 110.354L219.72 110.731V110.354H219.338H219.15L219.338 110.166L219.15 109.978H218.961H218.773L218.202 110.166L217.637 110.543L217.067 111.302V111.49L216.69 111.678L216.502 111.49L216.125 111.678H215.937V111.49H215.743L215.366 111.678L214.989 112.249V113.196L215.178 113.761L215.366 114.326H215.554H215.937V114.709L215.554 115.085L215.937 115.844V116.409V116.786L215.743 116.598V116.786V116.98L215.366 117.168L214.989 117.357L214.801 117.168L214.613 117.357V117.168L214.042 116.98L213.665 117.357H213.477L213.283 117.545H213.095V117.733H212.718V117.357H212.153V116.98L211.959 116.786H211.582V116.409L211.394 116.221H210.635L210.447 116.409L209.882 116.598H209.693L209.499 116.409L209.693 116.033H209.311H209.123V115.844H208.746L208.558 116.033V115.844H208.364H207.987L207.799 116.033L207.61 115.65H207.422H207.234H207.04H206.663H205.904V115.462H205.716L204.774 115.65V115.462L204.392 115.274H203.444L201.932 115.462L199.855 116.033L199.472 116.221L199.284 116.598L198.908 116.409L198.337 116.786L198.148 116.98V117.168L197.96 117.357H197.772L197.96 117.168L197.772 116.98L197.584 116.786L197.013 116.98L195.877 117.545L195.501 117.733V118.116H195.312L195.124 118.304L195.689 118.116L195.501 118.304L195.312 118.681V119.057L194.936 119.246V119.44H195.124L194.936 119.628H194.741L194.177 120.005V120.381L194.365 120.57L194.553 120.381V120.57H194.741L194.553 120.764L194.365 120.952L193.988 121.14V121.517V121.899H194.177H193.8L193.606 122.088V122.276L193.417 122.088L193.606 121.899H193.229H192.282L191.905 122.276L191.717 122.464L191.905 122.653H191.717H191.529L191.34 122.841V123.223L191.152 123.6V123.412L191.34 123.035L191.152 122.841L190.958 122.653L190.77 122.841L190.581 123.035V122.841H190.393H190.205V122.276L190.581 122.088L190.393 121.705L190.205 121.517L189.634 121.329H189.257H188.881V121.517V121.705L188.686 121.329H188.498L188.31 121.517H188.498L188.686 121.899V122.088H188.31V122.276V122.464L188.498 122.653H188.31V122.841L188.122 123.223H187.933L188.122 122.841L187.557 122.653L186.421 122.841L185.285 123.412L182.255 124.736L179.419 126.436L177.147 127.572L176.771 127.948L176.2 128.143L174.311 129.467L172.987 130.22L171.281 131.738V131.926V132.491L171.092 132.679L170.716 133.062L170.904 133.25L171.092 133.439V133.627H171.281L171.092 133.815L171.281 134.003H171.092V134.198L170.904 134.003L170.716 134.198V134.386H170.527L169.957 134.574L169.203 134.951L168.821 135.327L167.497 136.275L166.361 137.034L166.173 137.222V137.599L165.796 137.787L165.037 138.358V138.546L164.284 138.734L160.312 141.194H160.118V141.382L159.177 141.953L158.982 142.33L157.658 142.706L156.523 143.465L154.063 144.978L153.122 145.737L149.715 148.385L147.82 150.279L146.878 151.409L146.69 151.98L146.496 152.545H145.931V152.739L146.119 153.304L146.308 153.492V153.681V154.063L145.931 154.44L145.743 155.199V155.387H145.931V155.575H145.743H145.554L144.984 155.952L144.224 156.711L142.712 157.847L140.823 159.924H140.635V159.547L141.012 159.171L142.712 157.658L142.524 157.464L142.712 157.276H142.524H142.336L142.147 157.464L141.771 157.276V157.464V157.658V157.847H141.388L141.2 158.035L141.012 157.847L140.635 158.035L140.253 158.223L139.305 157.464L139.117 157.276L138.929 156.899H138.552L138.175 156.711L137.981 156.329L138.552 156.14L138.74 155.764V155.387H138.929L139.117 155.199L138.74 155.005L138.364 154.816V154.628L137.981 154.251V154.063L137.605 153.492V153.304L137.416 153.116L137.605 152.739L137.416 152.168L137.605 151.98V151.792H137.416L137.04 151.603V151.409L137.228 151.221H137.04V151.033L136.851 150.844L136.657 150.656L136.469 150.279L136.281 150.468V150.656V150.844H136.092H135.904V151.033V151.221L135.716 151.409V151.603V151.98H135.522L135.333 151.603H135.145V151.792L134.768 152.168L134.58 152.545L134.198 152.927V152.545H134.386V151.98H134.198L134.009 152.168V151.98H133.633V151.792V151.603L133.062 151.033H132.874V150.844L132.497 150.656L131.932 150.468L131.738 150.656H131.361L130.226 151.409L130.037 152.168V152.545H129.661L129.467 152.739L129.09 153.304L128.902 153.492L128.713 153.869H128.525L128.143 153.492L127.954 153.304L127.766 153.116V152.739L127.578 152.545V152.357H127.201V151.98L127.013 151.792V151.603H126.819V151.409V151.221V151.033V150.844H127.013V150.656L127.389 150.468L127.578 150.085V149.897V149.709L127.766 149.52L127.578 149.332L127.766 149.144L127.578 148.95V148.761V148.573V148.196V148.008H127.766V148.196L127.954 147.82H127.766L127.954 147.626L128.143 147.437V147.249V147.061H127.578L127.766 146.872L127.578 146.49L127.766 146.113L127.954 145.925V145.737V145.36L128.525 144.978L128.713 144.789L129.09 144.601V144.225H129.278V143.842L129.467 143.654V143.465L129.278 143.277V143.465H128.902H128.713V143.277L128.525 143.089H128.337V142.901H128.143V142.706H127.766L127.578 142.33V142.141L127.389 141.953L127.201 141.571L127.013 141.765L126.819 141.571L126.63 141.382L126.442 141.571L126.254 141.382L125.877 141.765H125.495V141.953L125.118 142.141L124.93 142.518L124.553 142.33H124.741L124.553 142.141L124.741 141.953H124.553L124.741 141.765L124.553 141.571L124.171 141.382V141.571V141.765V142.141L123.982 141.953L123.794 141.765L123.035 141.953L122.658 142.141H122.47V141.765H122.282L122.094 142.141L121.711 142.33L121.523 141.765L121.146 141.571H120.764L120.575 141.194L120.387 141.006L120.01 141.382L119.634 141.006L119.44 141.194L119.822 141.571H119.634L119.251 141.382L118.304 141.571H118.116V141.765H117.927L117.739 141.571H117.551H117.174L116.792 141.953L116.603 141.571H116.227V141.382H115.85V141.006H115.656L115.279 141.194L115.468 140.629H115.656V140.441H115.468L115.091 140.629L114.715 140.441H114.52L114.332 140.629L114.52 140.817V141.006V141.194L114.332 141.382L114.144 141.765H113.956L113.767 141.953H113.579L113.385 141.571H113.196V141.765H112.82V141.571H112.632L112.443 141.953L112.061 141.765L111.872 141.571H111.119H110.931H110.737H110.36L110.172 141.765V141.953H109.795V142.33H109.036H108.848L108.471 142.141H108.277H107.901L107.336 141.571H107.141V141.382H106.953L107.141 141.006V140.817H106.953V140.629H106.765L106.953 140.058L106.765 139.87V139.682L106.953 139.494L107.141 139.305L106.765 139.117H106.953V138.923L106.765 138.546V138.358V138.17H106.953L107.141 137.981L107.336 138.17L107.524 137.787L107.712 137.599L107.524 137.41V137.034L107.336 136.651H107.524L108.089 136.463V136.086L108.277 135.898L108.471 135.71H108.66V135.522V135.327H108.471L108.66 134.951L108.471 134.763L108.848 134.386L109.036 134.003V133.815H108.848L108.66 134.198L108.471 134.003V133.815L108.848 133.25L109.225 132.679H109.413L109.984 132.115L109.795 131.926H109.413L109.225 131.738H108.66V131.355H108.471L108.089 130.979H107.901L107.712 131.167L107.524 130.979V130.791V130.602L107.336 130.408L107.141 130.22L107.336 129.843L107.141 129.655H106.953L107.141 129.467L106.953 129.278H106.577V129.084L105.817 128.519L105.629 128.331L106.012 128.143V127.76V127.195V126.819L106.388 126.624L106.2 126.436V126.248H106.012L105.441 125.871V125.683L105.253 125.489L105.064 125.683L104.876 125.489L104.682 125.683V125.489L104.117 125.301L104.305 125.112H104.117L104.305 124.924L103.74 124.736H103.552V124.547L103.358 124.359L103.552 124.165H103.358V123.977L102.981 123.788L102.793 123.6L102.605 123.412V123.035H102.416V122.841H102.222H102.034H101.846L102.034 122.653L102.222 122.464H102.034V122.276L101.846 122.088H101.657V121.899L101.846 121.705V121.517L101.469 121.329H101.281V121.14H101.657V120.952H101.469V120.764L101.281 120.57L101.092 120.764L100.898 120.381H101.281H101.469L101.281 120.193V120.005H101.092V119.816L100.71 120.005V120.193L100.333 120.005H100.145V119.816L99.9567 119.628L99.7625 119.44L99.5742 119.246V118.681L99.1976 119.057L99.0093 118.681L98.821 118.492V118.116L98.6327 117.922H98.821L99.0093 117.733L98.6327 117.545H98.821L99.1976 117.733L99.0093 117.545V117.357H99.1976L99.5742 117.168L99.9567 116.98V116.786V116.598V116.221L99.7625 115.844V115.65L99.9567 115.462L99.5742 115.274L99.7625 115.085V114.897V114.709V114.52L100.145 114.709H100.333L100.145 114.326V114.138L100.333 113.761L100.145 113.573V113.385H99.9567V113.196H99.7625L99.5742 113.002H99.3859V112.814V112.626H99.1976V112.437L98.821 112.249V112.061L98.4385 111.867L98.6327 111.678V111.49H98.4385V111.302V111.113L98.2503 110.925L98.4385 110.543L98.821 110.166V109.978L98.6327 109.789L98.821 109.407L98.6327 109.03L98.821 108.842L98.2503 108.465L98.062 108.277L98.2503 108.083H98.4385L98.2503 107.706L98.4385 107.518V107.141L98.821 107.33V107.141V106.947V106.571V106.382L99.0093 106.194L99.1976 106.006H99.3859L99.5742 106.194H99.7625L99.5742 106.006L99.7625 105.812H99.3859V105.435H99.1976L99.0093 105.247H98.821V105.058V104.87H98.6327H98.4385H98.2503V104.682L98.821 104.488L99.0093 104.682L99.1976 104.488L99.0093 104.299V104.111L98.4385 103.734H97.8736V103.546V103.164L98.062 103.358L98.2503 102.975V102.599L98.062 102.222V101.651L97.6854 100.898L97.4971 100.704L97.6854 100.327H97.4971L97.3029 100.139V99.9508V99.5684L96.738 98.6269L96.5497 98.4386L96.738 98.2444H96.1731L95.9789 98.0561V97.8678L95.7906 98.0561L95.6023 97.6795L95.2257 97.4912L95.0374 97.3029L95.414 96.7321L95.2257 96.5438L95.0374 96.3555H94.6549L94.2783 96.5438L93.9017 96.3555H93.5192L93.331 96.1672H93.1427L92.9544 95.9789V95.7847H92.7661L92.5778 95.5964L92.3895 95.4081L91.8187 95.5964H91.4421L91.2538 95.4081L91.0596 95.2198L90.8713 95.4081L90.4947 95.0315H90.1181V94.4608V94.2725L90.3064 93.8959V93.7076H90.4947V93.5193L89.9239 93.1368L89.5473 92.9485H88.9824L88.4117 92.3836V92.1894L88.6 92.0011L88.7941 91.4362L88.6 91.0596V90.8654L88.0351 90.4888L87.8468 90.6771V90.8654L88.0351 91.2479L87.8468 91.4362H87.6585H87.4702L87.276 90.8654H86.8994L86.3345 90.6771V90.8654L85.7637 91.4362L85.3871 91.2479H85.0046L84.628 91.8128H84.4397H84.0631L83.4924 91.6245L83.1158 92.0011L82.5509 92.1894H81.9801L81.6035 92.0011L81.221 92.1894H81.0327V92.0011L80.8444 91.8128L80.0853 91.4362L79.7087 91.6245H79.3321L79.1438 92.0011H78.7614H78.1965L78.0082 91.6245L77.6316 91.2479V91.0596L77.0608 90.6771L76.6842 90.8654H76.3017L76.1134 91.0596V91.6245H75.9251L75.7368 92.0011L75.166 91.8128L74.7894 92.0011L74.2245 91.6245H74.0362L73.6538 92.0011L73.2772 91.8128L73.0889 91.6245L72.9006 91.2479L72.7123 91.0596L72.3298 90.8654L71.5766 90.6771L71.1941 91.0596L70.8175 91.2479L70.4409 91.0596L69.8701 90.8654L69.6818 90.4888H69.3053H69.117L68.9228 90.6771L68.7345 90.8654L67.9813 92.1894L67.4105 92.3836H67.2222H67.0339L66.8456 92.1894L66.6573 92.0011H66.0865H65.5216L65.3333 91.8128L65.5216 90.6771V90.4888V90.3005L64.9509 90.1122L64.7626 89.5415L64.5743 89.3532L64.1977 88.6L63.062 87.8409L62.8737 87.6526H62.1146H61.9263L61.5497 87.8409H61.3555L60.9789 87.2701H60.414L60.0316 87.4643H59.655L58.1427 86.7052H56.6304L55.4947 86.3286L54.924 85.9461L54.5474 85.7578L53.9766 85.5695H53.7883L53.2234 85.1929L53.0351 84.4339H52.8409L52.4643 84.0573L52.0877 83.869L51.5169 84.0573H51.3286L50.5754 83.869H50.193L49.4398 83.6807L49.0573 83.869H48.6807L47.9216 83.4865H47.3567L46.7918 84.2456H46.5976L45.8444 84.6222H45.462L45.2737 84.4339L44.5205 84.6222L44.3322 84.8163L43.9497 84.6222L43.3848 84.4339L42.6257 83.869L42.2491 83.6807H41.3017H40.9251L40.3544 84.0573H39.7895L39.6012 83.6807L39.4129 82.9216V82.7333H39.0304L38.8421 82.545H38.6538L38.2772 82.3567L36.1942 82.9216H36.0059L35.4351 82.7333L35.0585 82.3567L34.8702 82.1625L34.6819 81.9742L33.5462 81.0268H32.9754L32.0339 80.4619L31.2749 80.2736H31.0866H30.3275L29.3801 79.7029L29.0035 79.5146H28.8152L28.4386 79.7029L28.2503 79.897L27.8678 80.4619L27.6795 81.0268V81.221L27.4912 81.9742V82.1625L27.6795 83.2982L26.9205 83.4865L26.5439 83.6807L25.7848 84.0573H25.5965V83.869V83.1099L25.2199 82.545L25.0316 82.3567L24.2725 82.545L23.8959 82.7333L23.5193 83.1099L22.9485 82.9216H21.6246L20.6772 82.545L20.3006 82.3567H20.1123L19.924 82.1625H19.5415V82.3567H19.1649L18.2175 82.9216H18.0292L17.4643 82.545L17.0819 82.3567H16.8936L16.1404 81.5976L15.7579 81.0268H15.5696L15.193 81.221L13.4924 82.3567L12.3567 82.7333H11.786L11.0328 82.3567L10.2737 82.1625L10.0854 81.9742H9.8971H9.32632L8.37894 82.3567L8.00235 82.1625L6.67837 81.221L6.11348 81.0268L4.78951 81.221L4.59532 81.4093L4.21873 81.5976L3.84213 81.7859V81.9742L3.45965 82.1625L3.08305 82.545L2.70645 82.9216L1.94738 83.1099L1.57078 83.6807L1.38248 83.1099L1.19418 82.545ZM231.26 105.058V105.247H231.071V105.058L231.26 104.87H231.071V105.058H231.26ZM226.34 114.897H226.529H226.717L226.529 115.085H226.717V115.274L226.529 115.462V115.274L226.34 115.085V114.897ZM225.964 108.465H225.775L225.964 108.277V108.465ZM229.559 105.623H229.747V105.812H229.559V105.623ZM219.338 118.116H219.15V118.304H218.961V118.492L219.532 118.681L219.338 118.869L219.532 119.057H219.72L220.097 119.44L220.285 119.057L220.474 119.246H220.662L220.856 119.44L220.662 119.628L220.474 119.44V119.628V120.005V120.193V120.381V120.57H220.662L220.474 120.764V120.952L220.097 121.329L219.532 121.14L219.15 120.57L219.338 120.193L218.961 119.628L218.585 119.816V119.628L218.396 119.816H218.202L218.014 119.628L217.826 119.816H217.637V120.005L217.261 119.816L217.067 120.193L215.937 120.381H215.743L215.178 120.57L214.613 120.381L214.23 119.816V119.057V118.869H214.419L214.801 118.492H214.989V118.304L215.366 118.116H215.554L215.366 117.922H215.554L216.502 116.98L216.878 116.786V116.033H217.067V115.844L217.261 115.65V115.462V115.274L217.449 114.709V114.326L217.826 114.138L218.202 114.326L218.396 114.52H218.961V114.709H219.338L219.532 114.897H219.72L219.909 115.085V115.274L220.097 115.462H220.285L220.474 115.844H220.662L220.474 116.033V116.409L220.285 116.786H220.474V116.98L220.097 117.168L220.285 117.357H220.474L220.285 117.545H220.474H220.662L220.474 117.733L219.909 117.545H219.532L219.15 117.922H219.338V118.116ZM220.662 116.98V116.786L220.856 116.98H220.662ZM229.747 104.299V104.488L229.559 104.299H229.747ZM228.612 104.682H228.423V104.488H228.612V104.682ZM212.341 118.116V117.922H212.53V118.116H212.341ZM173.74 133.062H173.934V133.25H173.74V133.062ZM173.934 133.627V133.439H174.123V133.627H173.934ZM230.883 105.623H231.071V105.812L230.883 105.623ZM206.851 116.598V116.409H207.04V116.598H206.851ZM218.773 110.731L218.961 110.543H219.15V110.731H218.773ZM205.151 118.304V118.116H205.339H205.527L205.339 118.304V118.492H205.151V118.304ZM222.557 109.789L222.745 109.601L222.933 109.789V109.978L222.745 109.789L222.557 109.978V109.789ZM222.557 116.598L222.933 116.409L223.122 116.221V116.409L223.881 116.786L223.692 116.98L223.316 116.786L222.933 117.168L222.745 116.786L222.557 116.598ZM225.393 108.842V108.654L225.964 108.842V109.03L225.393 109.219L224.828 109.789V109.407V109.219L224.64 109.03L224.828 108.842L225.016 109.03H225.205L225.393 108.842Z" fill="#06C419"/>
<path d="M206.663 85.5695L207.04 86.1403V86.5169H207.234V86.8935L207.04 87.0818H206.851L206.663 87.4643V87.6526L206.851 87.8409L207.04 88.0292H207.234V88.2175H206.851L206.663 88.0292H206.475L206.286 87.6526L206.098 87.4643L205.904 87.8409H205.527L205.716 88.7883V88.9766L205.527 89.1649L205.151 89.3532H204.962L204.774 89.1649V88.7883L204.392 88.6V88.7883L204.015 88.6V88.7883H203.639H203.444L203.256 89.1649H203.068V89.5415V89.7298H202.879L202.503 89.9239H202.315V89.5415V89.3532H202.12V88.9766V88.7883H201.744V88.6L201.932 88.2175H201.744L201.367 88.4058V88.6L200.991 88.9766H200.608L200.42 89.1649L200.231 89.3532L199.855 89.5415L199.472 89.7298V89.9239L199.096 90.1122L198.908 90.3005L198.337 90.1122L197.772 90.4888L197.013 90.3005L196.448 90.4888L196.071 90.8654H195.689L195.312 91.2479L194.936 91.0596L195.124 90.8654L195.312 90.3005V90.1122L195.124 89.5415V89.3532L194.936 89.5415L193.988 89.7298L193.8 89.5415L193.606 89.7298L192.664 90.1122L192.476 90.4888L192.282 90.3005H191.905V89.9239H191.717H191.34L190.958 90.4888L190.393 90.3005L189.822 90.4888L189.634 90.6771L189.069 90.4888L188.881 90.1122L188.686 89.9239V89.7298H188.498V89.5415H188.881L188.686 88.9766L188.881 88.7883L188.686 88.6V88.2175L189.069 87.4643L189.446 87.2701V87.0818H189.634V86.8935L189.822 86.7052V86.5169H189.257L189.069 86.7052L188.686 86.1403H188.498V85.9461L188.31 86.1403H187.933L187.362 85.7578V85.9461L186.986 85.7578V85.5695H186.609L186.421 85.0046H186.038L185.85 84.8163L186.038 84.6222L185.85 84.4339V84.2456L186.038 84.0573L186.421 84.2456V84.0573L186.986 83.869L187.174 83.6807L187.557 83.869L187.745 83.6807L187.933 83.869L187.745 84.0573H187.933L188.31 83.869V83.4865L188.122 83.2982L187.933 83.1099H187.557L187.362 82.9216V82.7333L187.933 82.545L187.362 81.9742L187.745 81.5976H187.174V81.221L187.745 80.6502V80.2736L187.557 80.4619H187.362L186.986 80.2736V80.0854H186.609V79.7029H186.233H185.662L185.474 79.5146L185.097 79.7029V79.3263L184.15 78.9497L184.338 78.7614V78.3789L183.961 78.1906H183.767V78.0023L183.961 77.814L183.767 77.6257H183.391L183.202 77.814V77.6257L183.014 77.4374H182.637H182.443L182.067 77.2432V77.4374L181.502 77.2432L181.313 77.0549H181.119V76.8666L180.554 76.6783V76.49L180.743 75.9192L180.554 75.7309L180.743 75.3543H180.366L180.178 74.9778H179.984V74.7836H179.795V74.5953V74.407L179.607 74.2187V74.0304H179.419V73.8421H179.23L179.042 73.6479H179.23L179.607 73.2713L179.419 72.8947L179.607 72.7064L179.419 72.5181V72.3239L179.607 72.1356L179.795 71.759L179.984 71.9473L179.795 71.5707L180.366 71.1882L180.178 70.9999L180.554 70.0585L180.366 69.8643H180.554H180.743H181.119L181.313 69.2994L182.067 69.1111L182.443 68.7345V68.5403H182.067L181.878 67.9754L181.502 67.7871L181.119 67.4046L180.554 67.5988L180.178 67.4046H179.984H179.795H179.607H179.419H179.23L179.042 67.2163V67.028V66.8397H179.23L179.419 67.028L179.795 66.8397H180.178L180.743 66.6514V66.4631L180.366 66.269L179.984 65.8923L180.178 65.5158H180.366V65.3275L180.743 65.5158L180.931 65.3275V65.1392H181.119L181.313 64.945L181.878 65.3275H182.067V65.1392V64.945V64.7567L181.878 64.5684L181.69 64.1918H181.502L181.313 64.0035L180.931 63.4327V63.0561L180.554 62.8678L180.743 62.4853L180.366 62.1087L180.554 61.9204H180.743L180.931 61.7321L181.119 61.3497L180.931 61.1614V60.9731L180.554 60.4082H180.366H180.178L179.984 60.0257L180.178 59.6491L180.554 59.4608V59.2725L181.119 58.7017L180.931 58.3251H181.119L181.313 58.1368H181.69V57.9485V57.3777V57.1894V57.0011L181.878 56.6245L181.69 56.2421V56.0538L181.878 55.8655V55.4889L183.014 55.6772L183.391 55.4889V54.9181L183.767 54.7298H183.961L183.767 54.3532L183.961 54.1649H184.338V53.7824L184.715 53.5941V53.4058L184.526 53.2175L184.715 53.0292V52.8409L184.903 52.4584V52.2701L185.097 52.0818H185.285V51.8935L184.903 51.5111L184.715 51.3228L184.526 50.9462L184.715 50.7579V50.3813L185.097 49.9988L184.903 49.8105V49.4339L184.715 49.2456V49.0573V48.8631H184.526H184.338L183.961 48.6748H183.579L183.202 48.4865V48.2982L182.443 48.6748V48.8631L182.067 48.6748L181.878 48.4865L182.067 48.2982H181.878V48.1099L181.69 47.9216H181.502L181.313 47.5391L181.119 47.3508V47.1625V46.9742V46.7859V46.4035H180.743H180.554L180.366 46.7859H180.178L179.984 46.9742L179.795 47.1625L179.419 47.7274L179.23 47.3508L179.042 47.1625V47.3508H178.66L178.095 46.9742L177.906 46.7859L178.095 46.4035H177.906H177.524L177.336 46.5976L177.147 46.7859L176.394 46.5976H176.012L175.823 46.7859V46.9742L175.635 47.1625H175.258V47.3508H175.064V47.5391L174.499 47.7274L174.311 47.9216H174.123L173.934 48.1099H173.552V48.2982L173.364 48.1099L173.175 48.2982L172.799 48.1099L172.605 48.2982L172.416 48.1099H172.228H172.04L171.663 48.2982V48.1099L171.475 48.2982L171.281 48.1099H171.092L170.904 47.9216H171.092V47.7274L170.904 47.3508H171.092L171.281 46.9742L171.092 46.5976L171.281 46.4035L171.475 46.2152L171.281 46.0269L170.904 45.8386L170.716 45.462V45.2678L170.527 44.8912H170.339L170.527 44.7029L170.151 44.3263V44.138V43.7555L169.957 43.3789V43.1906H169.768L169.58 42.8081L169.203 43.0023V42.6198L169.392 42.4315V42.2432L169.58 42.0549H169.392H168.821H168.633V42.2432L168.444 41.8666L168.068 41.2959V41.1076L167.879 40.9193L168.068 40.3485L167.497 39.7836L167.879 39.5953V39.407V39.2187H168.256V39.0245L167.685 38.8362L167.497 38.6479H167.309L167.497 38.083L167.309 37.7005L167.12 37.1357L166.932 36.5649L167.12 36.3766V36L167.309 35.4292L167.12 35.2409L166.744 35.0526L166.555 34.676H166.173L165.985 34.2994V33.9169H165.42L165.037 33.5403L164.661 32.7812L165.037 31.8398L165.42 31.0807L165.037 30.3216L165.42 30.1333L165.608 29.5684H165.796L165.985 29.3801L166.173 28.621H166.361L166.173 28.2444L166.555 27.8619V27.6737L166.744 27.4854L167.12 27.6737H168.068V27.4854L168.256 27.2971L168.444 26.9205V26.538L168.633 26.1614V25.9731V25.7848L168.256 25.5965V25.214V25.0257L167.879 24.8374V24.6491V24.4608V24.2666H167.685L167.309 23.5134L167.497 23.3251L167.309 22.9427V22.5661H167.12L166.932 22.1895L166.173 22.0012L165.796 21.807H165.42L164.849 21.2421L164.284 21.0538L164.096 20.6772H163.713L163.148 20.2947V20.1064L163.337 19.9181V19.7298H163.148V19.5415L163.337 19.3473H163.148L163.337 19.159H163.148L163.337 18.9707L163.148 18.7824L163.337 18.4058H163.148V18.2175V18.0234V17.8351L162.96 17.2702L163.337 17.0819L163.148 16.8877H163.337V16.6994V16.3228H163.525V15.7579L163.713 15.3754H163.902L164.284 14.8105H164.472L164.849 13.8631V13.6748L164.472 13.1041L164.284 12.7275H164.096V12.1626L163.902 11.7801H163.713L163.148 11.5918L162.772 10.8386L162.013 10.6444L161.636 10.2678H161.254L160.877 9.70292H160.118H159.93L159.741 9.13214L158.982 8.75554V8.37895V8.18476L159.365 7.99646V7.80817V7.61987L159.177 7.24327L158.794 6.86079L158.229 6.29589V6.1076L158.041 6.29589L157.853 6.48419H157.47L157.094 6.86079H156.334L155.958 7.04909V7.24327H155.199L154.822 7.43157V7.99646L154.257 8.56724H153.875L153.498 8.75554L153.122 8.37895L152.933 8.18476L152.551 7.80817V7.61987V7.43157L151.603 6.67249H151.415L150.85 6.86079L150.474 7.04909L149.903 6.86079H148.955L148.014 7.24327L147.632 7.04909H147.443L147.067 7.61987L146.878 7.80817V7.99646V8.18476V8.37895H147.067L147.255 8.56724V8.75554L147.067 9.13214V9.51462V9.89122L146.878 10.2678L146.308 10.8386H146.119L145.36 10.4561L144.984 9.89122L144.795 8.94384L144.036 8.37895H143.848L143.66 8.56724V9.51462L143.471 9.89122L143.283 10.2678L142.901 10.8386L142.336 10.6444L142.147 11.2152L141.388 11.5918H140.823L140.253 11.4035L139.876 11.0269L139.305 10.8386L139.117 10.2678H138.929H138.74L138.552 10.0795L138.364 9.51462L137.793 8.56724L137.416 8.37895L137.228 8.18476H136.657L136.469 8.37895L136.657 8.56724L136.469 9.51462V9.70292L137.416 10.6444V10.8386L137.228 11.2152H137.04L136.657 11.4035H136.092H135.904H135.716L135.522 11.2152L135.145 10.8386L134.58 10.6444H134.009L133.633 10.8386H133.444H133.062H132.874L132.12 10.6444L131.173 10.8386H130.796L129.849 11.2152H129.09H128.525L127.954 11.0269H127.201L126.819 11.2152L126.065 11.9684L125.495 12.1626H124.93L124.741 11.9684H124.171L123.223 11.5918H123.035L122.47 11.7801L121.711 11.9684H120.575H120.387L119.822 12.3509L119.634 12.5392L119.44 13.1041L119.634 13.4865V13.6748L119.44 13.8631L119.063 14.2397L118.687 14.9988V15.5637V15.7579L119.063 16.3228L118.875 17.2702L119.251 18.2175V18.4058V18.7824V18.9707L118.875 19.7298L118.687 19.9181H118.304L116.603 18.7824L116.415 18.5941L116.603 15.3754V14.8105L116.415 13.2982L116.039 12.3509L115.85 11.9684L115.091 11.7801L114.715 11.5918H113.956L113.767 11.7801L113.008 13.2982L112.255 14.9988L111.872 15.3754L110.737 16.1345V16.3228H110.548L110.172 16.1345L109.225 15.9462H109.036L108.277 14.8105V14.4339L108.089 13.8631L107.141 12.1626V10.6444L106.953 10.2678V10.0795V9.32044L107.336 7.80817L107.712 7.43157H108.277L108.66 7.24327V6.86079V6.48419L108.471 6.29589H108.277L107.336 6.1076L106.765 6.29589L106.2 6.67249L105.629 6.86079L103.358 6.67249H102.793L102.034 5.9193L101.846 5.72511L101.469 4.97192L100.898 4.78362L100.145 4.59532L99.9567 4.78362H99.3859L98.6327 4.97192L98.062 5.16022V5.34852H97.6854H95.7906L94.8432 5.16022H94.6549H93.7134H93.5192L92.3895 5.34852L91.8187 5.72511H91.2538H90.683L90.3064 5.53682L88.7941 4.97192L87.276 5.16022L86.8994 4.97192H86.5228L86.3345 4.78362L85.5754 4.02454L85.1988 3.83625L85.0046 3.64795H84.8163H83.8748L83.3041 3.83625H83.1158L82.9275 3.64795L82.1684 3.45965H81.6035L80.8444 3.83625L79.7087 3.45965L78.9555 3.64795H78.7614L78.3848 3.45965H77.8199V3.07717L77.2491 2.88887L76.1134 1.5649L75.5485 1.3766L74.9777 1.1883L74.6011 1L74.2245 1.1883L73.8421 1.3766H73.2772L72.9006 1.5649L72.5181 1.94149H71.9532H71.5766L71.3824 2.32397L70.8175 3.07717L70.4409 3.26547L70.0584 3.64795L69.4936 4.59532H69.3053L68.9228 4.78362H68.7345L67.4105 5.16022L65.8982 5.53682H65.5216V5.72511L64.9509 6.1076L64.1977 6.29589L64.0035 6.48419L63.4386 7.04909H63.062H62.6795H62.3029V7.43157L61.738 7.80817L61.3555 8.18476H61.1672H60.7906V8.37895L59.8433 9.70292V10.0795L59.0842 11.5918L58.5193 12.9158L58.1427 14.0514L57.9544 14.4339L57.007 15.1871L56.6304 15.3754L56.2479 15.7579L55.8713 15.9462H55.683L55.1123 16.1345L54.3591 16.3228H53.2234L51.5169 16.6994L50.952 17.0819L50.3813 17.4585H50.193L50.0047 17.6468L49.8164 18.4058L49.4398 18.5941L48.4924 20.2947V20.483L48.1158 20.6772L47.3567 21.2421L46.9801 21.6187L46.0327 23.1368L45.8444 23.7017L45.2737 24.2666L43.9497 25.0257L43.7614 25.214L43.5731 25.4023V25.5965L43.3848 25.7848L43.1965 25.9731L42.2491 28.0561L42.0608 28.9976L42.4374 29.5684V29.7567V29.945L42.2491 30.8924V31.8398L42.4374 32.4046L42.814 32.7812L42.6257 34.1052L42.4374 34.4877L41.3017 35.2409H41.1134H39.9778L39.6012 35.4292L38.8421 36.3766L38.6538 36.9473L38.2772 37.5122V38.083L37.8947 39.0245L37.3298 39.2187L37.1415 39.5953H36.9532L36.3825 39.7836H35.6234L35.4351 39.9719L35.2468 40.3485L35.4351 41.2959L35.2468 41.6783L35.4351 41.8666L35.8176 42.4315L36.0059 43.5672L36.1942 43.7555L36.0059 44.7029L35.8176 45.462V45.6503V45.8386V46.0269L35.6234 46.2152L34.4936 47.1625L34.2994 47.9216L34.1111 48.4865L33.9228 49.0573L33.3579 49.6222L32.9754 50.1871L32.7871 50.3813L32.0339 50.7579H31.4632L30.3275 50.5696H30.1392L29.7626 50.7579L29.3801 51.5111L29.0035 52.0818L29.1918 52.4584L30.1392 53.2175V53.7824L30.5158 54.5415V55.1064V55.3006L29.7626 56.6245L29.3801 57.0011L29.1918 57.3777L28.0561 57.7602L27.4912 58.1368L26.9205 59.4608V59.8374L26.7322 60.4082L25.4082 61.3497L25.0316 61.9204L24.655 62.1087V62.297H24.2725L23.331 63.4327L23.1368 64.0035L22.3836 66.4631L21.4363 67.7871L21.0597 68.1637L20.8655 68.352L20.6772 68.9228L19.3532 69.8643L19.1649 70.0585L18.6 70.6234L18.4117 70.9999H18.2175L18.0292 71.1882L17.4643 71.3824L16.7053 71.759L15.7579 71.9473L15.193 72.5181L14.6222 72.8947L14.2456 73.083L13.6807 73.4596L12.545 73.8421L11.786 74.407L11.2211 74.5953L9.70292 75.5426L9.51462 75.9192L8.57313 76.6783L8.19065 77.4374H8.00235L7.24915 77.814L5.731 78.1906L5.5427 78.3789H5.3544L4.21873 78.9497L3.84213 79.5146L3.65383 79.7029L2.51816 80.0854L2.32986 80.2736L1.75908 80.8385L1.19418 81.5976L1 81.9742V82.1625V82.3567L1.19418 82.545L1.38248 83.1099L1.57078 83.6807L1.94738 83.1099L2.70645 82.9216L3.08305 82.545L3.45965 82.1625L3.84213 81.9742V81.7859L4.21873 81.5976L4.59532 81.4093L4.78951 81.221L6.11348 81.0268L6.67837 81.221L8.00235 82.1625L8.37894 82.3567L9.32632 81.9742H9.8971H10.0854L10.2737 82.1625L11.0328 82.3567L11.786 82.7333H12.3567L13.4924 82.3567L15.193 81.221L15.5696 81.0268H15.7579L16.1404 81.5976L16.8936 82.3567H17.0819L17.4643 82.545L18.0292 82.9216H18.2175L19.1649 82.3567H19.5415V82.1625H19.924L20.1123 82.3567H20.3006L20.6772 82.545L21.6246 82.9216H22.9485L23.5193 83.1099L23.8959 82.7333L24.2725 82.545L25.0316 82.3567L25.2199 82.545L25.5965 83.1099V83.869V84.0573H25.7848L26.5439 83.6807L26.9205 83.4865L27.6795 83.2982L27.4912 82.1625V81.9742L27.6795 81.221V81.0268L27.8678 80.4619L28.2503 79.897L28.4386 79.7029L28.8152 79.5146H29.0035L29.3801 79.7029L30.3275 80.2736H31.0866H31.2749L32.0339 80.4619L32.9754 81.0268H33.5462L34.6819 81.9742L34.8702 82.1625L35.0585 82.3567L35.4351 82.7333L36.0059 82.9216H36.1942L38.2772 82.3567L38.6538 82.545H38.8421L39.0304 82.7333H39.4129V82.9216L39.6012 83.6807L39.7895 84.0573H40.3544L40.9251 83.6807H41.3017H42.2491L42.6257 83.869L43.3848 84.4339L43.9497 84.6222L44.3322 84.8163L44.5205 84.6222L45.2737 84.4339L45.462 84.6222H45.8444L46.5976 84.2456H46.7918L47.3567 83.4865H47.9216L48.6807 83.869H49.0573L49.4398 83.6807L50.193 83.869H50.5754L51.3286 84.0573H51.5169L52.0877 83.869L52.4643 84.0573L52.8409 84.4339H53.0351L53.2234 85.1929L53.7883 85.5695H53.9766L54.5474 85.7578L54.924 85.9461L55.4947 86.3286L56.6304 86.7052H58.1427L59.655 87.4643H60.0316L60.414 87.2701H60.9789L61.3555 87.8409H61.5497L61.9263 87.6526H62.1146H62.8737L63.062 87.8409L64.1977 88.6L64.5743 89.3532L64.7626 89.5415L64.9509 90.1122L65.5216 90.3005V90.4888V90.6771L65.3333 91.8128L65.5216 92.0011H66.0865H66.6573L66.8456 92.1894L67.0339 92.3836H67.2222H67.4105L67.9813 92.1894L68.7345 90.8654L68.9228 90.6771L69.117 90.4888H69.3053H69.6818L69.8701 90.8654L70.4409 91.0596L70.8175 91.2479L71.1941 91.0596L71.5766 90.6771L72.3298 90.8654L72.7123 91.0596L72.9006 91.2479L73.0889 91.6245L73.2772 91.8128L73.6538 92.0011L74.0362 91.6245H74.2245L74.7894 92.0011L75.166 91.8128L75.7368 92.0011L75.9251 91.6245H76.1134V91.0596L76.3017 90.8654H76.6842L77.0608 90.6771L77.6316 91.0596V91.2479L78.0082 91.6245L78.1965 92.0011H78.7614H79.1438L79.3321 91.6245H79.7087L80.0853 91.4362L80.8444 91.8128L81.0327 92.0011V92.1894H81.221L81.6035 92.0011L81.9801 92.1894H82.5509L83.1158 92.0011L83.4924 91.6245L84.0631 91.8128H84.4397H84.628L85.0046 91.2479H85.3871L85.7637 91.4362L86.3345 90.8654V90.6771L86.8994 90.8654H87.276L87.4702 91.4362H87.6585H87.8468L88.0351 91.2479L87.8468 90.8654V90.6771L88.0351 90.4888L88.6 90.8654V91.0596L88.7941 91.4362L88.6 92.0011L88.4117 92.1894V92.3836L88.9824 92.9485H89.5473L89.9239 93.1368L90.4947 93.5193V93.7076H90.3064V93.8959L90.1181 94.2725V94.4608V95.0315H90.4947L90.8713 95.4081L91.0596 95.2198L91.2538 95.4081L91.4421 95.5964H91.8187L92.3895 95.4081L92.5778 95.5964L92.7661 95.7847H92.9544V95.9789L93.1427 96.1672H93.331L93.5192 96.3555H93.9017L94.2783 96.5438L94.6549 96.3555H95.0374L95.2257 96.5438L95.414 96.7321L95.0374 97.3029L95.2257 97.4912L95.6023 97.6795L95.7906 98.0561L95.9789 97.8678V98.0561L96.1731 98.2444H96.738L96.5497 98.4386L96.738 98.6269L97.3029 99.5684V99.9508V100.139L97.4971 100.327H97.6854L97.4971 100.704L97.6854 100.898L98.062 101.651V102.222L98.2503 102.599V102.975L98.062 103.358L97.8736 103.164V103.546V103.734H98.4385L99.0093 104.111V104.299L99.1976 104.488L99.0093 104.682L98.821 104.488L98.2503 104.682V104.87H98.4385H98.6327H98.821V105.058V105.247H99.0093L99.1976 105.435H99.3859V105.812H99.7625L99.5742 106.006L99.7625 106.194H99.5742L99.3859 106.006H99.1976L99.0093 106.194L98.821 106.382V106.571V106.947V107.141V107.33L98.4385 107.141V107.518L98.2503 107.706L98.4385 108.083H98.2503L98.062 108.277L98.2503 108.465L98.821 108.842L98.6327 109.03L98.821 109.407L98.6327 109.789L98.821 109.978V110.166L98.4385 110.543L98.2503 110.925L98.4385 111.113V111.302V111.49H98.6327V111.678L98.4385 111.867L98.821 112.061V112.249L99.1976 112.437V112.626H99.3859V112.814V113.002H99.5742L99.7625 113.196H99.9567V113.385H100.145V113.573L100.333 113.761L100.145 114.138V114.326L100.333 114.709H100.145L99.7625 114.52V114.709V114.897V115.085L99.5742 115.274L99.9567 115.462L99.7625 115.65V115.844L99.9567 116.221V116.598V116.786V116.98L99.5742 117.168L99.1976 117.357H99.0093V117.545L99.1976 117.733L98.821 117.545H98.6327L99.0093 117.733L98.821 117.922H98.6327L98.821 118.116V118.492L99.0093 118.681L99.1976 119.057L99.5742 118.681V119.246L99.7625 119.44L99.9567 119.628L100.145 119.816V120.005H100.333L100.71 120.193V120.005L101.092 119.816V120.005H101.281V120.193L101.469 120.381H101.281H100.898L101.092 120.764L101.281 120.57L101.469 120.764V120.952H101.657V121.14H101.281V121.329H101.469L101.846 121.517V121.705L101.657 121.899V122.088H101.846L102.034 122.276V122.464H102.222L102.034 122.653M206.663 85.5695H206.851M206.663 85.5695H206.098H205.904L205.339 85.7578L204.774 85.9461H204.58L204.203 85.5695L204.392 84.8163L205.151 84.6222L205.339 84.4339L205.904 84.2456V84.0573H206.098L206.286 83.869V83.6807H206.663L207.04 83.869L207.234 83.6807L207.799 83.4865H207.61V83.2982L207.234 83.1099L207.04 82.545H206.663V82.3567L206.475 82.1625L206.663 81.9742L206.851 81.7859V81.5976L207.04 81.4093L207.61 81.5976L208.175 81.221L208.558 81.4093V81.5976L208.746 81.9742H208.558L208.364 82.3567H208.558L208.175 82.7333V82.9216L207.987 83.1099L208.364 83.4865H208.558L208.934 83.2982L209.882 83.1099L210.258 82.545H210.635L210.823 82.3567H210.635L211.017 81.9742V82.3567H211.394L211.582 82.7333L211.017 83.1099L210.823 83.2982V83.4865L211.017 83.6807L211.771 83.4865H211.959L212.153 83.2982H212.341L213.095 82.7333L213.477 82.9216L213.854 81.9742L213.665 81.7859H213.854L214.419 82.1625H214.613L214.801 82.3567L214.989 82.545H215.366L215.554 82.7333L215.743 82.9216L215.554 83.4865H215.937H216.125L216.69 83.1099H217.067L217.261 82.7333H217.637L217.826 82.545L218.773 82.3567L219.338 82.545L219.532 82.3567H219.72V82.1625L219.909 81.7859L219.72 81.5976L220.662 81.0268H220.856L221.233 80.8385H221.421L222.18 80.6502L222.557 80.2736L222.368 80.0854V79.897L222.557 79.7029L222.933 79.3263H223.122L223.504 79.138L223.692 78.9497H223.881L224.257 78.7614L224.445 78.5672L224.828 78.7614L225.393 78.3789L225.964 78.1906L226.34 78.0023V78.1906H226.717H227.099H227.288L228.041 78.3789L228.235 78.1906L228.8 77.814H229.559H229.936L230.124 77.2432L230.5 77.0549L230.695 76.8666H230.883L231.071 77.0549H231.448H231.636L232.019 76.8666L232.395 76.6783V76.49H233.148L233.531 76.6783H233.907L234.284 77.0549L234.667 77.4374L234.855 78.1906V78.3789L234.667 78.7614L234.855 78.9497H235.043V79.138V79.5146H235.42L235.614 79.7029H235.802L235.991 79.897L236.179 80.2736L235.991 80.4619V80.8385L236.555 80.6502L236.744 80.8385L236.938 80.6502L237.126 80.8385L236.938 81.4093V81.5976V82.1625H237.126L237.315 82.3567L237.503 82.1625L237.879 82.545L238.068 82.3567V82.1625L238.262 82.3567L238.45 82.7333H238.638L239.015 81.9742L239.203 82.3567L239.586 82.1625L239.962 82.545H240.151H240.339L239.962 82.9216M239.962 82.9216V83.1099H240.151L239.962 82.9216ZM239.962 82.9216H240.151H240.533L240.722 83.1099H240.91L241.475 82.3567L241.286 82.1625H241.475L241.663 82.3567L242.046 82.545L242.234 82.3567H242.422L242.61 82.1625L242.987 81.9742H243.369L243.558 82.1625H243.746V81.9742L243.558 81.7859V81.5976L243.934 81.4093V81.221H244.123L244.505 81.4093H244.693H244.882L244.693 81.7859H244.882V82.3567H245.07H245.258L245.07 81.9742V81.7859L245.258 81.9742V81.7859V81.5976L245.453 81.7859L245.829 81.5976L246.017 81.9742L246.206 81.7859L246.394 81.9742H246.582H246.777L246.965 82.3567V82.1625L247.341 81.9742L247.906 82.3567L248.1 82.1625H248.477H248.665L248.854 82.545L249.042 82.3567H249.236V82.7333L249.424 82.9216H249.613L249.801 83.1099L249.613 83.2982L249.989 83.6807L250.372 84.0573V84.2456V84.4339L250.178 84.6222H249.989V85.0046L249.801 85.1929L249.424 85.3812H249.236V85.5695H249.424L249.236 85.7578H248.665L248.1 86.3286L248.289 86.5169H247.906L247.718 86.8935V87.0818L247.906 87.2701L247.718 87.4643H248.1V87.6526V87.8409H247.718L247.341 88.6L246.965 88.7883V88.6H246.582L246.017 88.9766M246.017 88.9766V89.1649H245.829L246.017 88.9766ZM246.017 88.9766L245.829 88.7883L244.505 89.3532H244.123H243.934H243.746V89.1649H243.369H243.181L242.987 89.3532L242.799 89.7298L242.61 89.9239H242.422L241.857 90.1122V89.9239H241.663V89.7298H241.475L241.663 89.3532L241.475 89.1649H241.098H240.91L240.533 89.5415L240.151 89.7298L239.774 90.1122L239.398 90.3005L238.827 89.9239L238.262 90.3005H238.068L237.315 90.6771L237.126 90.8654V91.0596L236.555 91.4362L236.179 91.0596L235.802 91.6245H235.614H235.42H235.231L235.043 91.4362L234.855 91.6245L234.284 92.0011L233.907 92.3836L234.096 92.5719L233.907 92.7602V92.9485H233.719H233.531H233.148H232.96H232.772V93.1368V93.3251L232.584 93.5193L232.772 93.7076L232.584 94.0842H232.772V94.2725L232.584 94.4608V94.8432L232.395 95.0315V95.2198L232.207 95.4081V95.5964V95.7847V95.9789L232.019 96.1672H232.207V96.3555H232.395L232.207 96.7321H232.395L232.207 96.9204L232.395 97.1087L232.019 97.3029L232.207 97.4912L231.824 97.6795L232.019 98.0561L231.824 98.2444H231.448L231.26 98.4386H231.071V98.6269H230.883L230.5 98.8152V99.0035V99.1918L230.312 99.3801V99.7625L230.124 99.9508L230.312 100.139H230.5V100.704H231.071L231.636 100.898L231.448 101.087L231.824 101.275V101.463L232.019 101.651L231.824 101.84L232.395 101.651V101.84L232.96 102.028V102.222L233.148 102.599V102.787L233.343 103.164H233.148L233.719 103.358L234.096 103.734H234.284L234.478 103.923L234.667 104.111H234.478H234.096L233.148 104.299L232.96 104.111H232.772H232.584V104.299L232.395 104.488H232.019L231.824 104.682H231.448H231.26L231.448 104.488L231.636 104.111L231.071 103.923H230.695L230.124 104.299V103.923V103.734L230.312 103.546L230.124 103.164H229.559L229.365 103.546L229.176 103.734H228.612L228.423 103.923V104.299L228.235 104.488H228.041L227.853 104.682V104.87L227.664 105.058L227.476 104.87H227.288L226.905 105.247L226.717 105.435H226.152L225.775 105.812V105.623L225.581 105.435L225.393 105.623L225.205 105.812M225.205 105.812H225.393M225.205 105.812V106.006V106.382L225.393 106.571L225.581 106.759L225.964 106.382H226.152V106.759M226.152 106.759H226.529M226.152 106.759H225.775L225.581 106.947H225.393H225.205L225.016 107.518V107.706H225.205L224.828 108.083V108.465L224.64 108.277V107.706H224.257L224.069 107.895L224.257 107.518H224.069L223.881 107.706L223.504 107.895L224.069 108.083L223.881 108.277H224.069V108.465L223.881 108.654V108.465H223.692V108.277L223.316 108.083L223.122 108.277L223.316 107.895H222.933V107.706L222.557 107.895L222.368 107.706H222.18V107.895V108.083L222.557 108.277L222.368 108.654H222.557V109.03H222.368H222.18H221.986H221.798V108.842V108.654L221.609 108.465L221.044 108.654L220.662 109.03V109.219L221.044 109.407M221.044 109.407V109.219M221.044 109.407V109.789M221.044 109.789H221.233M221.044 109.789L221.233 109.978V110.166H221.044H220.474L220.285 110.543H219.909H220.097L219.909 110.354L219.72 110.731V110.354H219.338H219.15L219.338 110.166L219.15 109.978H218.961H218.773L218.202 110.166L217.637 110.543L217.067 111.302V111.49L216.69 111.678L216.502 111.49L216.125 111.678H215.937V111.49H215.743L215.366 111.678L214.989 112.249V113.196L215.178 113.761L215.366 114.326H215.554H215.937V114.709L215.554 115.085L215.937 115.844V116.409V116.786L215.743 116.598V116.786V116.98L215.366 117.168L214.989 117.357L214.801 117.168L214.613 117.357V117.168L214.042 116.98L213.665 117.357H213.477L213.283 117.545H213.095V117.733H212.718V117.357H212.153V116.98L211.959 116.786H211.582V116.409L211.394 116.221H210.635L210.447 116.409L209.882 116.598H209.693L209.499 116.409L209.693 116.033H209.311H209.123V115.844H208.746L208.558 116.033V115.844H208.364H207.987L207.799 116.033L207.61 115.65H207.422H207.234H207.04H206.663H205.904V115.462H205.716L204.774 115.65V115.462L204.392 115.274H203.444L201.932 115.462L199.855 116.033L199.472 116.221L199.284 116.598L198.908 116.409L198.337 116.786L198.148 116.98V117.168L197.96 117.357H197.772L197.96 117.168L197.772 116.98L197.584 116.786L197.013 116.98L195.877 117.545L195.501 117.733V118.116H195.312L195.124 118.304L195.689 118.116L195.501 118.304L195.312 118.681V119.057L194.936 119.246V119.44H195.124L194.936 119.628H194.741L194.177 120.005V120.381L194.365 120.57L194.553 120.381V120.57H194.741L194.553 120.764L194.365 120.952L193.988 121.14V121.517V121.899H194.177H193.8L193.606 122.088V122.276L193.417 122.088L193.606 121.899H193.229H192.282L191.905 122.276L191.717 122.464L191.905 122.653H191.717H191.529L191.34 122.841V123.223L191.152 123.6V123.412L191.34 123.035L191.152 122.841L190.958 122.653L190.77 122.841L190.581 123.035V122.841H190.393H190.205V122.276L190.581 122.088L190.393 121.705L190.205 121.517L189.634 121.329H189.257H188.881V121.517V121.705L188.686 121.329H188.498L188.31 121.517H188.498L188.686 121.899V122.088H188.31V122.276V122.464L188.498 122.653H188.31V122.841L188.122 123.223H187.933L188.122 122.841L187.557 122.653L186.421 122.841L185.285 123.412L182.255 124.736L179.419 126.436L177.147 127.572L176.771 127.948L176.2 128.143L174.311 129.467L172.987 130.22L171.281 131.738V131.926V132.491L171.092 132.679L170.716 133.062L170.904 133.25L171.092 133.439V133.627H171.281L171.092 133.815L171.281 134.003H171.092V134.198L170.904 134.003L170.716 134.198V134.386H170.527L169.957 134.574L169.203 134.951L168.821 135.327L167.497 136.275L166.361 137.034L166.173 137.222V137.599L165.796 137.787L165.037 138.358V138.546L164.284 138.734L160.312 141.194H160.118V141.382L159.177 141.953L158.982 142.33L157.658 142.706L156.523 143.465L154.063 144.978L153.122 145.737L149.715 148.385L147.82 150.279L146.878 151.409L146.69 151.98L146.496 152.545H145.931V152.739L146.119 153.304L146.308 153.492V153.681V154.063L145.931 154.44L145.743 155.199V155.387H145.931V155.575M145.931 155.575V155.764M145.931 155.575H145.743H145.554L144.984 155.952L144.224 156.711L142.712 157.847L140.823 159.924H140.635V159.547L141.012 159.171L142.712 157.658L142.524 157.464L142.712 157.276H142.524H142.336L142.147 157.464L141.771 157.276V157.464V157.658V157.847H141.388L141.2 158.035L141.012 157.847L140.635 158.035L140.253 158.223L139.305 157.464L139.117 157.276L138.929 156.899H138.552L138.175 156.711L137.981 156.329L138.552 156.14L138.74 155.764V155.387H138.929L139.117 155.199L138.74 155.005L138.364 154.816V154.628L137.981 154.251V154.063L137.605 153.492V153.304L137.416 153.116L137.605 152.739L137.416 152.168L137.605 151.98V151.792H137.416L137.04 151.603V151.409L137.228 151.221H137.04V151.033L136.851 150.844L136.657 150.656L136.469 150.279L136.281 150.468V150.656V150.844H136.092H135.904V151.033V151.221L135.716 151.409V151.603V151.98H135.522L135.333 151.603H135.145V151.792L134.768 152.168L134.58 152.545L134.198 152.927V152.545H134.386V151.98H134.198L134.009 152.168V151.98H133.633V151.792V151.603L133.062 151.033H132.874V150.844L132.497 150.656L131.932 150.468L131.738 150.656H131.361L130.226 151.409L130.037 152.168V152.545H129.661L129.467 152.739L129.09 153.304L128.902 153.492L128.713 153.869H128.525L128.143 153.492L127.954 153.304L127.766 153.116V152.739L127.578 152.545V152.357H127.201V151.98L127.013 151.792V151.603H126.819V151.409V151.221V151.033V150.844H127.013V150.656L127.389 150.468L127.578 150.085V149.897V149.709L127.766 149.52L127.578 149.332L127.766 149.144L127.578 148.95V148.761V148.573V148.196V148.008H127.766V148.196L127.954 147.82H127.766L127.954 147.626L128.143 147.437V147.249V147.061H127.578L127.766 146.872L127.578 146.49L127.766 146.113L127.954 145.925V145.737V145.36L128.525 144.978L128.713 144.789L129.09 144.601V144.225H129.278V143.842L129.467 143.654V143.465L129.278 143.277V143.465H128.902H128.713V143.277L128.525 143.089H128.337V142.901H128.143V142.706H127.766L127.578 142.33V142.141L127.389 141.953L127.201 141.571L127.013 141.765L126.819 141.571L126.63 141.382L126.442 141.571L126.254 141.382L125.877 141.765H125.495V141.953L125.118 142.141L124.93 142.518L124.553 142.33H124.741L124.553 142.141L124.741 141.953H124.553L124.741 141.765L124.553 141.571L124.171 141.382V141.571V141.765V142.141L123.982 141.953L123.794 141.765L123.035 141.953L122.658 142.141H122.47V141.765H122.282L122.094 142.141L121.711 142.33L121.523 141.765L121.146 141.571H120.764L120.575 141.194L120.387 141.006L120.01 141.382L119.634 141.006L119.44 141.194L119.822 141.571H119.634L119.251 141.382L118.304 141.571H118.116V141.765H117.927L117.739 141.571H117.551H117.174L116.792 141.953L116.603 141.571H116.227V141.382H115.85V141.006H115.656L115.279 141.194L115.468 140.629H115.656V140.441H115.468L115.091 140.629L114.715 140.441H114.52L114.332 140.629L114.52 140.817M114.52 140.817L114.715 140.629M114.52 140.817V141.006V141.194L114.332 141.382L114.144 141.765H113.956L113.767 141.953H113.579L113.385 141.571H113.196V141.765H112.82V141.571H112.632L112.443 141.953L112.061 141.765L111.872 141.571H111.119H110.931H110.737H110.36L110.172 141.765V141.953H109.795V142.33H109.036H108.848L108.471 142.141H108.277H107.901L107.336 141.571H107.141V141.382H106.953L107.141 141.006V140.817H106.953V140.629H106.765L106.953 140.058L106.765 139.87V139.682L106.953 139.494L107.141 139.305L106.765 139.117H106.953V138.923L106.765 138.546V138.358V138.17H106.953L107.141 137.981L107.336 138.17L107.524 137.787L107.712 137.599L107.524 137.41V137.034L107.336 136.651H107.524L108.089 136.463V136.086L108.277 135.898L108.471 135.71H108.66V135.522V135.327H108.471L108.66 134.951L108.471 134.763L108.848 134.386L109.036 134.003V133.815H108.848L108.66 134.198L108.471 134.003V133.815L108.848 133.25L109.225 132.679H109.413L109.984 132.115L109.795 131.926H109.413L109.225 131.738H108.66V131.355H108.471L108.089 130.979H107.901L107.712 131.167L107.524 130.979V130.791V130.602L107.336 130.408L107.141 130.22L107.336 129.843L107.141 129.655H106.953L107.141 129.467L106.953 129.278H106.577V129.084L105.817 128.519L105.629 128.331L106.012 128.143V127.76V127.195V126.819L106.388 126.624L106.2 126.436V126.248H106.012L105.441 125.871V125.683L105.253 125.489L105.064 125.683L104.876 125.489L104.682 125.683V125.489L104.117 125.301L104.305 125.112H104.117L104.305 124.924L103.74 124.736H103.552V124.547L103.358 124.359L103.552 124.165H103.358V123.977L102.981 123.788L102.793 123.6L102.605 123.412V123.035H102.416V122.841H102.222H102.034H101.846L102.034 122.653M102.034 122.653H101.846M231.071 105.058V105.247H231.26V105.058H231.071ZM231.071 105.058L231.26 104.87H231.071V105.058ZM226.34 114.897V114.709M226.34 114.897H226.529H226.717L226.529 115.085H226.717V115.274L226.529 115.462V115.274L226.34 115.085V114.897ZM198.525 117.357V117.168M221.044 108.842H221.233M229.747 103.734V103.546M218.396 110.354V110.166M218.773 120.005V119.816M218.014 120.005V119.816M226.152 109.219H226.34M171.851 132.868H172.04M229.747 104.299H229.936M229.747 104.299V104.488L229.559 104.299H229.747ZM207.04 116.221H207.234M212.53 117.922H212.341V118.116H212.53V117.922ZM212.53 117.922V117.733M230.883 105.623V105.812M230.883 105.623H231.071M230.883 105.623L231.071 105.812V105.623M231.071 105.623V105.435M224.828 108.842L224.64 109.03L224.828 109.219V109.407V109.789L225.393 109.219L225.964 109.03V108.842L225.393 108.654V108.842L225.205 109.03H225.016L224.828 108.842ZM224.828 108.842V108.654M225.964 108.465H225.775L225.964 108.277V108.465ZM229.559 105.623H229.747V105.812H229.559V105.623ZM219.338 118.116H219.15V118.304H218.961V118.492L219.532 118.681L219.338 118.869L219.532 119.057H219.72L220.097 119.44L220.285 119.057L220.474 119.246H220.662L220.856 119.44L220.662 119.628L220.474 119.44V119.628V120.005V120.193V120.381V120.57H220.662L220.474 120.764V120.952L220.097 121.329L219.532 121.14L219.15 120.57L219.338 120.193L218.961 119.628L218.585 119.816V119.628L218.396 119.816H218.202L218.014 119.628L217.826 119.816H217.637V120.005L217.261 119.816L217.067 120.193L215.937 120.381H215.743L215.178 120.57L214.613 120.381L214.23 119.816V119.057V118.869H214.419L214.801 118.492H214.989V118.304L215.366 118.116H215.554L215.366 117.922H215.554L216.502 116.98L216.878 116.786V116.033H217.067V115.844L217.261 115.65V115.462V115.274L217.449 114.709V114.326L217.826 114.138L218.202 114.326L218.396 114.52H218.961V114.709H219.338L219.532 114.897H219.72L219.909 115.085V115.274L220.097 115.462H220.285L220.474 115.844H220.662L220.474 116.033V116.409L220.285 116.786H220.474V116.98L220.097 117.168L220.285 117.357H220.474L220.285 117.545H220.474H220.662L220.474 117.733L219.909 117.545H219.532L219.15 117.922H219.338V118.116ZM220.662 116.98V116.786L220.856 116.98H220.662ZM228.612 104.682H228.423V104.488H228.612V104.682ZM173.74 133.062H173.934V133.25H173.74V133.062ZM173.934 133.627V133.439H174.123V133.627H173.934ZM206.851 116.598V116.409H207.04V116.598H206.851ZM218.773 110.731L218.961 110.543H219.15V110.731H218.773ZM205.151 118.304V118.116H205.339H205.527L205.339 118.304V118.492H205.151V118.304ZM222.557 109.789L222.745 109.601L222.933 109.789V109.978L222.745 109.789L222.557 109.978V109.789ZM222.557 116.598L222.933 116.409L223.122 116.221V116.409L223.881 116.786L223.692 116.98L223.316 116.786L222.933 117.168L222.745 116.786L222.557 116.598Z" stroke="white"/>
</svg>
